<?xml version="1.0" encoding="utf-8"?>
<!-- Generator: Adobe Illustrator 18.1.0, SVG Export Plug-In . SVG Version: 6.00 Build 0)  -->
<svg version="1.1" xmlns="http://www.w3.org/2000/svg" xmlns:xlink="http://www.w3.org/1999/xlink" x="0px" y="0px"
	 viewBox="0 0 1943.7 252.5" enable-background="new 0 0 1943.7 252.5" xml:space="preserve">
<g id="Layer_1">
	<polygon fill="#FFFFFF" points="1943.7,251.5 0,251.3 0,0 1943.7,0.2 	"/>
</g>
<g id="Layer_7">
	<path fill="none" stroke="#92C3F4" stroke-miterlimit="10" d="M1964.3-0.3"/>
	<line fill="none" stroke="#92C3F4" stroke-miterlimit="10" x1="193.2" y1="0" x2="193.2" y2="253"/>
	<line fill="none" stroke="#92C3F4" stroke-miterlimit="10" x1="211.2" y1="0" x2="211.2" y2="253"/>
	<line fill="none" stroke="#92C3F4" stroke-miterlimit="10" x1="229.2" y1="0" x2="229.2" y2="253"/>
	<line fill="none" stroke="#92C3F4" stroke-miterlimit="10" x1="247.2" y1="0" x2="247.2" y2="253"/>
	<line fill="none" stroke="#92C3F4" stroke-miterlimit="10" x1="265.2" y1="0" x2="265.2" y2="253"/>
	<line fill="none" stroke="#92C3F4" stroke-miterlimit="10" x1="283.2" y1="0" x2="283.2" y2="253"/>
	<line fill="none" stroke="#92C3F4" stroke-miterlimit="10" x1="301.2" y1="0" x2="301.2" y2="253"/>
	<line fill="none" stroke="#92C3F4" stroke-miterlimit="10" x1="319.2" y1="0" x2="319.2" y2="253"/>
	<line fill="none" stroke="#92C3F4" stroke-miterlimit="10" x1="337.2" y1="0" x2="337.2" y2="253"/>
	<line fill="none" stroke="#92C3F4" stroke-miterlimit="10" x1="355.2" y1="0" x2="355.2" y2="253"/>
	<line fill="none" stroke="#92C3F4" stroke-miterlimit="10" x1="373.2" y1="0" x2="373.2" y2="253"/>
	<line fill="none" stroke="#92C3F4" stroke-miterlimit="10" x1="391.2" y1="0" x2="391.2" y2="253"/>
	<line fill="none" stroke="#92C3F4" stroke-miterlimit="10" x1="409.2" y1="0" x2="409.2" y2="253"/>
	<line fill="none" stroke="#92C3F4" stroke-miterlimit="10" x1="427.2" y1="0" x2="427.2" y2="253"/>
	<line fill="none" stroke="#92C3F4" stroke-miterlimit="10" x1="445.2" y1="0" x2="445.2" y2="253"/>
	<line fill="none" stroke="#92C3F4" stroke-miterlimit="10" x1="463.2" y1="0" x2="463.2" y2="253"/>
	<line fill="none" stroke="#92C3F4" stroke-miterlimit="10" x1="481.2" y1="0" x2="481.2" y2="253"/>
	<line fill="none" stroke="#92C3F4" stroke-miterlimit="10" x1="499.2" y1="0" x2="499.2" y2="253"/>
	<line fill="none" stroke="#92C3F4" stroke-miterlimit="10" x1="517.2" y1="0" x2="517.2" y2="253"/>
	<line fill="none" stroke="#92C3F4" stroke-miterlimit="10" x1="535.2" y1="0" x2="535.2" y2="253"/>
	<line fill="none" stroke="#92C3F4" stroke-miterlimit="10" x1="553.2" y1="0" x2="553.2" y2="253"/>
	<line fill="none" stroke="#92C3F4" stroke-miterlimit="10" x1="571.2" y1="0" x2="571.2" y2="253"/>
	<line fill="none" stroke="#92C3F4" stroke-miterlimit="10" x1="589.2" y1="0" x2="589.2" y2="253"/>
	<line fill="none" stroke="#92C3F4" stroke-miterlimit="10" x1="607.2" y1="0" x2="607.2" y2="253"/>
	<line fill="none" stroke="#92C3F4" stroke-miterlimit="10" x1="625.2" y1="0" x2="625.2" y2="253"/>
	<line fill="none" stroke="#92C3F4" stroke-miterlimit="10" x1="643.2" y1="0" x2="643.2" y2="253"/>
	<line fill="none" stroke="#92C3F4" stroke-miterlimit="10" x1="661.2" y1="0" x2="661.2" y2="253"/>
	<line fill="none" stroke="#92C3F4" stroke-miterlimit="10" x1="679.2" y1="0" x2="679.2" y2="253"/>
	<line fill="none" stroke="#92C3F4" stroke-miterlimit="10" x1="697.2" y1="0" x2="697.2" y2="253"/>
	<line fill="none" stroke="#92C3F4" stroke-miterlimit="10" x1="715.2" y1="0" x2="715.2" y2="253"/>
	<line fill="none" stroke="#92C3F4" stroke-miterlimit="10" x1="733.2" y1="0" x2="733.2" y2="253"/>
	<line fill="none" stroke="#92C3F4" stroke-miterlimit="10" x1="751.2" y1="0" x2="751.2" y2="253"/>
	<line fill="none" stroke="#92C3F4" stroke-miterlimit="10" x1="769.2" y1="0" x2="769.2" y2="253"/>
	<line fill="none" stroke="#92C3F4" stroke-miterlimit="10" x1="787.2" y1="0" x2="787.2" y2="253"/>
	<line fill="none" stroke="#92C3F4" stroke-miterlimit="10" x1="805.2" y1="0" x2="805.2" y2="253"/>
	<line fill="none" stroke="#92C3F4" stroke-miterlimit="10" x1="823.2" y1="0" x2="823.2" y2="253"/>
	<line fill="none" stroke="#92C3F4" stroke-miterlimit="10" x1="841.2" y1="0" x2="841.2" y2="253"/>
	<line fill="none" stroke="#92C3F4" stroke-miterlimit="10" x1="859.2" y1="0" x2="859.2" y2="253"/>
	<line fill="none" stroke="#92C3F4" stroke-miterlimit="10" x1="877.2" y1="0" x2="877.2" y2="253"/>
	<line fill="none" stroke="#92C3F4" stroke-miterlimit="10" x1="895.2" y1="0" x2="895.2" y2="253"/>
	<line fill="none" stroke="#92C3F4" stroke-miterlimit="10" x1="913.2" y1="0" x2="913.2" y2="253"/>
	<line fill="none" stroke="#92C3F4" stroke-miterlimit="10" x1="931.2" y1="0" x2="931.2" y2="253"/>
	<line fill="none" stroke="#92C3F4" stroke-miterlimit="10" x1="949.2" y1="0" x2="949.2" y2="253"/>
	<line fill="none" stroke="#92C3F4" stroke-miterlimit="10" x1="967.2" y1="0" x2="967.2" y2="253"/>
	<line fill="none" stroke="#92C3F4" stroke-miterlimit="10" x1="985.2" y1="0" x2="985.2" y2="253"/>
	<line fill="none" stroke="#92C3F4" stroke-miterlimit="10" x1="1003.2" y1="0" x2="1003.2" y2="253"/>
	<line fill="none" stroke="#92C3F4" stroke-miterlimit="10" x1="1021.2" y1="0" x2="1021.2" y2="253"/>
	<line fill="none" stroke="#92C3F4" stroke-miterlimit="10" x1="1039.2" y1="0" x2="1039.2" y2="253"/>
	<line fill="none" stroke="#92C3F4" stroke-miterlimit="10" x1="1057.2" y1="0" x2="1057.2" y2="253"/>
	<line fill="none" stroke="#92C3F4" stroke-miterlimit="10" x1="1075.2" y1="0" x2="1075.2" y2="253"/>
	<line fill="none" stroke="#92C3F4" stroke-miterlimit="10" x1="1093.2" y1="0" x2="1093.2" y2="253"/>
	<line fill="none" stroke="#92C3F4" stroke-miterlimit="10" x1="1111.2" y1="0" x2="1111.2" y2="253"/>
	<line fill="none" stroke="#92C3F4" stroke-miterlimit="10" x1="1129.2" y1="0" x2="1129.2" y2="253"/>
	<line fill="none" stroke="#92C3F4" stroke-miterlimit="10" x1="1147.2" y1="0" x2="1147.2" y2="253"/>
	<line fill="none" stroke="#92C3F4" stroke-miterlimit="10" x1="1165.2" y1="0" x2="1165.2" y2="253"/>
	<line fill="none" stroke="#92C3F4" stroke-miterlimit="10" x1="1183.2" y1="0" x2="1183.2" y2="253"/>
	<line fill="none" stroke="#92C3F4" stroke-miterlimit="10" x1="1201.2" y1="0" x2="1201.2" y2="253"/>
	<line fill="none" stroke="#92C3F4" stroke-miterlimit="10" x1="1219.2" y1="0" x2="1219.2" y2="253"/>
	<line fill="none" stroke="#92C3F4" stroke-miterlimit="10" x1="1237.2" y1="0" x2="1237.2" y2="253"/>
	<line fill="none" stroke="#92C3F4" stroke-miterlimit="10" x1="1255.2" y1="0" x2="1255.2" y2="253"/>
	<line fill="none" stroke="#92C3F4" stroke-miterlimit="10" x1="1273.2" y1="0" x2="1273.2" y2="253"/>
	<line fill="none" stroke="#92C3F4" stroke-miterlimit="10" x1="1291.2" y1="0" x2="1291.2" y2="253"/>
	<line fill="none" stroke="#92C3F4" stroke-miterlimit="10" x1="1309.2" y1="0" x2="1309.2" y2="253"/>
	<line fill="none" stroke="#92C3F4" stroke-miterlimit="10" x1="1327.2" y1="0" x2="1327.2" y2="253"/>
	<line fill="none" stroke="#92C3F4" stroke-miterlimit="10" x1="1345.2" y1="0" x2="1345.2" y2="253"/>
	<line fill="none" stroke="#92C3F4" stroke-miterlimit="10" x1="1363.2" y1="0" x2="1363.2" y2="253"/>
	<line fill="none" stroke="#92C3F4" stroke-miterlimit="10" x1="1381.2" y1="0" x2="1381.2" y2="253"/>
	<line fill="none" stroke="#92C3F4" stroke-miterlimit="10" x1="1399.2" y1="0" x2="1399.2" y2="253"/>
	<line fill="none" stroke="#92C3F4" stroke-miterlimit="10" x1="1417.2" y1="0" x2="1417.2" y2="253"/>
	<line fill="none" stroke="#92C3F4" stroke-miterlimit="10" x1="1435.2" y1="0" x2="1435.2" y2="253"/>
	<line fill="none" stroke="#92C3F4" stroke-miterlimit="10" x1="1453.2" y1="0" x2="1453.2" y2="253"/>
	<line fill="none" stroke="#92C3F4" stroke-miterlimit="10" x1="1471.2" y1="0" x2="1471.2" y2="253"/>
	<line fill="none" stroke="#92C3F4" stroke-miterlimit="10" x1="1489.2" y1="0" x2="1489.2" y2="253"/>
	<line fill="none" stroke="#92C3F4" stroke-miterlimit="10" x1="1507.2" y1="0" x2="1507.2" y2="253"/>
	<line fill="none" stroke="#92C3F4" stroke-miterlimit="10" x1="1525.2" y1="0" x2="1525.2" y2="253"/>
	<line fill="none" stroke="#92C3F4" stroke-miterlimit="10" x1="1543.2" y1="0" x2="1543.2" y2="253"/>
	<line fill="none" stroke="#92C3F4" stroke-miterlimit="10" x1="1561.2" y1="0" x2="1561.2" y2="253"/>
	<line fill="none" stroke="#92C3F4" stroke-miterlimit="10" x1="1579.2" y1="0" x2="1579.2" y2="253"/>
	<line fill="none" stroke="#92C3F4" stroke-miterlimit="10" x1="1597.2" y1="0" x2="1597.2" y2="253"/>
	<line fill="none" stroke="#92C3F4" stroke-miterlimit="10" x1="1615.2" y1="0" x2="1615.2" y2="253"/>
	<line fill="none" stroke="#92C3F4" stroke-miterlimit="10" x1="1633.2" y1="0" x2="1633.2" y2="253"/>
	<line fill="none" stroke="#92C3F4" stroke-miterlimit="10" x1="1651.2" y1="0" x2="1651.2" y2="253"/>
	<line fill="none" stroke="#92C3F4" stroke-miterlimit="10" x1="1669.2" y1="0" x2="1669.2" y2="253"/>
	<line fill="none" stroke="#92C3F4" stroke-miterlimit="10" x1="1687.2" y1="0" x2="1687.2" y2="253"/>
	<line fill="none" stroke="#92C3F4" stroke-miterlimit="10" x1="1705.2" y1="0" x2="1705.2" y2="253"/>
	<line fill="none" stroke="#92C3F4" stroke-miterlimit="10" x1="1723.2" y1="0" x2="1723.2" y2="253"/>
	<line fill="none" stroke="#92C3F4" stroke-miterlimit="10" x1="1741.2" y1="0" x2="1741.2" y2="253"/>
	<line fill="none" stroke="#92C3F4" stroke-miterlimit="10" x1="-0.3" y1="18.5" x2="1943.7" y2="18.5"/>
	<line fill="none" stroke="#92C3F4" stroke-miterlimit="10" x1="-0.3" y1="36.5" x2="1943.7" y2="36.5"/>
	<line fill="none" stroke="#92C3F4" stroke-miterlimit="10" x1="-0.3" y1="54.5" x2="1943.7" y2="54.5"/>
	<line fill="none" stroke="#92C3F4" stroke-miterlimit="10" x1="-0.3" y1="72.5" x2="1943.7" y2="72.5"/>
	<line fill="none" stroke="#92C3F4" stroke-miterlimit="10" x1="-0.3" y1="90.5" x2="1943.7" y2="90.5"/>
	<line fill="none" stroke="#92C3F4" stroke-miterlimit="10" x1="-0.3" y1="0.5" x2="1943.7" y2="0.5"/>
	<line fill="none" stroke="#92C3F4" stroke-miterlimit="10" x1="-0.3" y1="108.5" x2="1943.7" y2="108.5"/>
	<line fill="none" stroke="#92C3F4" stroke-miterlimit="10" x1="-0.3" y1="126.5" x2="1943.7" y2="126.5"/>
	<line fill="none" stroke="#92C3F4" stroke-miterlimit="10" x1="-0.3" y1="144.5" x2="1943.7" y2="144.5"/>
	<line fill="none" stroke="#92C3F4" stroke-miterlimit="10" x1="-0.3" y1="162.5" x2="1943.7" y2="162.5"/>
	<line fill="none" stroke="#92C3F4" stroke-miterlimit="10" x1="-0.3" y1="180.5" x2="1943.7" y2="180.5"/>
	<line fill="none" stroke="#92C3F4" stroke-miterlimit="10" x1="-0.3" y1="198.5" x2="1943.7" y2="198.5"/>
	<line fill="none" stroke="#92C3F4" stroke-miterlimit="10" x1="-0.3" y1="216.5" x2="1943.7" y2="216.5"/>
	<line fill="none" stroke="#92C3F4" stroke-miterlimit="10" x1="-0.3" y1="234.5" x2="1943.7" y2="234.5"/>
	<line fill="none" stroke="#92C3F4" stroke-miterlimit="10" x1="-0.3" y1="252.5" x2="1943.7" y2="252.5"/>
	<path fill="none" stroke="#FF0000" stroke-miterlimit="10" d="M1949.8,198.6"/>
	<path fill="none" stroke="#000000" stroke-miterlimit="10" d="M1181.2,545.6"/>
	<line fill="none" stroke="#92C3F4" stroke-miterlimit="10" x1="49.2" y1="0" x2="49.2" y2="253"/>
	<line fill="none" stroke="#92C3F4" stroke-miterlimit="10" x1="67.2" y1="0" x2="67.2" y2="253"/>
	<line fill="none" stroke="#92C3F4" stroke-miterlimit="10" x1="85.2" y1="0" x2="85.2" y2="253"/>
	<line fill="none" stroke="#92C3F4" stroke-miterlimit="10" x1="103.2" y1="0" x2="103.2" y2="253"/>
	<line fill="none" stroke="#92C3F4" stroke-miterlimit="10" x1="121.2" y1="0" x2="121.2" y2="253"/>
	<line fill="none" stroke="#92C3F4" stroke-miterlimit="10" x1="139.2" y1="0" x2="139.2" y2="253"/>
	<line fill="none" stroke="#92C3F4" stroke-miterlimit="10" x1="157.2" y1="0" x2="157.2" y2="253"/>
	<line fill="none" stroke="#92C3F4" stroke-miterlimit="10" x1="175.2" y1="0" x2="175.2" y2="253"/>
	<path fill="none" stroke="#92C3F4" stroke-miterlimit="10" d="M1154.7-282.4"/>
	<path fill="none" stroke="#92C3F4" stroke-miterlimit="10" d="M-40.8,252.9"/>
	<path fill="none" stroke="#92C3F4" stroke-miterlimit="10" d="M-22.8,252.9"/>
	<path fill="none" stroke="#92C3F4" stroke-miterlimit="10" d="M-4.8,252.9"/>
	<line fill="none" stroke="#92C3F4" stroke-miterlimit="10" x1="13.2" y1="0" x2="13.2" y2="253"/>
	<line fill="none" stroke="#92C3F4" stroke-miterlimit="10" x1="31.2" y1="0" x2="31.2" y2="253"/>
	<line fill="none" stroke="#92C3F4" stroke-miterlimit="10" x1="1759.2" y1="0" x2="1759.2" y2="253"/>
	<line fill="none" stroke="#92C3F4" stroke-miterlimit="10" x1="1777.2" y1="0" x2="1777.2" y2="253"/>
	<line fill="none" stroke="#92C3F4" stroke-miterlimit="10" x1="1795.2" y1="0" x2="1795.2" y2="253"/>
	<line fill="none" stroke="#92C3F4" stroke-miterlimit="10" x1="1813.2" y1="0" x2="1813.2" y2="253"/>
	<line fill="none" stroke="#92C3F4" stroke-miterlimit="10" x1="1831.2" y1="0" x2="1831.2" y2="253"/>
	<line fill="none" stroke="#92C3F4" stroke-miterlimit="10" x1="1849.2" y1="0" x2="1849.2" y2="253"/>
	<line fill="none" stroke="#92C3F4" stroke-miterlimit="10" x1="1867.2" y1="0" x2="1867.2" y2="253"/>
	<line fill="none" stroke="#92C3F4" stroke-miterlimit="10" x1="1885.2" y1="0" x2="1885.2" y2="253"/>
	<line fill="none" stroke="#92C3F4" stroke-miterlimit="10" x1="1903.2" y1="0" x2="1903.2" y2="253"/>
	<line fill="none" stroke="#92C3F4" stroke-miterlimit="10" x1="1921.2" y1="0" x2="1921.2" y2="253"/>
	<line fill="none" stroke="#92C3F4" stroke-miterlimit="10" x1="1939.2" y1="0" x2="1939.2" y2="253"/>
	<path fill="none" stroke="#92C3F4" stroke-miterlimit="10" d="M1957.2,0.1"/>
	<path fill="none" stroke="#92C3F4" stroke-miterlimit="10" d="M1975.2,0.1"/>
</g>
<g id="Layer_17">
	<polygon fill="#FFFFFF" stroke="#92C3F4" stroke-miterlimit="10" points="193.2,54.6 211.2,54.6 211.2,71.6 211.2,72.6 193.2,72.6 
			"/>
	<path fill="#FFFFFF" stroke="#92C3F4" stroke-miterlimit="10" d="M211.2,72.6l-18-18L211.2,72.6z"/>
	<polygon fill="#FFFFFF" stroke="#92C3F4" stroke-miterlimit="10" points="211.2,54.6 229.2,54.6 229.2,71.6 229.2,72.6 211.2,72.6 
			"/>
	<path fill="#FFFFFF" stroke="#92C3F4" stroke-miterlimit="10" d="M229.2,72.6l-18-18L229.2,72.6z"/>
	<polygon fill="#FFFFFF" stroke="#92C3F4" stroke-miterlimit="10" points="211.2,72.6 211.2,90.6 194.1,90.6 193.2,90.6 193.2,72.6 
			"/>
	<path fill="#FFFFFF" stroke="#92C3F4" stroke-miterlimit="10" d="M193.2,90.6l18-18L193.2,90.6z"/>
	<polygon fill="#FFFFFF" stroke="#92C3F4" stroke-miterlimit="10" points="229.2,90.6 211.2,90.6 211.2,73.6 211.2,72.6 229.2,72.6 
			"/>
	<path fill="#FFFFFF" stroke="#92C3F4" stroke-miterlimit="10" d="M211.2,72.6l18,18L211.2,72.6z"/>
	<polygon fill="#FFFFFF" stroke="#92C3F4" stroke-miterlimit="10" points="211.2,90.6 211.2,108.6 194.1,108.6 193.2,108.6 
		193.2,90.6 	"/>
	<path fill="#FFFFFF" stroke="#92C3F4" stroke-miterlimit="10" d="M193.2,108.6l18-18L193.2,108.6z"/>
	<polygon fill="#FFFFFF" stroke="#92C3F4" stroke-miterlimit="10" points="211.2,90.6 229.2,90.6 229.2,107.6 229.2,108.6 
		211.2,108.6 	"/>
	<path fill="#FFFFFF" stroke="#92C3F4" stroke-miterlimit="10" d="M229.2,108.6l-18-18L229.2,108.6z"/>
	<polygon fill="#FFFFFF" stroke="#92C3F4" stroke-miterlimit="10" points="193.2,108.6 211.2,108.6 211.2,125.6 211.2,126.6 
		193.2,126.6 	"/>
	<path fill="#FFFFFF" stroke="#92C3F4" stroke-miterlimit="10" d="M211.2,126.6l-18-18L211.2,126.6z"/>
	<polygon fill="#FFFFFF" stroke="#92C3F4" stroke-miterlimit="10" points="211.2,126.6 211.2,108.6 228.2,108.6 229.2,108.6 
		229.2,126.6 	"/>
	<path fill="#FFFFFF" stroke="#92C3F4" stroke-miterlimit="10" d="M229.2,108.6l-18,18L229.2,108.6z"/>
	<polygon fill="#FFFFFF" stroke="#92C3F4" stroke-miterlimit="10" points="193.2,126.6 211.2,126.6 211.2,143.6 211.2,144.6 
		193.2,144.6 	"/>
	<path fill="#FFFFFF" stroke="#92C3F4" stroke-miterlimit="10" d="M211.2,144.6l-18-18L211.2,144.6z"/>
	<polygon fill="#FFFFFF" stroke="#92C3F4" stroke-miterlimit="10" points="211.2,126.6 229.2,126.6 229.2,143.6 229.2,144.6 
		211.2,144.6 	"/>
	<path fill="#FFFFFF" stroke="#92C3F4" stroke-miterlimit="10" d="M229.2,144.6l-18-18L229.2,144.6z"/>
	<polygon fill="#FFFFFF" stroke="#92C3F4" stroke-miterlimit="10" points="193.2,144.6 211.2,144.6 211.2,161.6 211.2,162.6 
		193.2,162.6 	"/>
	<path fill="#FFFFFF" stroke="#92C3F4" stroke-miterlimit="10" d="M211.2,162.6l-18-18L211.2,162.6z"/>
	<polygon fill="#FFFFFF" stroke="#92C3F4" stroke-miterlimit="10" points="229.2,144.6 229.2,162.6 212.1,162.6 211.2,162.6 
		211.2,144.6 	"/>
	<path fill="#FFFFFF" stroke="#92C3F4" stroke-miterlimit="10" d="M211.2,162.6l18-18L211.2,162.6z"/>
	<polygon fill="#FFFFFF" stroke="#92C3F4" stroke-miterlimit="10" points="193.2,180.6 193.2,162.6 210.2,162.6 211.2,162.6 
		211.2,180.6 	"/>
	<path fill="#FFFFFF" stroke="#92C3F4" stroke-miterlimit="10" d="M211.2,162.6l-18,18L211.2,162.6z"/>
	<polygon fill="#FFFFFF" stroke="#92C3F4" stroke-miterlimit="10" points="211.2,162.6 229.2,162.6 229.2,179.6 229.2,180.6 
		211.2,180.6 	"/>
	<path fill="#FFFFFF" stroke="#92C3F4" stroke-miterlimit="10" d="M229.2,180.6l-18-18L229.2,180.6z"/>
	<polygon fill="#FFFFFF" stroke="#92C3F4" stroke-miterlimit="10" points="193.2,180.6 211.2,180.6 211.2,197.6 211.2,198.6 
		193.2,198.6 	"/>
	<path fill="#FFFFFF" stroke="#92C3F4" stroke-miterlimit="10" d="M211.2,198.6l-18-18L211.2,198.6z"/>
	<polygon fill="#FFFFFF" stroke="#92C3F4" stroke-miterlimit="10" points="211.2,180.6 229.2,180.6 229.2,197.6 229.2,198.6 
		211.2,198.6 	"/>
	<path fill="#FFFFFF" stroke="#92C3F4" stroke-miterlimit="10" d="M229.2,198.6l-18-18L229.2,198.6z"/>
	<polygon fill="#FFFFFF" stroke="#92C3F4" stroke-miterlimit="10" points="211.2,198.6 211.2,216.6 194.1,216.6 193.2,216.6 
		193.2,198.6 	"/>
	<path fill="#FFFFFF" stroke="#92C3F4" stroke-miterlimit="10" d="M193.2,216.6l18-18L193.2,216.6z"/>
	<polygon fill="#FFFFFF" stroke="#92C3F4" stroke-miterlimit="10" points="211.2,198.6 229.2,198.6 229.2,215.6 229.2,216.6 
		211.2,216.6 	"/>
	<path fill="#FFFFFF" stroke="#92C3F4" stroke-miterlimit="10" d="M229.2,216.6l-18-18L229.2,216.6z"/>
	<polygon fill="#FFFFFF" stroke="#92C3F4" stroke-miterlimit="10" points="229.2,54.6 247.2,54.6 247.2,71.6 247.2,72.6 229.2,72.6 
			"/>
	<path fill="#FFFFFF" stroke="#92C3F4" stroke-miterlimit="10" d="M247.2,72.6l-18-18L247.2,72.6z"/>
	<polygon fill="#FFFFFF" stroke="#92C3F4" stroke-miterlimit="10" points="247.2,54.6 265.2,54.6 265.2,71.6 265.2,72.6 247.2,72.6 
			"/>
	<path fill="#FFFFFF" stroke="#92C3F4" stroke-miterlimit="10" d="M265.2,72.6l-18-18L265.2,72.6z"/>
	<polygon fill="#FFFFFF" stroke="#92C3F4" stroke-miterlimit="10" points="247.2,72.6 247.2,90.6 230.1,90.6 229.2,90.6 229.2,72.6 
			"/>
	<path fill="#FFFFFF" stroke="#92C3F4" stroke-miterlimit="10" d="M229.2,90.6l18-18L229.2,90.6z"/>
	<polygon fill="#FFFFFF" stroke="#92C3F4" stroke-miterlimit="10" points="265.2,90.6 247.2,90.6 247.2,73.6 247.2,72.6 265.2,72.6 
			"/>
	<path fill="#FFFFFF" stroke="#92C3F4" stroke-miterlimit="10" d="M247.2,72.6l18,18L247.2,72.6z"/>
	<polygon fill="#FFFFFF" stroke="#92C3F4" stroke-miterlimit="10" points="247.2,90.6 247.2,108.6 230.1,108.6 229.2,108.6 
		229.2,90.6 	"/>
	<path fill="#FFFFFF" stroke="#92C3F4" stroke-miterlimit="10" d="M229.2,108.6l18-18L229.2,108.6z"/>
	<polygon fill="#FFFFFF" stroke="#92C3F4" stroke-miterlimit="10" points="247.2,90.6 265.2,90.6 265.2,107.6 265.2,108.6 
		247.2,108.6 	"/>
	<path fill="#FFFFFF" stroke="#92C3F4" stroke-miterlimit="10" d="M265.2,108.6l-18-18L265.2,108.6z"/>
	<polygon fill="#FFFFFF" stroke="#92C3F4" stroke-miterlimit="10" points="229.2,108.6 247.2,108.6 247.2,125.6 247.2,126.6 
		229.2,126.6 	"/>
	<path fill="#FFFFFF" stroke="#92C3F4" stroke-miterlimit="10" d="M247.2,126.6l-18-18L247.2,126.6z"/>
	<polygon fill="#FFFFFF" stroke="#92C3F4" stroke-miterlimit="10" points="247.2,126.6 247.2,108.6 264.2,108.6 265.2,108.6 
		265.2,126.6 	"/>
	<path fill="#FFFFFF" stroke="#92C3F4" stroke-miterlimit="10" d="M265.2,108.6l-18,18L265.2,108.6z"/>
	<polygon fill="#FFFFFF" stroke="#92C3F4" stroke-miterlimit="10" points="229.2,126.6 247.2,126.6 247.2,143.6 247.2,144.6 
		229.2,144.6 	"/>
	<path fill="#FFFFFF" stroke="#92C3F4" stroke-miterlimit="10" d="M247.2,144.6l-18-18L247.2,144.6z"/>
	<polygon fill="#FFFFFF" stroke="#92C3F4" stroke-miterlimit="10" points="247.2,126.6 265.2,126.6 265.2,143.6 265.2,144.6 
		247.2,144.6 	"/>
	<path fill="#FFFFFF" stroke="#92C3F4" stroke-miterlimit="10" d="M265.2,144.6l-18-18L265.2,144.6z"/>
	<polygon fill="#FFFFFF" stroke="#92C3F4" stroke-miterlimit="10" points="229.2,144.6 247.2,144.6 247.2,161.6 247.2,162.6 
		229.2,162.6 	"/>
	<path fill="#FFFFFF" stroke="#92C3F4" stroke-miterlimit="10" d="M247.2,162.6l-18-18L247.2,162.6z"/>
	<polygon fill="#FFFFFF" stroke="#92C3F4" stroke-miterlimit="10" points="265.2,144.6 265.2,162.6 248.1,162.6 247.2,162.6 
		247.2,144.6 	"/>
	<path fill="#FFFFFF" stroke="#92C3F4" stroke-miterlimit="10" d="M247.2,162.6l18-18L247.2,162.6z"/>
	<polygon fill="#FFFFFF" stroke="#92C3F4" stroke-miterlimit="10" points="229.2,180.6 229.2,162.6 246.2,162.6 247.2,162.6 
		247.2,180.6 	"/>
	<path fill="#FFFFFF" stroke="#92C3F4" stroke-miterlimit="10" d="M247.2,162.6l-18,18L247.2,162.6z"/>
	<polygon fill="#FFFFFF" stroke="#92C3F4" stroke-miterlimit="10" points="247.2,162.6 265.2,162.6 265.2,179.6 265.2,180.6 
		247.2,180.6 	"/>
	<path fill="#FFFFFF" stroke="#92C3F4" stroke-miterlimit="10" d="M265.2,180.6l-18-18L265.2,180.6z"/>
	<polygon fill="#FFFFFF" stroke="#92C3F4" stroke-miterlimit="10" points="229.2,180.6 247.2,180.6 247.2,197.6 247.2,198.6 
		229.2,198.6 	"/>
	<path fill="#FFFFFF" stroke="#92C3F4" stroke-miterlimit="10" d="M247.2,198.6l-18-18L247.2,198.6z"/>
	<polygon fill="#FFFFFF" stroke="#92C3F4" stroke-miterlimit="10" points="247.2,180.6 265.2,180.6 265.2,197.6 265.2,198.6 
		247.2,198.6 	"/>
	<path fill="#FFFFFF" stroke="#92C3F4" stroke-miterlimit="10" d="M265.2,198.6l-18-18L265.2,198.6z"/>
	<polygon fill="#FFFFFF" stroke="#92C3F4" stroke-miterlimit="10" points="247.2,198.6 247.2,216.6 230.1,216.6 229.2,216.6 
		229.2,198.6 	"/>
	<path fill="#FFFFFF" stroke="#92C3F4" stroke-miterlimit="10" d="M229.2,216.6l18-18L229.2,216.6z"/>
	<polygon fill="#FFFFFF" stroke="#92C3F4" stroke-miterlimit="10" points="247.2,198.6 265.2,198.6 265.2,215.6 265.2,216.6 
		247.2,216.6 	"/>
	<path fill="#FFFFFF" stroke="#92C3F4" stroke-miterlimit="10" d="M265.2,216.6l-18-18L265.2,216.6z"/>
</g>
<g id="Layer_18">
	<polygon fill="#2F58F2" points="193.7,108.1 193.7,91 210.7,91 	"/>
	<polygon fill="#1B1464" points="211.7,126.1 211.7,109 228.7,109 	"/>
	<polygon fill="#C1272D" points="211.7,162.1 211.7,145 228.7,145 	"/>
	<polygon fill="#C1272D" points="210.7,73.1 210.7,90 193.7,90 	"/>
	<polygon fill="#480087" points="210.7,91.1 210.7,108 193.7,108 	"/>
	<polygon fill="#2F58F2" points="228.7,109.1 228.7,126 211.7,126 	"/>
	<polygon fill="#2F58F2" points="228.7,145.1 228.7,162 211.7,162 	"/>
	<polygon fill="#2F58F2" points="193.7,216.1 193.7,199 210.7,199 	"/>
	<polygon fill="#C1272D" points="210.7,199.1 210.7,216 193.7,216 	"/>
	<polygon fill="#480087" points="193.7,180.1 193.7,163 210.7,163 	"/>
	<polygon fill="#C1272D" points="210.7,163.1 210.7,180 193.7,180 	"/>
	<polygon fill="#480087" points="211.7,55 228.7,55 228.7,72.1 	"/>
	<polygon fill="#C1272D" points="193.7,55 210.7,55 210.7,72.1 	"/>
	<polygon fill="#2F58F2" points="211.7,73 228.7,73 228.7,90.1 	"/>
	<polygon fill="#C1272D" points="211.7,91 228.7,91 228.7,108.1 	"/>
	<polygon fill="#1B1464" points="193.7,145 210.7,145 210.7,162.1 	"/>
	<polygon fill="#480087" points="193.7,181 210.7,181 210.7,198.1 	"/>
	<polygon fill="#C1272D" points="193.7,109 210.7,109 210.7,126.1 	"/>
	<polygon fill="#2F58F2" points="193.7,127 210.7,127 210.7,144.1 	"/>
	<polygon fill="#1B1464" points="210.7,72 193.7,72 193.7,55.1 	"/>
	<polygon fill="#1B1464" points="228.7,90 211.7,90 211.7,73.1 	"/>
	<polygon fill="#480087" points="228.7,144 211.7,144 211.7,127.1 	"/>
	<polygon fill="#1B1464" points="228.7,180 211.7,180 211.7,163.1 	"/>
	<polygon fill="#C1272D" points="210.7,144 193.7,144 193.7,127.1 	"/>
	<polygon fill="#2F58F2" points="211.7,181 228.7,181 228.7,198.1 	"/>
	<polygon fill="#C1272D" points="228.7,198 211.7,198 211.7,181.1 	"/>
	<polygon fill="#1B1464" points="211.7,199 228.7,199 228.7,216.1 	"/>
	<polygon fill="#2F58F2" points="229.7,108.1 229.7,91 246.7,91 	"/>
	<polygon fill="#1B1464" points="247.7,126.1 247.7,109 264.7,109 	"/>
	<polygon fill="#C1272D" points="247.7,162.1 247.7,145 264.7,145 	"/>
	<polygon fill="#C1272D" points="246.7,73.1 246.7,90 229.7,90 	"/>
	<polygon fill="#480087" points="246.7,91.1 246.7,108 229.7,108 	"/>
	<polygon fill="#2F58F2" points="264.7,109.1 264.7,126 247.7,126 	"/>
	<polygon fill="#2F58F2" points="264.7,145.1 264.7,162 247.7,162 	"/>
	<polygon fill="#2F58F2" points="229.7,216.1 229.7,199 246.7,199 	"/>
	<polygon fill="#C1272D" points="246.7,199.1 246.7,216 229.7,216 	"/>
	<polygon fill="#480087" points="229.7,180.1 229.7,163 246.7,163 	"/>
	<polygon fill="#C1272D" points="246.7,163.1 246.7,180 229.7,180 	"/>
	<polygon fill="#480087" points="247.7,55 264.7,55 264.7,72.1 	"/>
	<polygon fill="#C1272D" points="229.7,55 246.7,55 246.7,72.1 	"/>
	<polygon fill="#2F58F2" points="247.7,73 264.7,73 264.7,90.1 	"/>
	<polygon fill="#C1272D" points="247.7,91 264.7,91 264.7,108.1 	"/>
	<polygon fill="#1B1464" points="229.7,145 246.7,145 246.7,162.1 	"/>
	<polygon fill="#480087" points="229.7,181 246.7,181 246.7,198.1 	"/>
	<polygon fill="#C1272D" points="229.7,109 246.7,109 246.7,126.1 	"/>
	<polygon fill="#2F58F2" points="229.7,127 246.7,127 246.7,144.1 	"/>
	<polygon fill="#1B1464" points="246.7,72 229.7,72 229.7,55.1 	"/>
	<polygon fill="#1B1464" points="264.7,90 247.7,90 247.7,73.1 	"/>
	<polygon fill="#480087" points="264.7,144 247.7,144 247.7,127.1 	"/>
	<polygon fill="#1B1464" points="264.7,180 247.7,180 247.7,163.1 	"/>
	<polygon fill="#C1272D" points="246.7,144 229.7,144 229.7,127.1 	"/>
	<polygon fill="#2F58F2" points="247.7,181 264.7,181 264.7,198.1 	"/>
	<polygon fill="#C1272D" points="264.7,198 247.7,198 247.7,181.1 	"/>
	<polygon fill="#1B1464" points="247.7,199 264.7,199 264.7,216.1 	"/>
</g>
<g id="Layer_8">
	<g>
		<polygon points="536.2,83 525.6,155 547.1,155 536.6,83 		"/>
		<path d="M304.7,76.3c-7.1,0-12,3.9-12,14v76.7c0,10.2,4.9,14,12,14c7.1,0,12-3.9,12-14V90.3C316.7,80.2,311.8,76.3,304.7,76.3z"/>
		<path d="M-0.3,0v253h1944V0H-0.3z M258.7,106h-21V90.3c0-10.2-4.4-14-11.5-14c-7.1,0-11.5,3.9-11.5,14v76.7
			c0,10.2,4.4,13.8,11.5,13.8c7.1,0,11.5-3.7,11.5-13.8V147h21v18.6c0,22.7-11.1,35.7-33,35.7s-33-13-33-35.7V91.8
			c0-22.7,11.1-35.7,33-35.7s33,13,33,35.7V106z M338.7,165.6c0,22.7-12.1,35.7-34,35.7c-21.9,0-34-13-34-35.7V91.8
			c0-22.7,12.1-35.7,34-35.7c21.9,0,34,13,34,35.7V165.6z M423.7,200h-22.9L373.4,97h-0.7v103h-20V58h28.2l22.5,85h0.3V58h20V200z
			 M478.7,200h-22V78h-23V58h69v20h-24V200z M554.1,200l-3.9-26h-27.4l-3.9,26h-20.5l22.7-142h32.7l22.7,142H554.1z M651.7,106h-21
			V90.3c0-10.2-4.4-14-11.5-14c-7.1,0-11.5,3.9-11.5,14v76.7c0,10.2,4.4,13.8,11.5,13.8c7.1,0,11.5-3.7,11.5-13.8V147h21v18.6
			c0,22.7-11.6,35.7-33.5,35.7s-33.5-13-33.5-35.7V91.8c0-22.7,11.6-35.7,33.5-35.7s33.5,13,33.5,35.7V106z M727.7,78h-23v122h-23
			V78h-23V58h69V78z"/>
	</g>
</g>
<g id="Layer_9">
	<g>
		<path fill="none" stroke="#92C3F4" stroke-miterlimit="10" d="M258.9,146.4v19c0,22.8-11.4,35.9-33.4,35.9s-32.4-13-32.4-35.9
			V91.1c0-22.8,10.4-35.4,32.4-35.4s33.4,12.5,33.4,35.4v14.6h-21.2v-16c0-10.2-4.5-14.1-11.6-14.1c-7.1,0-11.6,3.9-11.6,14.1v77.1
			c0,10.2,4.5,13.9,11.6,13.9c7.1,0,11.6-3.7,11.6-13.9v-20.4H258.9z"/>
	</g>
</g>
</svg>
