<?xml version="1.0" encoding="utf-8"?>
<!-- Generator: Adobe Illustrator 18.1.0, SVG Export Plug-In . SVG Version: 6.00 Build 0)  -->
<svg version="1.1" xmlns="http://www.w3.org/2000/svg" xmlns:xlink="http://www.w3.org/1999/xlink" x="0px" y="0px"
	 viewBox="0 0 1548 828" enable-background="new 0 0 1548 828" xml:space="preserve">
<g id="Layer_1">
	<rect x="-19.9" y="-9.3" fill="#FFFFFF" width="1586.2" height="862.3"/>
</g>
<g id="Layer_2">
	<path fill="none" stroke="#92C3F4" stroke-miterlimit="10" d="M-29-9.7"/>
	<path fill="none" stroke="#92C3F4" stroke-miterlimit="10" d="M1586-9.7"/>
	<line fill="none" stroke="#92C3F4" stroke-miterlimit="10" x1="0" y1="-9.5" x2="0" y2="838.5"/>
	<line fill="none" stroke="#92C3F4" stroke-miterlimit="10" x1="18" y1="-9.5" x2="18" y2="838.5"/>
	<line fill="none" stroke="#92C3F4" stroke-miterlimit="10" x1="36" y1="-9.5" x2="36" y2="838.5"/>
	<line fill="none" stroke="#92C3F4" stroke-miterlimit="10" x1="54" y1="-9.5" x2="54" y2="838.5"/>
	<line fill="none" stroke="#92C3F4" stroke-miterlimit="10" x1="72" y1="-9.5" x2="72" y2="838.5"/>
	<line fill="none" stroke="#92C3F4" stroke-miterlimit="10" x1="90" y1="-9.5" x2="90" y2="838.5"/>
	<line fill="none" stroke="#92C3F4" stroke-miterlimit="10" x1="108" y1="-9.5" x2="108" y2="838.5"/>
	<line fill="none" stroke="#92C3F4" stroke-miterlimit="10" x1="126" y1="-9.5" x2="126" y2="838.5"/>
	<line fill="none" stroke="#92C3F4" stroke-miterlimit="10" x1="144" y1="-9.5" x2="144" y2="838.5"/>
	<line fill="none" stroke="#92C3F4" stroke-miterlimit="10" x1="162" y1="-9.5" x2="162" y2="838.5"/>
	<line fill="none" stroke="#92C3F4" stroke-miterlimit="10" x1="180" y1="-9.5" x2="180" y2="838.5"/>
	<line fill="none" stroke="#92C3F4" stroke-miterlimit="10" x1="198" y1="-9.5" x2="198" y2="838.5"/>
	<line fill="none" stroke="#92C3F4" stroke-miterlimit="10" x1="216" y1="-9.5" x2="216" y2="838.5"/>
	<line fill="none" stroke="#92C3F4" stroke-miterlimit="10" x1="234" y1="-9.5" x2="234" y2="838.5"/>
	<line fill="none" stroke="#92C3F4" stroke-miterlimit="10" x1="252" y1="-9.5" x2="252" y2="838.5"/>
	<line fill="none" stroke="#92C3F4" stroke-miterlimit="10" x1="270" y1="-9.5" x2="270" y2="838.5"/>
	<line fill="none" stroke="#92C3F4" stroke-miterlimit="10" x1="288" y1="-9.5" x2="288" y2="838.5"/>
	<line fill="none" stroke="#92C3F4" stroke-miterlimit="10" x1="306" y1="-9.5" x2="306" y2="838.5"/>
	<line fill="none" stroke="#92C3F4" stroke-miterlimit="10" x1="324" y1="-9.5" x2="324" y2="838.5"/>
	<line fill="none" stroke="#92C3F4" stroke-miterlimit="10" x1="342" y1="-9.5" x2="342" y2="838.5"/>
	<line fill="none" stroke="#92C3F4" stroke-miterlimit="10" x1="360" y1="-9.5" x2="360" y2="838.5"/>
	<line fill="none" stroke="#92C3F4" stroke-miterlimit="10" x1="378" y1="-9.5" x2="378" y2="838.5"/>
	<line fill="none" stroke="#92C3F4" stroke-miterlimit="10" x1="396" y1="-9.5" x2="396" y2="838.5"/>
	<line fill="none" stroke="#92C3F4" stroke-miterlimit="10" x1="414" y1="-9.5" x2="414" y2="838.5"/>
	<line fill="none" stroke="#92C3F4" stroke-miterlimit="10" x1="432" y1="-9.5" x2="432" y2="838.5"/>
	<line fill="none" stroke="#92C3F4" stroke-miterlimit="10" x1="450" y1="-9.5" x2="450" y2="838.5"/>
	<line fill="none" stroke="#92C3F4" stroke-miterlimit="10" x1="468" y1="-9.5" x2="468" y2="838.5"/>
	<line fill="none" stroke="#92C3F4" stroke-miterlimit="10" x1="486" y1="-9.5" x2="486" y2="838.5"/>
	<line fill="none" stroke="#92C3F4" stroke-miterlimit="10" x1="504" y1="-9.5" x2="504" y2="838.5"/>
	<line fill="none" stroke="#92C3F4" stroke-miterlimit="10" x1="522" y1="-9.5" x2="522" y2="838.5"/>
	<line fill="none" stroke="#92C3F4" stroke-miterlimit="10" x1="540" y1="-9.5" x2="540" y2="838.5"/>
	<line fill="none" stroke="#92C3F4" stroke-miterlimit="10" x1="558" y1="-9.5" x2="558" y2="838.5"/>
	<line fill="none" stroke="#92C3F4" stroke-miterlimit="10" x1="576" y1="-9.5" x2="576" y2="838.5"/>
	<line fill="none" stroke="#92C3F4" stroke-miterlimit="10" x1="594" y1="-9.5" x2="594" y2="838.5"/>
	<line fill="none" stroke="#92C3F4" stroke-miterlimit="10" x1="612" y1="-9.5" x2="612" y2="838.5"/>
	<line fill="none" stroke="#92C3F4" stroke-miterlimit="10" x1="630" y1="-9.5" x2="630" y2="838.5"/>
	<line fill="none" stroke="#92C3F4" stroke-miterlimit="10" x1="648" y1="-9.5" x2="648" y2="838.5"/>
	<line fill="none" stroke="#92C3F4" stroke-miterlimit="10" x1="666" y1="-9.5" x2="666" y2="838.5"/>
	<line fill="none" stroke="#92C3F4" stroke-miterlimit="10" x1="684" y1="-9.5" x2="684" y2="838.5"/>
	<line fill="none" stroke="#92C3F4" stroke-miterlimit="10" x1="702" y1="-9.5" x2="702" y2="838.5"/>
	<line fill="none" stroke="#92C3F4" stroke-miterlimit="10" x1="720" y1="-9.5" x2="720" y2="838.5"/>
	<line fill="none" stroke="#92C3F4" stroke-miterlimit="10" x1="738" y1="-9.5" x2="738" y2="838.5"/>
	<line fill="none" stroke="#92C3F4" stroke-miterlimit="10" x1="756" y1="-9.5" x2="756" y2="838.5"/>
	<line fill="none" stroke="#92C3F4" stroke-miterlimit="10" x1="774" y1="-9.5" x2="774" y2="838.5"/>
	<line fill="none" stroke="#92C3F4" stroke-miterlimit="10" x1="792" y1="-9.5" x2="792" y2="838.5"/>
	<line fill="none" stroke="#92C3F4" stroke-miterlimit="10" x1="810" y1="-9.5" x2="810" y2="838.5"/>
	<line fill="none" stroke="#92C3F4" stroke-miterlimit="10" x1="828" y1="-9.5" x2="828" y2="838.5"/>
	<line fill="none" stroke="#92C3F4" stroke-miterlimit="10" x1="846" y1="-9.5" x2="846" y2="838.5"/>
	<line fill="none" stroke="#92C3F4" stroke-miterlimit="10" x1="864" y1="-9.5" x2="864" y2="838.5"/>
	<line fill="none" stroke="#92C3F4" stroke-miterlimit="10" x1="882" y1="-9.5" x2="882" y2="838.5"/>
	<line fill="none" stroke="#92C3F4" stroke-miterlimit="10" x1="900" y1="-9.5" x2="900" y2="838.5"/>
	<line fill="none" stroke="#92C3F4" stroke-miterlimit="10" x1="918" y1="-9.5" x2="918" y2="838.5"/>
	<line fill="none" stroke="#92C3F4" stroke-miterlimit="10" x1="936" y1="-9.5" x2="936" y2="838.5"/>
	<line fill="none" stroke="#92C3F4" stroke-miterlimit="10" x1="954" y1="-9.5" x2="954" y2="838.5"/>
	<line fill="none" stroke="#92C3F4" stroke-miterlimit="10" x1="972" y1="-9.5" x2="972" y2="838.5"/>
	<line fill="none" stroke="#92C3F4" stroke-miterlimit="10" x1="990" y1="-9.5" x2="990" y2="838.5"/>
	<line fill="none" stroke="#92C3F4" stroke-miterlimit="10" x1="1008" y1="-9.5" x2="1008" y2="838.5"/>
	<line fill="none" stroke="#92C3F4" stroke-miterlimit="10" x1="1026" y1="-9.5" x2="1026" y2="838.5"/>
	<line fill="none" stroke="#92C3F4" stroke-miterlimit="10" x1="1044" y1="-9.5" x2="1044" y2="838.5"/>
	<line fill="none" stroke="#92C3F4" stroke-miterlimit="10" x1="1062" y1="-9.5" x2="1062" y2="838.5"/>
	<line fill="none" stroke="#92C3F4" stroke-miterlimit="10" x1="1080" y1="-9.5" x2="1080" y2="838.5"/>
	<line fill="none" stroke="#92C3F4" stroke-miterlimit="10" x1="1098" y1="-9.5" x2="1098" y2="838.5"/>
	<line fill="none" stroke="#92C3F4" stroke-miterlimit="10" x1="1116" y1="-9.5" x2="1116" y2="838.5"/>
	<line fill="none" stroke="#92C3F4" stroke-miterlimit="10" x1="1134" y1="-9.5" x2="1134" y2="838.5"/>
	<line fill="none" stroke="#92C3F4" stroke-miterlimit="10" x1="1152" y1="-9.5" x2="1152" y2="838.5"/>
	<line fill="none" stroke="#92C3F4" stroke-miterlimit="10" x1="1170" y1="-9.5" x2="1170" y2="838.5"/>
	<line fill="none" stroke="#92C3F4" stroke-miterlimit="10" x1="1188" y1="-9.5" x2="1188" y2="838.5"/>
	<line fill="none" stroke="#92C3F4" stroke-miterlimit="10" x1="1206" y1="-9.5" x2="1206" y2="838.5"/>
	<line fill="none" stroke="#92C3F4" stroke-miterlimit="10" x1="1224" y1="-9.5" x2="1224" y2="838.5"/>
	<line fill="none" stroke="#92C3F4" stroke-miterlimit="10" x1="1242" y1="-9.5" x2="1242" y2="838.5"/>
	<line fill="none" stroke="#92C3F4" stroke-miterlimit="10" x1="1260" y1="-9.5" x2="1260" y2="838.5"/>
	<line fill="none" stroke="#92C3F4" stroke-miterlimit="10" x1="1278" y1="-9.5" x2="1278" y2="838.5"/>
	<line fill="none" stroke="#92C3F4" stroke-miterlimit="10" x1="1296" y1="-9.5" x2="1296" y2="838.5"/>
	<line fill="none" stroke="#92C3F4" stroke-miterlimit="10" x1="1314" y1="-9.5" x2="1314" y2="838.5"/>
	<line fill="none" stroke="#92C3F4" stroke-miterlimit="10" x1="1332" y1="-9.5" x2="1332" y2="838.5"/>
	<line fill="none" stroke="#92C3F4" stroke-miterlimit="10" x1="1350" y1="-9.5" x2="1350" y2="838.5"/>
	<line fill="none" stroke="#92C3F4" stroke-miterlimit="10" x1="1368" y1="-9.5" x2="1368" y2="838.5"/>
	<line fill="none" stroke="#92C3F4" stroke-miterlimit="10" x1="1386" y1="-9.5" x2="1386" y2="838.5"/>
	<line fill="none" stroke="#92C3F4" stroke-miterlimit="10" x1="1404" y1="-9.5" x2="1404" y2="838.5"/>
	<line fill="none" stroke="#92C3F4" stroke-miterlimit="10" x1="1422" y1="-9.5" x2="1422" y2="838.5"/>
	<line fill="none" stroke="#92C3F4" stroke-miterlimit="10" x1="1440" y1="-9.5" x2="1440" y2="838.5"/>
	<line fill="none" stroke="#92C3F4" stroke-miterlimit="10" x1="1458" y1="-9.5" x2="1458" y2="838.5"/>
	<line fill="none" stroke="#92C3F4" stroke-miterlimit="10" x1="1476" y1="-9.5" x2="1476" y2="838.5"/>
	<line fill="none" stroke="#92C3F4" stroke-miterlimit="10" x1="1494" y1="-9.5" x2="1494" y2="838.5"/>
	<line fill="none" stroke="#92C3F4" stroke-miterlimit="10" x1="1512" y1="-9.5" x2="1512" y2="838.5"/>
	<line fill="none" stroke="#92C3F4" stroke-miterlimit="10" x1="1530" y1="-9.5" x2="1530" y2="838.5"/>
	<line fill="none" stroke="#92C3F4" stroke-miterlimit="10" x1="1548" y1="-9.5" x2="1548" y2="838.5"/>
</g>
<g id="Layer_3">
	<line fill="none" stroke="#92C3F4" stroke-miterlimit="10" x1="-17.5" y1="306" x2="1565.5" y2="306"/>
	<line fill="none" stroke="#92C3F4" stroke-miterlimit="10" x1="-17.5" y1="324" x2="1565.5" y2="324"/>
	<line fill="none" stroke="#92C3F4" stroke-miterlimit="10" x1="-17.5" y1="342" x2="1565.5" y2="342"/>
	<line fill="none" stroke="#92C3F4" stroke-miterlimit="10" x1="-17.5" y1="360" x2="1565.5" y2="360"/>
	<line fill="none" stroke="#92C3F4" stroke-miterlimit="10" x1="-17.5" y1="378" x2="1565.5" y2="378"/>
	<line fill="none" stroke="#92C3F4" stroke-miterlimit="10" x1="-17.5" y1="288" x2="1565.5" y2="288"/>
	<line fill="none" stroke="#92C3F4" stroke-miterlimit="10" x1="-17.5" y1="396" x2="1565.5" y2="396"/>
	<line fill="none" stroke="#92C3F4" stroke-miterlimit="10" x1="-17.5" y1="414" x2="1565.5" y2="414"/>
	<line fill="none" stroke="#92C3F4" stroke-miterlimit="10" x1="-17.5" y1="432" x2="1565.5" y2="432"/>
	<line fill="none" stroke="#92C3F4" stroke-miterlimit="10" x1="-17.5" y1="450" x2="1565.5" y2="450"/>
	<line fill="none" stroke="#92C3F4" stroke-miterlimit="10" x1="-17.5" y1="468" x2="1565.5" y2="468"/>
	<line fill="none" stroke="#92C3F4" stroke-miterlimit="10" x1="-17.5" y1="486" x2="1565.5" y2="486"/>
	<line fill="none" stroke="#92C3F4" stroke-miterlimit="10" x1="-17.5" y1="504" x2="1565.5" y2="504"/>
	<line fill="none" stroke="#92C3F4" stroke-miterlimit="10" x1="-17.5" y1="522" x2="1565.5" y2="522"/>
	<line fill="none" stroke="#92C3F4" stroke-miterlimit="10" x1="-17.5" y1="540" x2="1565.5" y2="540"/>
	<line fill="none" stroke="#92C3F4" stroke-miterlimit="10" x1="-17.5" y1="558" x2="1565.5" y2="558"/>
	<line fill="none" stroke="#92C3F4" stroke-miterlimit="10" x1="-17.5" y1="576" x2="1565.5" y2="576"/>
	<line fill="none" stroke="#92C3F4" stroke-miterlimit="10" x1="-17.5" y1="594" x2="1565.5" y2="594"/>
	<line fill="none" stroke="#92C3F4" stroke-miterlimit="10" x1="-17.5" y1="612" x2="1565.5" y2="612"/>
	<line fill="none" stroke="#92C3F4" stroke-miterlimit="10" x1="-17.5" y1="630" x2="1565.5" y2="630"/>
	<line fill="none" stroke="#92C3F4" stroke-miterlimit="10" x1="-17.5" y1="648" x2="1565.5" y2="648"/>
	<line fill="none" stroke="#92C3F4" stroke-miterlimit="10" x1="-17.5" y1="666" x2="1565.5" y2="666"/>
	<line fill="none" stroke="#92C3F4" stroke-miterlimit="10" x1="-17.5" y1="684" x2="1565.5" y2="684"/>
	<line fill="none" stroke="#92C3F4" stroke-miterlimit="10" x1="-17.5" y1="702" x2="1565.5" y2="702"/>
	<line fill="none" stroke="#92C3F4" stroke-miterlimit="10" x1="-17.5" y1="720" x2="1565.5" y2="720"/>
	<line fill="none" stroke="#92C3F4" stroke-miterlimit="10" x1="-17.5" y1="738" x2="1565.5" y2="738"/>
	<line fill="none" stroke="#92C3F4" stroke-miterlimit="10" x1="-17.5" y1="756" x2="1565.5" y2="756"/>
	<line fill="none" stroke="#92C3F4" stroke-miterlimit="10" x1="-17.5" y1="774" x2="1565.5" y2="774"/>
	<line fill="none" stroke="#92C3F4" stroke-miterlimit="10" x1="-17.5" y1="792" x2="1565.5" y2="792"/>
	<line fill="none" stroke="#92C3F4" stroke-miterlimit="10" x1="-17.5" y1="810" x2="1565.5" y2="810"/>
	<line fill="none" stroke="#92C3F4" stroke-miterlimit="10" x1="-17.5" y1="828" x2="1565.5" y2="828"/>
	<line fill="none" stroke="#92C3F4" stroke-miterlimit="10" x1="-19.5" y1="0" x2="1563.5" y2="0"/>
	<line fill="none" stroke="#92C3F4" stroke-miterlimit="10" x1="-19.5" y1="18" x2="1563.5" y2="18"/>
	<line fill="none" stroke="#92C3F4" stroke-miterlimit="10" x1="-19.5" y1="36" x2="1563.5" y2="36"/>
	<line fill="none" stroke="#92C3F4" stroke-miterlimit="10" x1="-19.5" y1="54" x2="1563.5" y2="54"/>
	<line fill="none" stroke="#92C3F4" stroke-miterlimit="10" x1="-19.5" y1="72" x2="1563.5" y2="72"/>
	<line fill="none" stroke="#92C3F4" stroke-miterlimit="10" x1="-19.5" y1="90" x2="1563.5" y2="90"/>
	<line fill="none" stroke="#92C3F4" stroke-miterlimit="10" x1="-19.5" y1="108" x2="1563.5" y2="108"/>
	<line fill="none" stroke="#92C3F4" stroke-miterlimit="10" x1="-19.5" y1="126" x2="1563.5" y2="126"/>
	<line fill="none" stroke="#92C3F4" stroke-miterlimit="10" x1="-19.5" y1="144" x2="1563.5" y2="144"/>
	<line fill="none" stroke="#92C3F4" stroke-miterlimit="10" x1="-19.5" y1="162" x2="1563.5" y2="162"/>
	<line fill="none" stroke="#92C3F4" stroke-miterlimit="10" x1="-19.5" y1="180" x2="1563.5" y2="180"/>
	<line fill="none" stroke="#92C3F4" stroke-miterlimit="10" x1="-19.5" y1="198" x2="1563.5" y2="198"/>
	<line fill="none" stroke="#92C3F4" stroke-miterlimit="10" x1="-19.5" y1="216" x2="1563.5" y2="216"/>
	<line fill="none" stroke="#92C3F4" stroke-miterlimit="10" x1="-19.5" y1="234" x2="1563.5" y2="234"/>
	<line fill="none" stroke="#92C3F4" stroke-miterlimit="10" x1="-19.5" y1="252" x2="1563.5" y2="252"/>
	<line fill="none" stroke="#92C3F4" stroke-miterlimit="10" x1="-19.5" y1="270" x2="1563.5" y2="270"/>
</g>
</svg>
