<?xml version="1.0" encoding="utf-8"?>
<!-- Generator: Adobe Illustrator 18.1.0, SVG Export Plug-In . SVG Version: 6.00 Build 0)  -->
<svg version="1.1" xmlns="http://www.w3.org/2000/svg" xmlns:xlink="http://www.w3.org/1999/xlink" x="0px" y="0px"
	 viewBox="0 0 1581.2 828" enable-background="new 0 0 1581.2 828" xml:space="preserve">
<g id="Layer_1">
	<rect x="-2.5" y="-9.3" fill="#FFFFFF" width="1586.2" height="862.3"/>
</g>
<g id="Layer_2">
	<path fill="none" stroke="#92C3F4" stroke-miterlimit="10" d="M-11.5-9.7"/>
	<path fill="none" stroke="#92C3F4" stroke-miterlimit="10" d="M1603.5-9.7"/>
	<line fill="none" stroke="#92C3F4" stroke-miterlimit="10" x1="17.5" y1="-9.5" x2="17.5" y2="838.5"/>
	<line fill="none" stroke="#92C3F4" stroke-miterlimit="10" x1="35.5" y1="-9.5" x2="35.5" y2="838.5"/>
	<line fill="none" stroke="#92C3F4" stroke-miterlimit="10" x1="53.5" y1="-9.5" x2="53.5" y2="838.5"/>
	<line fill="none" stroke="#92C3F4" stroke-miterlimit="10" x1="71.5" y1="-9.5" x2="71.5" y2="838.5"/>
	<line fill="none" stroke="#92C3F4" stroke-miterlimit="10" x1="89.5" y1="-9.5" x2="89.5" y2="838.5"/>
	<line fill="none" stroke="#92C3F4" stroke-miterlimit="10" x1="107.5" y1="-9.5" x2="107.5" y2="838.5"/>
	<line fill="none" stroke="#92C3F4" stroke-miterlimit="10" x1="125.5" y1="-9.5" x2="125.5" y2="838.5"/>
	<line fill="none" stroke="#92C3F4" stroke-miterlimit="10" x1="143.5" y1="-9.5" x2="143.5" y2="838.5"/>
	<line fill="none" stroke="#92C3F4" stroke-miterlimit="10" x1="161.5" y1="-9.5" x2="161.5" y2="838.5"/>
	<line fill="none" stroke="#92C3F4" stroke-miterlimit="10" x1="179.5" y1="-9.5" x2="179.5" y2="838.5"/>
	<line fill="none" stroke="#92C3F4" stroke-miterlimit="10" x1="197.5" y1="-9.5" x2="197.5" y2="838.5"/>
	<line fill="none" stroke="#92C3F4" stroke-miterlimit="10" x1="215.5" y1="-9.5" x2="215.5" y2="838.5"/>
	<line fill="none" stroke="#92C3F4" stroke-miterlimit="10" x1="233.5" y1="-9.5" x2="233.5" y2="838.5"/>
	<line fill="none" stroke="#92C3F4" stroke-miterlimit="10" x1="251.5" y1="-9.5" x2="251.5" y2="838.5"/>
	<line fill="none" stroke="#92C3F4" stroke-miterlimit="10" x1="269.5" y1="-9.5" x2="269.5" y2="838.5"/>
	<line fill="none" stroke="#92C3F4" stroke-miterlimit="10" x1="287.5" y1="-9.5" x2="287.5" y2="838.5"/>
	<line fill="none" stroke="#92C3F4" stroke-miterlimit="10" x1="305.5" y1="-9.5" x2="305.5" y2="838.5"/>
	<line fill="none" stroke="#92C3F4" stroke-miterlimit="10" x1="323.5" y1="-9.5" x2="323.5" y2="838.5"/>
	<line fill="none" stroke="#92C3F4" stroke-miterlimit="10" x1="341.5" y1="-9.5" x2="341.5" y2="838.5"/>
	<line fill="none" stroke="#92C3F4" stroke-miterlimit="10" x1="359.5" y1="-9.5" x2="359.5" y2="838.5"/>
	<line fill="none" stroke="#92C3F4" stroke-miterlimit="10" x1="377.5" y1="-9.5" x2="377.5" y2="838.5"/>
	<line fill="none" stroke="#92C3F4" stroke-miterlimit="10" x1="395.5" y1="-9.5" x2="395.5" y2="838.5"/>
	<line fill="none" stroke="#92C3F4" stroke-miterlimit="10" x1="413.5" y1="-9.5" x2="413.5" y2="838.5"/>
	<line fill="none" stroke="#92C3F4" stroke-miterlimit="10" x1="431.5" y1="-9.5" x2="431.5" y2="838.5"/>
	<line fill="none" stroke="#92C3F4" stroke-miterlimit="10" x1="449.5" y1="-9.5" x2="449.5" y2="838.5"/>
	<line fill="none" stroke="#92C3F4" stroke-miterlimit="10" x1="467.5" y1="-9.5" x2="467.5" y2="838.5"/>
	<line fill="none" stroke="#92C3F4" stroke-miterlimit="10" x1="485.5" y1="-9.5" x2="485.5" y2="838.5"/>
	<line fill="none" stroke="#92C3F4" stroke-miterlimit="10" x1="503.5" y1="-9.5" x2="503.5" y2="838.5"/>
	<line fill="none" stroke="#92C3F4" stroke-miterlimit="10" x1="521.5" y1="-9.5" x2="521.5" y2="838.5"/>
	<line fill="none" stroke="#92C3F4" stroke-miterlimit="10" x1="539.5" y1="-9.5" x2="539.5" y2="838.5"/>
	<line fill="none" stroke="#92C3F4" stroke-miterlimit="10" x1="557.5" y1="-9.5" x2="557.5" y2="838.5"/>
	<line fill="none" stroke="#92C3F4" stroke-miterlimit="10" x1="575.5" y1="-9.5" x2="575.5" y2="838.5"/>
	<line fill="none" stroke="#92C3F4" stroke-miterlimit="10" x1="593.5" y1="-9.5" x2="593.5" y2="838.5"/>
	<line fill="none" stroke="#92C3F4" stroke-miterlimit="10" x1="611.5" y1="-9.5" x2="611.5" y2="838.5"/>
	<line fill="none" stroke="#92C3F4" stroke-miterlimit="10" x1="629.5" y1="-9.5" x2="629.5" y2="838.5"/>
	<line fill="none" stroke="#92C3F4" stroke-miterlimit="10" x1="647.5" y1="-9.5" x2="647.5" y2="838.5"/>
	<line fill="none" stroke="#92C3F4" stroke-miterlimit="10" x1="665.5" y1="-9.5" x2="665.5" y2="838.5"/>
	<line fill="none" stroke="#92C3F4" stroke-miterlimit="10" x1="683.5" y1="-9.5" x2="683.5" y2="838.5"/>
	<line fill="none" stroke="#92C3F4" stroke-miterlimit="10" x1="701.5" y1="-9.5" x2="701.5" y2="838.5"/>
	<line fill="none" stroke="#92C3F4" stroke-miterlimit="10" x1="719.5" y1="-9.5" x2="719.5" y2="838.5"/>
	<line fill="none" stroke="#92C3F4" stroke-miterlimit="10" x1="737.5" y1="-9.5" x2="737.5" y2="838.5"/>
	<line fill="none" stroke="#92C3F4" stroke-miterlimit="10" x1="755.5" y1="-9.5" x2="755.5" y2="838.5"/>
	<line fill="none" stroke="#92C3F4" stroke-miterlimit="10" x1="773.5" y1="-9.5" x2="773.5" y2="838.5"/>
	<line fill="none" stroke="#92C3F4" stroke-miterlimit="10" x1="791.5" y1="-9.5" x2="791.5" y2="838.5"/>
	<line fill="none" stroke="#92C3F4" stroke-miterlimit="10" x1="809.5" y1="-9.5" x2="809.5" y2="838.5"/>
	<line fill="none" stroke="#92C3F4" stroke-miterlimit="10" x1="827.5" y1="-9.5" x2="827.5" y2="838.5"/>
	<line fill="none" stroke="#92C3F4" stroke-miterlimit="10" x1="845.5" y1="-9.5" x2="845.5" y2="838.5"/>
	<line fill="none" stroke="#92C3F4" stroke-miterlimit="10" x1="863.5" y1="-9.5" x2="863.5" y2="838.5"/>
	<line fill="none" stroke="#92C3F4" stroke-miterlimit="10" x1="881.5" y1="-9.5" x2="881.5" y2="838.5"/>
	<line fill="none" stroke="#92C3F4" stroke-miterlimit="10" x1="899.5" y1="-9.5" x2="899.5" y2="838.5"/>
	<line fill="none" stroke="#92C3F4" stroke-miterlimit="10" x1="917.5" y1="-9.5" x2="917.5" y2="838.5"/>
	<line fill="none" stroke="#92C3F4" stroke-miterlimit="10" x1="935.5" y1="-9.5" x2="935.5" y2="838.5"/>
	<line fill="none" stroke="#92C3F4" stroke-miterlimit="10" x1="953.5" y1="-9.5" x2="953.5" y2="838.5"/>
	<line fill="none" stroke="#92C3F4" stroke-miterlimit="10" x1="971.5" y1="-9.5" x2="971.5" y2="838.5"/>
	<line fill="none" stroke="#92C3F4" stroke-miterlimit="10" x1="989.5" y1="-9.5" x2="989.5" y2="838.5"/>
	<line fill="none" stroke="#92C3F4" stroke-miterlimit="10" x1="1007.5" y1="-9.5" x2="1007.5" y2="838.5"/>
	<line fill="none" stroke="#92C3F4" stroke-miterlimit="10" x1="1025.5" y1="-9.5" x2="1025.5" y2="838.5"/>
	<line fill="none" stroke="#92C3F4" stroke-miterlimit="10" x1="1043.5" y1="-9.5" x2="1043.5" y2="838.5"/>
	<line fill="none" stroke="#92C3F4" stroke-miterlimit="10" x1="1061.5" y1="-9.5" x2="1061.5" y2="838.5"/>
	<line fill="none" stroke="#92C3F4" stroke-miterlimit="10" x1="1079.5" y1="-9.5" x2="1079.5" y2="838.5"/>
	<line fill="none" stroke="#92C3F4" stroke-miterlimit="10" x1="1097.5" y1="-9.5" x2="1097.5" y2="838.5"/>
	<line fill="none" stroke="#92C3F4" stroke-miterlimit="10" x1="1115.5" y1="-9.5" x2="1115.5" y2="838.5"/>
	<line fill="none" stroke="#92C3F4" stroke-miterlimit="10" x1="1133.5" y1="-9.5" x2="1133.5" y2="838.5"/>
	<line fill="none" stroke="#92C3F4" stroke-miterlimit="10" x1="1151.5" y1="-9.5" x2="1151.5" y2="838.5"/>
	<line fill="none" stroke="#92C3F4" stroke-miterlimit="10" x1="1169.5" y1="-9.5" x2="1169.5" y2="838.5"/>
	<line fill="none" stroke="#92C3F4" stroke-miterlimit="10" x1="1187.5" y1="-9.5" x2="1187.5" y2="838.5"/>
	<line fill="none" stroke="#92C3F4" stroke-miterlimit="10" x1="1205.5" y1="-9.5" x2="1205.5" y2="838.5"/>
	<line fill="none" stroke="#92C3F4" stroke-miterlimit="10" x1="1223.5" y1="-9.5" x2="1223.5" y2="838.5"/>
	<line fill="none" stroke="#92C3F4" stroke-miterlimit="10" x1="1241.5" y1="-9.5" x2="1241.5" y2="838.5"/>
	<line fill="none" stroke="#92C3F4" stroke-miterlimit="10" x1="1259.5" y1="-9.5" x2="1259.5" y2="838.5"/>
	<line fill="none" stroke="#92C3F4" stroke-miterlimit="10" x1="1277.5" y1="-9.5" x2="1277.5" y2="838.5"/>
	<line fill="none" stroke="#92C3F4" stroke-miterlimit="10" x1="1295.5" y1="-9.5" x2="1295.5" y2="838.5"/>
	<line fill="none" stroke="#92C3F4" stroke-miterlimit="10" x1="1313.5" y1="-9.5" x2="1313.5" y2="838.5"/>
	<line fill="none" stroke="#92C3F4" stroke-miterlimit="10" x1="1331.5" y1="-9.5" x2="1331.5" y2="838.5"/>
	<line fill="none" stroke="#92C3F4" stroke-miterlimit="10" x1="1349.5" y1="-9.5" x2="1349.5" y2="838.5"/>
	<line fill="none" stroke="#92C3F4" stroke-miterlimit="10" x1="1367.5" y1="-9.5" x2="1367.5" y2="838.5"/>
	<line fill="none" stroke="#92C3F4" stroke-miterlimit="10" x1="1385.5" y1="-9.5" x2="1385.5" y2="838.5"/>
	<line fill="none" stroke="#92C3F4" stroke-miterlimit="10" x1="1403.5" y1="-9.5" x2="1403.5" y2="838.5"/>
	<line fill="none" stroke="#92C3F4" stroke-miterlimit="10" x1="1421.5" y1="-9.5" x2="1421.5" y2="838.5"/>
	<line fill="none" stroke="#92C3F4" stroke-miterlimit="10" x1="1439.5" y1="-9.5" x2="1439.5" y2="838.5"/>
	<line fill="none" stroke="#92C3F4" stroke-miterlimit="10" x1="1457.5" y1="-9.5" x2="1457.5" y2="838.5"/>
	<line fill="none" stroke="#92C3F4" stroke-miterlimit="10" x1="1475.5" y1="-9.5" x2="1475.5" y2="838.5"/>
	<line fill="none" stroke="#92C3F4" stroke-miterlimit="10" x1="1493.5" y1="-9.5" x2="1493.5" y2="838.5"/>
	<line fill="none" stroke="#92C3F4" stroke-miterlimit="10" x1="1511.5" y1="-9.5" x2="1511.5" y2="838.5"/>
	<line fill="none" stroke="#92C3F4" stroke-miterlimit="10" x1="1529.5" y1="-9.5" x2="1529.5" y2="838.5"/>
	<line fill="none" stroke="#92C3F4" stroke-miterlimit="10" x1="1547.5" y1="-9.5" x2="1547.5" y2="838.5"/>
	<line fill="none" stroke="#92C3F4" stroke-miterlimit="10" x1="1565.5" y1="-9.5" x2="1565.5" y2="838.5"/>
</g>
<g id="Layer_3">
	<line fill="none" stroke="#92C3F4" stroke-miterlimit="10" x1="0" y1="306" x2="1583" y2="306"/>
	<line fill="none" stroke="#92C3F4" stroke-miterlimit="10" x1="0" y1="324" x2="1583" y2="324"/>
	<line fill="none" stroke="#92C3F4" stroke-miterlimit="10" x1="0" y1="342" x2="1583" y2="342"/>
	<line fill="none" stroke="#92C3F4" stroke-miterlimit="10" x1="0" y1="360" x2="1583" y2="360"/>
	<line fill="none" stroke="#92C3F4" stroke-miterlimit="10" x1="0" y1="378" x2="1583" y2="378"/>
	<line fill="none" stroke="#92C3F4" stroke-miterlimit="10" x1="0" y1="288" x2="1583" y2="288"/>
	<line fill="none" stroke="#92C3F4" stroke-miterlimit="10" x1="0" y1="396" x2="1583" y2="396"/>
	<line fill="none" stroke="#92C3F4" stroke-miterlimit="10" x1="0" y1="414" x2="1583" y2="414"/>
	<line fill="none" stroke="#92C3F4" stroke-miterlimit="10" x1="0" y1="432" x2="1583" y2="432"/>
	<line fill="none" stroke="#92C3F4" stroke-miterlimit="10" x1="0" y1="450" x2="1583" y2="450"/>
	<line fill="none" stroke="#92C3F4" stroke-miterlimit="10" x1="0" y1="468" x2="1583" y2="468"/>
	<line fill="none" stroke="#92C3F4" stroke-miterlimit="10" x1="0" y1="486" x2="1583" y2="486"/>
	<line fill="none" stroke="#92C3F4" stroke-miterlimit="10" x1="0" y1="504" x2="1583" y2="504"/>
	<line fill="none" stroke="#92C3F4" stroke-miterlimit="10" x1="0" y1="522" x2="1583" y2="522"/>
	<line fill="none" stroke="#92C3F4" stroke-miterlimit="10" x1="0" y1="540" x2="1583" y2="540"/>
	<line fill="none" stroke="#92C3F4" stroke-miterlimit="10" x1="0" y1="558" x2="1583" y2="558"/>
	<line fill="none" stroke="#92C3F4" stroke-miterlimit="10" x1="0" y1="576" x2="1583" y2="576"/>
	<line fill="none" stroke="#92C3F4" stroke-miterlimit="10" x1="0" y1="594" x2="1583" y2="594"/>
	<line fill="none" stroke="#92C3F4" stroke-miterlimit="10" x1="0" y1="612" x2="1583" y2="612"/>
	<line fill="none" stroke="#92C3F4" stroke-miterlimit="10" x1="0" y1="630" x2="1583" y2="630"/>
	<line fill="none" stroke="#92C3F4" stroke-miterlimit="10" x1="0" y1="648" x2="1583" y2="648"/>
	<line fill="none" stroke="#92C3F4" stroke-miterlimit="10" x1="0" y1="666" x2="1583" y2="666"/>
	<line fill="none" stroke="#92C3F4" stroke-miterlimit="10" x1="0" y1="684" x2="1583" y2="684"/>
	<line fill="none" stroke="#92C3F4" stroke-miterlimit="10" x1="0" y1="702" x2="1583" y2="702"/>
	<line fill="none" stroke="#92C3F4" stroke-miterlimit="10" x1="0" y1="720" x2="1583" y2="720"/>
	<line fill="none" stroke="#92C3F4" stroke-miterlimit="10" x1="0" y1="738" x2="1583" y2="738"/>
	<line fill="none" stroke="#92C3F4" stroke-miterlimit="10" x1="0" y1="756" x2="1583" y2="756"/>
	<line fill="none" stroke="#92C3F4" stroke-miterlimit="10" x1="0" y1="774" x2="1583" y2="774"/>
	<line fill="none" stroke="#92C3F4" stroke-miterlimit="10" x1="0" y1="792" x2="1583" y2="792"/>
	<line fill="none" stroke="#92C3F4" stroke-miterlimit="10" x1="0" y1="810" x2="1583" y2="810"/>
	<line fill="none" stroke="#92C3F4" stroke-miterlimit="10" x1="0" y1="828" x2="1583" y2="828"/>
	<line fill="none" stroke="#92C3F4" stroke-miterlimit="10" x1="-2" y1="0" x2="1581" y2="0"/>
	<line fill="none" stroke="#92C3F4" stroke-miterlimit="10" x1="-2" y1="18" x2="1581" y2="18"/>
	<line fill="none" stroke="#92C3F4" stroke-miterlimit="10" x1="-2" y1="36" x2="1581" y2="36"/>
	<line fill="none" stroke="#92C3F4" stroke-miterlimit="10" x1="-2" y1="54" x2="1581" y2="54"/>
	<line fill="none" stroke="#92C3F4" stroke-miterlimit="10" x1="-2" y1="72" x2="1581" y2="72"/>
	<line fill="none" stroke="#92C3F4" stroke-miterlimit="10" x1="-2" y1="90" x2="1581" y2="90"/>
	<line fill="none" stroke="#92C3F4" stroke-miterlimit="10" x1="-2" y1="108" x2="1581" y2="108"/>
	<line fill="none" stroke="#92C3F4" stroke-miterlimit="10" x1="-2" y1="126" x2="1581" y2="126"/>
	<line fill="none" stroke="#92C3F4" stroke-miterlimit="10" x1="-2" y1="144" x2="1581" y2="144"/>
	<line fill="none" stroke="#92C3F4" stroke-miterlimit="10" x1="-2" y1="162" x2="1581" y2="162"/>
	<line fill="none" stroke="#92C3F4" stroke-miterlimit="10" x1="-2" y1="180" x2="1581" y2="180"/>
	<line fill="none" stroke="#92C3F4" stroke-miterlimit="10" x1="-2" y1="198" x2="1581" y2="198"/>
	<line fill="none" stroke="#92C3F4" stroke-miterlimit="10" x1="-2" y1="216" x2="1581" y2="216"/>
	<line fill="none" stroke="#92C3F4" stroke-miterlimit="10" x1="-2" y1="234" x2="1581" y2="234"/>
	<line fill="none" stroke="#92C3F4" stroke-miterlimit="10" x1="-2" y1="252" x2="1581" y2="252"/>
	<line fill="none" stroke="#92C3F4" stroke-miterlimit="10" x1="-2" y1="270" x2="1581" y2="270"/>
</g>
</svg>
