<?xml version="1.0" encoding="utf-8"?>
<!-- Generator: Adobe Illustrator 18.1.0, SVG Export Plug-In . SVG Version: 6.00 Build 0)  -->
<svg version="1.1" xmlns="http://www.w3.org/2000/svg" xmlns:xlink="http://www.w3.org/1999/xlink" x="0px" y="0px"
	 viewBox="0 0 1943.7 252.5" enable-background="new 0 0 1943.7 252.5" xml:space="preserve">
<g id="Layer_1">
	<polygon fill="#FFFFFF" points="1943.7,251.5 0,251.3 0,0 1943.7,0.2 	"/>
</g>
<g id="Layer_7">
	<path fill="none" stroke="#92C3F4" stroke-miterlimit="10" d="M1964.3-0.3"/>
	<line fill="none" stroke="#92C3F4" stroke-miterlimit="10" x1="193.2" y1="0" x2="193.2" y2="253"/>
	<line fill="none" stroke="#92C3F4" stroke-miterlimit="10" x1="211.2" y1="0" x2="211.2" y2="253"/>
	<line fill="none" stroke="#92C3F4" stroke-miterlimit="10" x1="229.2" y1="0" x2="229.2" y2="253"/>
	<line fill="none" stroke="#92C3F4" stroke-miterlimit="10" x1="247.2" y1="0" x2="247.2" y2="253"/>
	<line fill="none" stroke="#92C3F4" stroke-miterlimit="10" x1="265.2" y1="0" x2="265.2" y2="253"/>
	<line fill="none" stroke="#92C3F4" stroke-miterlimit="10" x1="283.2" y1="0" x2="283.2" y2="253"/>
	<line fill="none" stroke="#92C3F4" stroke-miterlimit="10" x1="301.2" y1="0" x2="301.2" y2="253"/>
	<line fill="none" stroke="#92C3F4" stroke-miterlimit="10" x1="319.2" y1="0" x2="319.2" y2="253"/>
	<line fill="none" stroke="#92C3F4" stroke-miterlimit="10" x1="337.2" y1="0" x2="337.2" y2="253"/>
	<line fill="none" stroke="#92C3F4" stroke-miterlimit="10" x1="355.2" y1="0" x2="355.2" y2="253"/>
	<line fill="none" stroke="#92C3F4" stroke-miterlimit="10" x1="373.2" y1="0" x2="373.2" y2="253"/>
	<line fill="none" stroke="#92C3F4" stroke-miterlimit="10" x1="391.2" y1="0" x2="391.2" y2="253"/>
	<line fill="none" stroke="#92C3F4" stroke-miterlimit="10" x1="409.2" y1="0" x2="409.2" y2="253"/>
	<line fill="none" stroke="#92C3F4" stroke-miterlimit="10" x1="427.2" y1="0" x2="427.2" y2="253"/>
	<line fill="none" stroke="#92C3F4" stroke-miterlimit="10" x1="445.2" y1="0" x2="445.2" y2="253"/>
	<line fill="none" stroke="#92C3F4" stroke-miterlimit="10" x1="463.2" y1="0" x2="463.2" y2="253"/>
	<line fill="none" stroke="#92C3F4" stroke-miterlimit="10" x1="481.2" y1="0" x2="481.2" y2="253"/>
	<line fill="none" stroke="#92C3F4" stroke-miterlimit="10" x1="499.2" y1="0" x2="499.2" y2="253"/>
	<line fill="none" stroke="#92C3F4" stroke-miterlimit="10" x1="517.2" y1="0" x2="517.2" y2="253"/>
	<line fill="none" stroke="#92C3F4" stroke-miterlimit="10" x1="535.2" y1="0" x2="535.2" y2="253"/>
	<line fill="none" stroke="#92C3F4" stroke-miterlimit="10" x1="553.2" y1="0" x2="553.2" y2="253"/>
	<line fill="none" stroke="#92C3F4" stroke-miterlimit="10" x1="571.2" y1="0" x2="571.2" y2="253"/>
	<line fill="none" stroke="#92C3F4" stroke-miterlimit="10" x1="589.2" y1="0" x2="589.2" y2="253"/>
	<line fill="none" stroke="#92C3F4" stroke-miterlimit="10" x1="607.2" y1="0" x2="607.2" y2="253"/>
	<line fill="none" stroke="#92C3F4" stroke-miterlimit="10" x1="625.2" y1="0" x2="625.2" y2="253"/>
	<line fill="none" stroke="#92C3F4" stroke-miterlimit="10" x1="643.2" y1="0" x2="643.2" y2="253"/>
	<line fill="none" stroke="#92C3F4" stroke-miterlimit="10" x1="661.2" y1="0" x2="661.2" y2="253"/>
	<line fill="none" stroke="#92C3F4" stroke-miterlimit="10" x1="679.2" y1="0" x2="679.2" y2="253"/>
	<line fill="none" stroke="#92C3F4" stroke-miterlimit="10" x1="697.2" y1="0" x2="697.2" y2="253"/>
	<line fill="none" stroke="#92C3F4" stroke-miterlimit="10" x1="715.2" y1="0" x2="715.2" y2="253"/>
	<line fill="none" stroke="#92C3F4" stroke-miterlimit="10" x1="733.2" y1="0" x2="733.2" y2="253"/>
	<line fill="none" stroke="#92C3F4" stroke-miterlimit="10" x1="751.2" y1="0" x2="751.2" y2="253"/>
	<line fill="none" stroke="#92C3F4" stroke-miterlimit="10" x1="769.2" y1="0" x2="769.2" y2="253"/>
	<line fill="none" stroke="#92C3F4" stroke-miterlimit="10" x1="787.2" y1="0" x2="787.2" y2="253"/>
	<line fill="none" stroke="#92C3F4" stroke-miterlimit="10" x1="805.2" y1="0" x2="805.2" y2="253"/>
	<line fill="none" stroke="#92C3F4" stroke-miterlimit="10" x1="823.2" y1="0" x2="823.2" y2="253"/>
	<line fill="none" stroke="#92C3F4" stroke-miterlimit="10" x1="841.2" y1="0" x2="841.2" y2="253"/>
	<line fill="none" stroke="#92C3F4" stroke-miterlimit="10" x1="859.2" y1="0" x2="859.2" y2="253"/>
	<line fill="none" stroke="#92C3F4" stroke-miterlimit="10" x1="877.2" y1="0" x2="877.2" y2="253"/>
	<line fill="none" stroke="#92C3F4" stroke-miterlimit="10" x1="895.2" y1="0" x2="895.2" y2="253"/>
	<line fill="none" stroke="#92C3F4" stroke-miterlimit="10" x1="913.2" y1="0" x2="913.2" y2="253"/>
	<line fill="none" stroke="#92C3F4" stroke-miterlimit="10" x1="931.2" y1="0" x2="931.2" y2="253"/>
	<line fill="none" stroke="#92C3F4" stroke-miterlimit="10" x1="949.2" y1="0" x2="949.2" y2="253"/>
	<line fill="none" stroke="#92C3F4" stroke-miterlimit="10" x1="967.2" y1="0" x2="967.2" y2="253"/>
	<line fill="none" stroke="#92C3F4" stroke-miterlimit="10" x1="985.2" y1="0" x2="985.2" y2="253"/>
	<line fill="none" stroke="#92C3F4" stroke-miterlimit="10" x1="1003.2" y1="0" x2="1003.2" y2="253"/>
	<line fill="none" stroke="#92C3F4" stroke-miterlimit="10" x1="1021.2" y1="0" x2="1021.2" y2="253"/>
	<line fill="none" stroke="#92C3F4" stroke-miterlimit="10" x1="1039.2" y1="0" x2="1039.2" y2="253"/>
	<line fill="none" stroke="#92C3F4" stroke-miterlimit="10" x1="1057.2" y1="0" x2="1057.2" y2="253"/>
	<line fill="none" stroke="#92C3F4" stroke-miterlimit="10" x1="1075.2" y1="0" x2="1075.2" y2="253"/>
	<line fill="none" stroke="#92C3F4" stroke-miterlimit="10" x1="1093.2" y1="0" x2="1093.2" y2="253"/>
	<line fill="none" stroke="#92C3F4" stroke-miterlimit="10" x1="1111.2" y1="0" x2="1111.2" y2="253"/>
	<line fill="none" stroke="#92C3F4" stroke-miterlimit="10" x1="1129.2" y1="0" x2="1129.2" y2="253"/>
	<line fill="none" stroke="#92C3F4" stroke-miterlimit="10" x1="1147.2" y1="0" x2="1147.2" y2="253"/>
	<line fill="none" stroke="#92C3F4" stroke-miterlimit="10" x1="1165.2" y1="0" x2="1165.2" y2="253"/>
	<line fill="none" stroke="#92C3F4" stroke-miterlimit="10" x1="1183.2" y1="0" x2="1183.2" y2="253"/>
	<line fill="none" stroke="#92C3F4" stroke-miterlimit="10" x1="1201.2" y1="0" x2="1201.2" y2="253"/>
	<line fill="none" stroke="#92C3F4" stroke-miterlimit="10" x1="1219.2" y1="0" x2="1219.2" y2="253"/>
	<line fill="none" stroke="#92C3F4" stroke-miterlimit="10" x1="1237.2" y1="0" x2="1237.2" y2="253"/>
	<line fill="none" stroke="#92C3F4" stroke-miterlimit="10" x1="1255.2" y1="0" x2="1255.2" y2="253"/>
	<line fill="none" stroke="#92C3F4" stroke-miterlimit="10" x1="1273.2" y1="0" x2="1273.2" y2="253"/>
	<line fill="none" stroke="#92C3F4" stroke-miterlimit="10" x1="1291.2" y1="0" x2="1291.2" y2="253"/>
	<line fill="none" stroke="#92C3F4" stroke-miterlimit="10" x1="1309.2" y1="0" x2="1309.2" y2="253"/>
	<line fill="none" stroke="#92C3F4" stroke-miterlimit="10" x1="1327.2" y1="0" x2="1327.2" y2="253"/>
	<line fill="none" stroke="#92C3F4" stroke-miterlimit="10" x1="1345.2" y1="0" x2="1345.2" y2="253"/>
	<line fill="none" stroke="#92C3F4" stroke-miterlimit="10" x1="1363.2" y1="0" x2="1363.2" y2="253"/>
	<line fill="none" stroke="#92C3F4" stroke-miterlimit="10" x1="1381.2" y1="0" x2="1381.2" y2="253"/>
	<line fill="none" stroke="#92C3F4" stroke-miterlimit="10" x1="1399.2" y1="0" x2="1399.2" y2="253"/>
	<line fill="none" stroke="#92C3F4" stroke-miterlimit="10" x1="1417.2" y1="0" x2="1417.2" y2="253"/>
	<line fill="none" stroke="#92C3F4" stroke-miterlimit="10" x1="1435.2" y1="0" x2="1435.2" y2="253"/>
	<line fill="none" stroke="#92C3F4" stroke-miterlimit="10" x1="1453.2" y1="0" x2="1453.2" y2="253"/>
	<line fill="none" stroke="#92C3F4" stroke-miterlimit="10" x1="1471.2" y1="0" x2="1471.2" y2="253"/>
	<line fill="none" stroke="#92C3F4" stroke-miterlimit="10" x1="1489.2" y1="0" x2="1489.2" y2="253"/>
	<line fill="none" stroke="#92C3F4" stroke-miterlimit="10" x1="1507.2" y1="0" x2="1507.2" y2="253"/>
	<line fill="none" stroke="#92C3F4" stroke-miterlimit="10" x1="1525.2" y1="0" x2="1525.2" y2="253"/>
	<line fill="none" stroke="#92C3F4" stroke-miterlimit="10" x1="1543.2" y1="0" x2="1543.2" y2="253"/>
	<line fill="none" stroke="#92C3F4" stroke-miterlimit="10" x1="1561.2" y1="0" x2="1561.2" y2="253"/>
	<line fill="none" stroke="#92C3F4" stroke-miterlimit="10" x1="1579.2" y1="0" x2="1579.2" y2="253"/>
	<line fill="none" stroke="#92C3F4" stroke-miterlimit="10" x1="1597.2" y1="0" x2="1597.2" y2="253"/>
	<line fill="none" stroke="#92C3F4" stroke-miterlimit="10" x1="1615.2" y1="0" x2="1615.2" y2="253"/>
	<line fill="none" stroke="#92C3F4" stroke-miterlimit="10" x1="1633.2" y1="0" x2="1633.2" y2="253"/>
	<line fill="none" stroke="#92C3F4" stroke-miterlimit="10" x1="1651.2" y1="0" x2="1651.2" y2="253"/>
	<line fill="none" stroke="#92C3F4" stroke-miterlimit="10" x1="1669.2" y1="0" x2="1669.2" y2="253"/>
	<line fill="none" stroke="#92C3F4" stroke-miterlimit="10" x1="1687.2" y1="0" x2="1687.2" y2="253"/>
	<line fill="none" stroke="#92C3F4" stroke-miterlimit="10" x1="1705.2" y1="0" x2="1705.2" y2="253"/>
	<line fill="none" stroke="#92C3F4" stroke-miterlimit="10" x1="1723.2" y1="0" x2="1723.2" y2="253"/>
	<line fill="none" stroke="#92C3F4" stroke-miterlimit="10" x1="1741.2" y1="0" x2="1741.2" y2="253"/>
	<line fill="none" stroke="#92C3F4" stroke-miterlimit="10" x1="-0.3" y1="18.5" x2="1943.7" y2="18.5"/>
	<line fill="none" stroke="#92C3F4" stroke-miterlimit="10" x1="-0.3" y1="36.5" x2="1943.7" y2="36.5"/>
	<line fill="none" stroke="#92C3F4" stroke-miterlimit="10" x1="-0.3" y1="54.5" x2="1943.7" y2="54.5"/>
	<line fill="none" stroke="#92C3F4" stroke-miterlimit="10" x1="-0.3" y1="72.5" x2="1943.7" y2="72.5"/>
	<line fill="none" stroke="#92C3F4" stroke-miterlimit="10" x1="-0.3" y1="90.5" x2="1943.7" y2="90.5"/>
	<line fill="none" stroke="#92C3F4" stroke-miterlimit="10" x1="-0.3" y1="0.5" x2="1943.7" y2="0.5"/>
	<line fill="none" stroke="#92C3F4" stroke-miterlimit="10" x1="-0.3" y1="108.5" x2="1943.7" y2="108.5"/>
	<line fill="none" stroke="#92C3F4" stroke-miterlimit="10" x1="-0.3" y1="126.5" x2="1943.7" y2="126.5"/>
	<line fill="none" stroke="#92C3F4" stroke-miterlimit="10" x1="-0.3" y1="144.5" x2="1943.7" y2="144.5"/>
	<line fill="none" stroke="#92C3F4" stroke-miterlimit="10" x1="-0.3" y1="162.5" x2="1943.7" y2="162.5"/>
	<line fill="none" stroke="#92C3F4" stroke-miterlimit="10" x1="-0.3" y1="180.5" x2="1943.7" y2="180.5"/>
	<line fill="none" stroke="#92C3F4" stroke-miterlimit="10" x1="-0.3" y1="198.5" x2="1943.7" y2="198.5"/>
	<line fill="none" stroke="#92C3F4" stroke-miterlimit="10" x1="-0.3" y1="216.5" x2="1943.7" y2="216.5"/>
	<line fill="none" stroke="#92C3F4" stroke-miterlimit="10" x1="-0.3" y1="234.5" x2="1943.7" y2="234.5"/>
	<line fill="none" stroke="#92C3F4" stroke-miterlimit="10" x1="-0.3" y1="252.5" x2="1943.7" y2="252.5"/>
	<path fill="none" stroke="#FF0000" stroke-miterlimit="10" d="M1949.8,198.6"/>
	<path fill="none" stroke="#000000" stroke-miterlimit="10" d="M1181.2,545.6"/>
	<line fill="none" stroke="#92C3F4" stroke-miterlimit="10" x1="49.2" y1="0" x2="49.2" y2="253"/>
	<line fill="none" stroke="#92C3F4" stroke-miterlimit="10" x1="67.2" y1="0" x2="67.2" y2="253"/>
	<line fill="none" stroke="#92C3F4" stroke-miterlimit="10" x1="85.2" y1="0" x2="85.2" y2="253"/>
	<line fill="none" stroke="#92C3F4" stroke-miterlimit="10" x1="103.2" y1="0" x2="103.2" y2="253"/>
	<line fill="none" stroke="#92C3F4" stroke-miterlimit="10" x1="121.2" y1="0" x2="121.2" y2="253"/>
	<line fill="none" stroke="#92C3F4" stroke-miterlimit="10" x1="139.2" y1="0" x2="139.2" y2="253"/>
	<line fill="none" stroke="#92C3F4" stroke-miterlimit="10" x1="157.2" y1="0" x2="157.2" y2="253"/>
	<line fill="none" stroke="#92C3F4" stroke-miterlimit="10" x1="175.2" y1="0" x2="175.2" y2="253"/>
	<path fill="none" stroke="#92C3F4" stroke-miterlimit="10" d="M1154.7-282.4"/>
	<path fill="none" stroke="#92C3F4" stroke-miterlimit="10" d="M-40.8,252.9"/>
	<path fill="none" stroke="#92C3F4" stroke-miterlimit="10" d="M-22.8,252.9"/>
	<path fill="none" stroke="#92C3F4" stroke-miterlimit="10" d="M-4.8,252.9"/>
	<line fill="none" stroke="#92C3F4" stroke-miterlimit="10" x1="13.2" y1="0" x2="13.2" y2="253"/>
	<line fill="none" stroke="#92C3F4" stroke-miterlimit="10" x1="31.2" y1="0" x2="31.2" y2="253"/>
	<line fill="none" stroke="#92C3F4" stroke-miterlimit="10" x1="1759.2" y1="0" x2="1759.2" y2="253"/>
	<line fill="none" stroke="#92C3F4" stroke-miterlimit="10" x1="1777.2" y1="0" x2="1777.2" y2="253"/>
	<line fill="none" stroke="#92C3F4" stroke-miterlimit="10" x1="1795.2" y1="0" x2="1795.2" y2="253"/>
	<line fill="none" stroke="#92C3F4" stroke-miterlimit="10" x1="1813.2" y1="0" x2="1813.2" y2="253"/>
	<line fill="none" stroke="#92C3F4" stroke-miterlimit="10" x1="1831.2" y1="0" x2="1831.2" y2="253"/>
	<line fill="none" stroke="#92C3F4" stroke-miterlimit="10" x1="1849.2" y1="0" x2="1849.2" y2="253"/>
	<line fill="none" stroke="#92C3F4" stroke-miterlimit="10" x1="1867.2" y1="0" x2="1867.2" y2="253"/>
	<line fill="none" stroke="#92C3F4" stroke-miterlimit="10" x1="1885.2" y1="0" x2="1885.2" y2="253"/>
	<line fill="none" stroke="#92C3F4" stroke-miterlimit="10" x1="1903.2" y1="0" x2="1903.2" y2="253"/>
	<line fill="none" stroke="#92C3F4" stroke-miterlimit="10" x1="1921.2" y1="0" x2="1921.2" y2="253"/>
	<line fill="none" stroke="#92C3F4" stroke-miterlimit="10" x1="1939.2" y1="0" x2="1939.2" y2="253"/>
	<path fill="none" stroke="#92C3F4" stroke-miterlimit="10" d="M1957.2,0.1"/>
	<path fill="none" stroke="#92C3F4" stroke-miterlimit="10" d="M1975.2,0.1"/>
</g>
<g id="Layer_17">
	<polygon fill="#FFFFFF" stroke="#92C3F4" stroke-miterlimit="10" points="704.2,54.6 722.2,54.6 722.2,71.6 722.2,72.6 704.2,72.6 
			"/>
	<path fill="#FFFFFF" stroke="#92C3F4" stroke-miterlimit="10" d="M722.2,72.6l-18-18L722.2,72.6z"/>
	<polygon fill="#FFFFFF" stroke="#92C3F4" stroke-miterlimit="10" points="722.2,54.6 740.2,54.6 740.2,71.6 740.2,72.6 722.2,72.6 
			"/>
	<path fill="#FFFFFF" stroke="#92C3F4" stroke-miterlimit="10" d="M740.2,72.6l-18-18L740.2,72.6z"/>
	<polygon fill="#FFFFFF" stroke="#92C3F4" stroke-miterlimit="10" points="722.2,72.6 722.2,90.6 705.1,90.6 704.2,90.6 704.2,72.6 
			"/>
	<path fill="#FFFFFF" stroke="#92C3F4" stroke-miterlimit="10" d="M704.2,90.6l18-18L704.2,90.6z"/>
	<polygon fill="#FFFFFF" stroke="#92C3F4" stroke-miterlimit="10" points="740.2,90.6 722.2,90.6 722.2,73.6 722.2,72.6 740.2,72.6 
			"/>
	<path fill="#FFFFFF" stroke="#92C3F4" stroke-miterlimit="10" d="M722.2,72.6l18,18L722.2,72.6z"/>
	<polygon fill="#FFFFFF" stroke="#92C3F4" stroke-miterlimit="10" points="722.2,90.6 722.2,108.6 705.1,108.6 704.2,108.6 
		704.2,90.6 	"/>
	<path fill="#FFFFFF" stroke="#92C3F4" stroke-miterlimit="10" d="M704.2,108.6l18-18L704.2,108.6z"/>
	<polygon fill="#FFFFFF" stroke="#92C3F4" stroke-miterlimit="10" points="722.2,90.6 740.2,90.6 740.2,107.6 740.2,108.6 
		722.2,108.6 	"/>
	<path fill="#FFFFFF" stroke="#92C3F4" stroke-miterlimit="10" d="M740.2,108.6l-18-18L740.2,108.6z"/>
	<polygon fill="#FFFFFF" stroke="#92C3F4" stroke-miterlimit="10" points="704.2,108.6 722.2,108.6 722.2,125.6 722.2,126.6 
		704.2,126.6 	"/>
	<path fill="#FFFFFF" stroke="#92C3F4" stroke-miterlimit="10" d="M722.2,126.6l-18-18L722.2,126.6z"/>
	<polygon fill="#FFFFFF" stroke="#92C3F4" stroke-miterlimit="10" points="722.2,126.6 722.2,108.6 739.2,108.6 740.2,108.6 
		740.2,126.6 	"/>
	<path fill="#FFFFFF" stroke="#92C3F4" stroke-miterlimit="10" d="M740.2,108.6l-18,18L740.2,108.6z"/>
	<polygon fill="#FFFFFF" stroke="#92C3F4" stroke-miterlimit="10" points="704.2,126.6 722.2,126.6 722.2,143.6 722.2,144.6 
		704.2,144.6 	"/>
	<path fill="#FFFFFF" stroke="#92C3F4" stroke-miterlimit="10" d="M722.2,144.6l-18-18L722.2,144.6z"/>
	<polygon fill="#FFFFFF" stroke="#92C3F4" stroke-miterlimit="10" points="722.2,126.6 740.2,126.6 740.2,143.6 740.2,144.6 
		722.2,144.6 	"/>
	<path fill="#FFFFFF" stroke="#92C3F4" stroke-miterlimit="10" d="M740.2,144.6l-18-18L740.2,144.6z"/>
	<polygon fill="#FFFFFF" stroke="#92C3F4" stroke-miterlimit="10" points="704.2,144.6 722.2,144.6 722.2,161.6 722.2,162.6 
		704.2,162.6 	"/>
	<path fill="#FFFFFF" stroke="#92C3F4" stroke-miterlimit="10" d="M722.2,162.6l-18-18L722.2,162.6z"/>
	<polygon fill="#FFFFFF" stroke="#92C3F4" stroke-miterlimit="10" points="740.2,144.6 740.2,162.6 723.1,162.6 722.2,162.6 
		722.2,144.6 	"/>
	<path fill="#FFFFFF" stroke="#92C3F4" stroke-miterlimit="10" d="M722.2,162.6l18-18L722.2,162.6z"/>
	<polygon fill="#FFFFFF" stroke="#92C3F4" stroke-miterlimit="10" points="704.2,180.6 704.2,162.6 721.2,162.6 722.2,162.6 
		722.2,180.6 	"/>
	<path fill="#FFFFFF" stroke="#92C3F4" stroke-miterlimit="10" d="M722.2,162.6l-18,18L722.2,162.6z"/>
	<polygon fill="#FFFFFF" stroke="#92C3F4" stroke-miterlimit="10" points="722.2,162.6 740.2,162.6 740.2,179.6 740.2,180.6 
		722.2,180.6 	"/>
	<path fill="#FFFFFF" stroke="#92C3F4" stroke-miterlimit="10" d="M740.2,180.6l-18-18L740.2,180.6z"/>
	<polygon fill="#FFFFFF" stroke="#92C3F4" stroke-miterlimit="10" points="704.2,180.6 722.2,180.6 722.2,197.6 722.2,198.6 
		704.2,198.6 	"/>
	<path fill="#FFFFFF" stroke="#92C3F4" stroke-miterlimit="10" d="M722.2,198.6l-18-18L722.2,198.6z"/>
	<polygon fill="#FFFFFF" stroke="#92C3F4" stroke-miterlimit="10" points="722.2,180.6 740.2,180.6 740.2,197.6 740.2,198.6 
		722.2,198.6 	"/>
	<path fill="#FFFFFF" stroke="#92C3F4" stroke-miterlimit="10" d="M740.2,198.6l-18-18L740.2,198.6z"/>
	<polygon fill="#FFFFFF" stroke="#92C3F4" stroke-miterlimit="10" points="722.2,198.6 722.2,216.6 705.1,216.6 704.2,216.6 
		704.2,198.6 	"/>
	<path fill="#FFFFFF" stroke="#92C3F4" stroke-miterlimit="10" d="M704.2,216.6l18-18L704.2,216.6z"/>
	<polygon fill="#FFFFFF" stroke="#92C3F4" stroke-miterlimit="10" points="722.2,198.6 740.2,198.6 740.2,215.6 740.2,216.6 
		722.2,216.6 	"/>
	<path fill="#FFFFFF" stroke="#92C3F4" stroke-miterlimit="10" d="M740.2,216.6l-18-18L740.2,216.6z"/>
	<polygon fill="#FFFFFF" stroke="#92C3F4" stroke-miterlimit="10" points="740.2,54.6 758.2,54.6 758.2,71.6 758.2,72.6 740.2,72.6 
			"/>
	<path fill="#FFFFFF" stroke="#92C3F4" stroke-miterlimit="10" d="M758.2,72.6l-18-18L758.2,72.6z"/>
	<polygon fill="#FFFFFF" stroke="#92C3F4" stroke-miterlimit="10" points="758.2,54.6 776.2,54.6 776.2,71.6 776.2,72.6 758.2,72.6 
			"/>
	<path fill="#FFFFFF" stroke="#92C3F4" stroke-miterlimit="10" d="M776.2,72.6l-18-18L776.2,72.6z"/>
	<polygon fill="#FFFFFF" stroke="#92C3F4" stroke-miterlimit="10" points="758.2,72.6 758.2,90.6 741.1,90.6 740.2,90.6 740.2,72.6 
			"/>
	<path fill="#FFFFFF" stroke="#92C3F4" stroke-miterlimit="10" d="M740.2,90.6l18-18L740.2,90.6z"/>
	<polygon fill="#FFFFFF" stroke="#92C3F4" stroke-miterlimit="10" points="776.2,90.6 758.2,90.6 758.2,73.6 758.2,72.6 776.2,72.6 
			"/>
	<path fill="#FFFFFF" stroke="#92C3F4" stroke-miterlimit="10" d="M758.2,72.6l18,18L758.2,72.6z"/>
	<polygon fill="#FFFFFF" stroke="#92C3F4" stroke-miterlimit="10" points="758.2,90.6 758.2,108.6 741.1,108.6 740.2,108.6 
		740.2,90.6 	"/>
	<path fill="#FFFFFF" stroke="#92C3F4" stroke-miterlimit="10" d="M740.2,108.6l18-18L740.2,108.6z"/>
	<polygon fill="#FFFFFF" stroke="#92C3F4" stroke-miterlimit="10" points="758.2,90.6 776.2,90.6 776.2,107.6 776.2,108.6 
		758.2,108.6 	"/>
	<path fill="#FFFFFF" stroke="#92C3F4" stroke-miterlimit="10" d="M776.2,108.6l-18-18L776.2,108.6z"/>
	<polygon fill="#FFFFFF" stroke="#92C3F4" stroke-miterlimit="10" points="740.2,108.6 758.2,108.6 758.2,125.6 758.2,126.6 
		740.2,126.6 	"/>
	<path fill="#FFFFFF" stroke="#92C3F4" stroke-miterlimit="10" d="M758.2,126.6l-18-18L758.2,126.6z"/>
	<polygon fill="#FFFFFF" stroke="#92C3F4" stroke-miterlimit="10" points="758.2,126.6 758.2,108.6 775.2,108.6 776.2,108.6 
		776.2,126.6 	"/>
	<path fill="#FFFFFF" stroke="#92C3F4" stroke-miterlimit="10" d="M776.2,108.6l-18,18L776.2,108.6z"/>
	<polygon fill="#FFFFFF" stroke="#92C3F4" stroke-miterlimit="10" points="740.2,126.6 758.2,126.6 758.2,143.6 758.2,144.6 
		740.2,144.6 	"/>
	<path fill="#FFFFFF" stroke="#92C3F4" stroke-miterlimit="10" d="M758.2,144.6l-18-18L758.2,144.6z"/>
	<polygon fill="#FFFFFF" stroke="#92C3F4" stroke-miterlimit="10" points="758.2,126.6 776.2,126.6 776.2,143.6 776.2,144.6 
		758.2,144.6 	"/>
	<path fill="#FFFFFF" stroke="#92C3F4" stroke-miterlimit="10" d="M776.2,144.6l-18-18L776.2,144.6z"/>
	<polygon fill="#FFFFFF" stroke="#92C3F4" stroke-miterlimit="10" points="740.2,144.6 758.2,144.6 758.2,161.6 758.2,162.6 
		740.2,162.6 	"/>
	<path fill="#FFFFFF" stroke="#92C3F4" stroke-miterlimit="10" d="M758.2,162.6l-18-18L758.2,162.6z"/>
	<polygon fill="#FFFFFF" stroke="#92C3F4" stroke-miterlimit="10" points="776.2,144.6 776.2,162.6 759.1,162.6 758.2,162.6 
		758.2,144.6 	"/>
	<path fill="#FFFFFF" stroke="#92C3F4" stroke-miterlimit="10" d="M758.2,162.6l18-18L758.2,162.6z"/>
	<polygon fill="#FFFFFF" stroke="#92C3F4" stroke-miterlimit="10" points="740.2,180.6 740.2,162.6 757.2,162.6 758.2,162.6 
		758.2,180.6 	"/>
	<path fill="#FFFFFF" stroke="#92C3F4" stroke-miterlimit="10" d="M758.2,162.6l-18,18L758.2,162.6z"/>
	<polygon fill="#FFFFFF" stroke="#92C3F4" stroke-miterlimit="10" points="758.2,162.6 776.2,162.6 776.2,179.6 776.2,180.6 
		758.2,180.6 	"/>
	<path fill="#FFFFFF" stroke="#92C3F4" stroke-miterlimit="10" d="M776.2,180.6l-18-18L776.2,180.6z"/>
	<polygon fill="#FFFFFF" stroke="#92C3F4" stroke-miterlimit="10" points="740.2,180.6 758.2,180.6 758.2,197.6 758.2,198.6 
		740.2,198.6 	"/>
	<path fill="#FFFFFF" stroke="#92C3F4" stroke-miterlimit="10" d="M758.2,198.6l-18-18L758.2,198.6z"/>
	<polygon fill="#FFFFFF" stroke="#92C3F4" stroke-miterlimit="10" points="758.2,180.6 776.2,180.6 776.2,197.6 776.2,198.6 
		758.2,198.6 	"/>
	<path fill="#FFFFFF" stroke="#92C3F4" stroke-miterlimit="10" d="M776.2,198.6l-18-18L776.2,198.6z"/>
	<polygon fill="#FFFFFF" stroke="#92C3F4" stroke-miterlimit="10" points="758.2,198.6 758.2,216.6 741.1,216.6 740.2,216.6 
		740.2,198.6 	"/>
	<path fill="#FFFFFF" stroke="#92C3F4" stroke-miterlimit="10" d="M740.2,216.6l18-18L740.2,216.6z"/>
	<polygon fill="#FFFFFF" stroke="#92C3F4" stroke-miterlimit="10" points="758.2,198.6 776.2,198.6 776.2,215.6 776.2,216.6 
		758.2,216.6 	"/>
	<path fill="#FFFFFF" stroke="#92C3F4" stroke-miterlimit="10" d="M776.2,216.6l-18-18L776.2,216.6z"/>
</g>
<g id="Layer_18">
	<polygon fill="#2F58F2" points="704.7,108.1 704.7,91 721.7,91 	"/>
	<polygon fill="#1B1464" points="722.7,126.1 722.7,109 739.7,109 	"/>
	<polygon fill="#C1272D" points="722.7,162.1 722.7,145 739.7,145 	"/>
	<polygon fill="#C1272D" points="721.7,73.1 721.7,90 704.7,90 	"/>
	<polygon fill="#480087" points="721.7,91.1 721.7,108 704.7,108 	"/>
	<polygon fill="#2F58F2" points="739.7,109.1 739.7,126 722.7,126 	"/>
	<polygon fill="#2F58F2" points="739.7,145.1 739.7,162 722.7,162 	"/>
	<polygon fill="#2F58F2" points="704.7,216.1 704.7,199 721.7,199 	"/>
	<polygon fill="#C1272D" points="721.7,199.1 721.7,216 704.7,216 	"/>
	<polygon fill="#480087" points="704.7,180.1 704.7,163 721.7,163 	"/>
	<polygon fill="#C1272D" points="721.7,163.1 721.7,180 704.7,180 	"/>
	<polygon fill="#480087" points="722.7,55 739.7,55 739.7,72.1 	"/>
	<polygon fill="#C1272D" points="704.7,55 721.7,55 721.7,72.1 	"/>
	<polygon fill="#2F58F2" points="722.7,73 739.7,73 739.7,90.1 	"/>
	<polygon fill="#C1272D" points="722.7,91 739.7,91 739.7,108.1 	"/>
	<polygon fill="#1B1464" points="704.7,145 721.7,145 721.7,162.1 	"/>
	<polygon fill="#480087" points="704.7,181 721.7,181 721.7,198.1 	"/>
	<polygon fill="#C1272D" points="704.7,109 721.7,109 721.7,126.1 	"/>
	<polygon fill="#2F58F2" points="704.7,127 721.7,127 721.7,144.1 	"/>
	<polygon fill="#1B1464" points="721.7,72 704.7,72 704.7,55.1 	"/>
	<polygon fill="#1B1464" points="739.7,90 722.7,90 722.7,73.1 	"/>
	<polygon fill="#480087" points="739.7,144 722.7,144 722.7,127.1 	"/>
	<polygon fill="#1B1464" points="739.7,180 722.7,180 722.7,163.1 	"/>
	<polygon fill="#C1272D" points="721.7,144 704.7,144 704.7,127.1 	"/>
	<polygon fill="#2F58F2" points="722.7,181 739.7,181 739.7,198.1 	"/>
	<polygon fill="#C1272D" points="739.7,198 722.7,198 722.7,181.1 	"/>
	<polygon fill="#1B1464" points="722.7,199 739.7,199 739.7,216.1 	"/>
	<polygon fill="#2F58F2" points="740.7,108.1 740.7,91 757.7,91 	"/>
	<polygon fill="#1B1464" points="758.7,126.1 758.7,109 775.7,109 	"/>
	<polygon fill="#C1272D" points="758.7,162.1 758.7,145 775.7,145 	"/>
	<polygon fill="#C1272D" points="757.7,73.1 757.7,90 740.7,90 	"/>
	<polygon fill="#480087" points="757.7,91.1 757.7,108 740.7,108 	"/>
	<polygon fill="#2F58F2" points="775.7,109.1 775.7,126 758.7,126 	"/>
	<polygon fill="#2F58F2" points="775.7,145.1 775.7,162 758.7,162 	"/>
	<polygon fill="#2F58F2" points="740.7,216.1 740.7,199 757.7,199 	"/>
	<polygon fill="#C1272D" points="757.7,199.1 757.7,216 740.7,216 	"/>
	<polygon fill="#480087" points="740.7,180.1 740.7,163 757.7,163 	"/>
	<polygon fill="#C1272D" points="757.7,163.1 757.7,180 740.7,180 	"/>
	<polygon fill="#480087" points="758.7,55 775.7,55 775.7,72.1 	"/>
	<polygon fill="#C1272D" points="740.7,55 757.7,55 757.7,72.1 	"/>
	<polygon fill="#2F58F2" points="758.7,73 775.7,73 775.7,90.1 	"/>
	<polygon fill="#C1272D" points="758.7,91 775.7,91 775.7,108.1 	"/>
	<polygon fill="#1B1464" points="740.7,145 757.7,145 757.7,162.1 	"/>
	<polygon fill="#480087" points="740.7,181 757.7,181 757.7,198.1 	"/>
	<polygon fill="#C1272D" points="740.7,109 757.7,109 757.7,126.1 	"/>
	<polygon fill="#2F58F2" points="740.7,127 757.7,127 757.7,144.1 	"/>
	<polygon fill="#1B1464" points="757.7,72 740.7,72 740.7,55.1 	"/>
	<polygon fill="#1B1464" points="775.7,90 758.7,90 758.7,73.1 	"/>
	<polygon fill="#480087" points="775.7,144 758.7,144 758.7,127.1 	"/>
	<polygon fill="#1B1464" points="775.7,180 758.7,180 758.7,163.1 	"/>
	<polygon fill="#C1272D" points="757.7,144 740.7,144 740.7,127.1 	"/>
	<polygon fill="#2F58F2" points="758.7,181 775.7,181 775.7,198.1 	"/>
	<polygon fill="#C1272D" points="775.7,198 758.7,198 758.7,181.1 	"/>
	<polygon fill="#1B1464" points="758.7,199 775.7,199 775.7,216.1 	"/>
</g>
<g id="Layer_8">
</g>
<g id="Layer_10">
	<g>
		<polygon points="1047.2,83 1036.6,155 1058.1,155 1047.6,83 		"/>
		<path d="M815.7,76.3c-7.1,0-12,3.9-12,14v76.7c0,10.2,4.9,14,12,14c7.1,0,12-3.9,12-14V90.3C827.7,80.2,822.8,76.3,815.7,76.3z"/>
		<path d="M510.9,0h-0.2h-511v253h511l0,0h1944V0H510.9z M769.7,106h-21V90.3c0-10.2-4.4-14-11.5-14c-7.1,0-11.5,3.9-11.5,14v76.7
			c0,10.2,4.4,13.8,11.5,13.8c7.1,0,11.5-3.7,11.5-13.8V147h21v18.6c0,22.7-11.1,35.7-33,35.7s-33-13-33-35.7V91.8
			c0-22.7,11.1-35.7,33-35.7s33,13,33,35.7V106z M849.7,165.6c0,22.7-12.1,35.7-34,35.7c-21.9,0-34-13-34-35.7V91.8
			c0-22.7,12.1-35.7,34-35.7c21.9,0,34,13,34,35.7V165.6z M934.7,200h-22.9L884.4,97h-0.7v103h-20V58h28.2l22.5,85h0.3V58h20V200z
			 M989.7,200h-22V78h-23V58h69v20h-24V200z M1065.1,200l-3.9-26h-27.4l-3.9,26h-20.5l22.7-142h32.7l22.7,142H1065.1z M1162.7,106
			h-21V90.3c0-10.2-4.4-14-11.5-14c-7.1,0-11.5,3.9-11.5,14v76.7c0,10.2,4.4,13.8,11.5,13.8c7.1,0,11.5-3.7,11.5-13.8V147h21v18.6
			c0,22.7-11.6,35.7-33.5,35.7s-33.5-13-33.5-35.7V91.8c0-22.7,11.6-35.7,33.5-35.7s33.5,13,33.5,35.7V106z M1238.7,78h-23v122h-23
			V78h-23V58h69V78z"/>
	</g>
</g>
<g id="Layer_9">
	<g>
		<path fill="none" stroke="#92C3F4" stroke-miterlimit="10" d="M769.9,146.4v19c0,22.8-11.4,35.9-33.4,35.9s-32.4-13-32.4-35.9
			V91.1c0-22.8,10.4-35.4,32.4-35.4s33.4,12.5,33.4,35.4v14.6h-21.2v-16c0-10.2-4.5-14.1-11.6-14.1c-7.1,0-11.6,3.9-11.6,14.1v77.1
			c0,10.2,4.5,13.9,11.6,13.9c7.1,0,11.6-3.7,11.6-13.9v-20.4H769.9z"/>
	</g>
</g>
</svg>
