<?xml version="1.0" encoding="utf-8"?>
<!-- Generator: Adobe Illustrator 18.1.0, SVG Export Plug-In . SVG Version: 6.00 Build 0)  -->
<svg version="1.1" xmlns="http://www.w3.org/2000/svg" xmlns:xlink="http://www.w3.org/1999/xlink" x="0px" y="0px"
	 viewBox="0 0 1941.3 252.5" enable-background="new 0 0 1941.3 252.5" xml:space="preserve">
<g id="Layer_1">
	<polygon fill="#FFFFFF" points="1942.4,251.5 -1.2,251.3 -1.2,0 1942.4,0.2 	"/>
</g>
<g id="Layer_7">
	<path fill="none" stroke="#92C3F4" stroke-miterlimit="10" d="M1963.1-0.3"/>
	<line fill="none" stroke="#92C3F4" stroke-miterlimit="10" x1="192" y1="0" x2="192" y2="253"/>
	<line fill="none" stroke="#92C3F4" stroke-miterlimit="10" x1="210" y1="0" x2="210" y2="253"/>
	<line fill="none" stroke="#92C3F4" stroke-miterlimit="10" x1="228" y1="0" x2="228" y2="253"/>
	<line fill="none" stroke="#92C3F4" stroke-miterlimit="10" x1="246" y1="0" x2="246" y2="253"/>
	<line fill="none" stroke="#92C3F4" stroke-miterlimit="10" x1="264" y1="0" x2="264" y2="253"/>
	<line fill="none" stroke="#92C3F4" stroke-miterlimit="10" x1="282" y1="0" x2="282" y2="253"/>
	<line fill="none" stroke="#92C3F4" stroke-miterlimit="10" x1="300" y1="0" x2="300" y2="253"/>
	<line fill="none" stroke="#92C3F4" stroke-miterlimit="10" x1="318" y1="0" x2="318" y2="253"/>
	<line fill="none" stroke="#92C3F4" stroke-miterlimit="10" x1="336" y1="0" x2="336" y2="253"/>
	<line fill="none" stroke="#92C3F4" stroke-miterlimit="10" x1="354" y1="0" x2="354" y2="253"/>
	<line fill="none" stroke="#92C3F4" stroke-miterlimit="10" x1="372" y1="0" x2="372" y2="253"/>
	<line fill="none" stroke="#92C3F4" stroke-miterlimit="10" x1="390" y1="0" x2="390" y2="253"/>
	<line fill="none" stroke="#92C3F4" stroke-miterlimit="10" x1="408" y1="0" x2="408" y2="253"/>
	<line fill="none" stroke="#92C3F4" stroke-miterlimit="10" x1="426" y1="0" x2="426" y2="253"/>
	<line fill="none" stroke="#92C3F4" stroke-miterlimit="10" x1="444" y1="0" x2="444" y2="253"/>
	<line fill="none" stroke="#92C3F4" stroke-miterlimit="10" x1="462" y1="0" x2="462" y2="253"/>
	<line fill="none" stroke="#92C3F4" stroke-miterlimit="10" x1="480" y1="0" x2="480" y2="253"/>
	<line fill="none" stroke="#92C3F4" stroke-miterlimit="10" x1="498" y1="0" x2="498" y2="253"/>
	<line fill="none" stroke="#92C3F4" stroke-miterlimit="10" x1="516" y1="0" x2="516" y2="253"/>
	<line fill="none" stroke="#92C3F4" stroke-miterlimit="10" x1="534" y1="0" x2="534" y2="253"/>
	<line fill="none" stroke="#92C3F4" stroke-miterlimit="10" x1="552" y1="0" x2="552" y2="253"/>
	<line fill="none" stroke="#92C3F4" stroke-miterlimit="10" x1="570" y1="0" x2="570" y2="253"/>
	<line fill="none" stroke="#92C3F4" stroke-miterlimit="10" x1="588" y1="0" x2="588" y2="253"/>
	<line fill="none" stroke="#92C3F4" stroke-miterlimit="10" x1="606" y1="0" x2="606" y2="253"/>
	<line fill="none" stroke="#92C3F4" stroke-miterlimit="10" x1="624" y1="0" x2="624" y2="253"/>
	<line fill="none" stroke="#92C3F4" stroke-miterlimit="10" x1="642" y1="0" x2="642" y2="253"/>
	<line fill="none" stroke="#92C3F4" stroke-miterlimit="10" x1="660" y1="0" x2="660" y2="253"/>
	<line fill="none" stroke="#92C3F4" stroke-miterlimit="10" x1="678" y1="0" x2="678" y2="253"/>
	<line fill="none" stroke="#92C3F4" stroke-miterlimit="10" x1="696" y1="0" x2="696" y2="253"/>
	<line fill="none" stroke="#92C3F4" stroke-miterlimit="10" x1="714" y1="0" x2="714" y2="253"/>
	<line fill="none" stroke="#92C3F4" stroke-miterlimit="10" x1="732" y1="0" x2="732" y2="253"/>
	<line fill="none" stroke="#92C3F4" stroke-miterlimit="10" x1="750" y1="0" x2="750" y2="253"/>
	<line fill="none" stroke="#92C3F4" stroke-miterlimit="10" x1="768" y1="0" x2="768" y2="253"/>
	<line fill="none" stroke="#92C3F4" stroke-miterlimit="10" x1="786" y1="0" x2="786" y2="253"/>
	<line fill="none" stroke="#92C3F4" stroke-miterlimit="10" x1="804" y1="0" x2="804" y2="253"/>
	<line fill="none" stroke="#92C3F4" stroke-miterlimit="10" x1="822" y1="0" x2="822" y2="253"/>
	<line fill="none" stroke="#92C3F4" stroke-miterlimit="10" x1="840" y1="0" x2="840" y2="253"/>
	<line fill="none" stroke="#92C3F4" stroke-miterlimit="10" x1="858" y1="0" x2="858" y2="253"/>
	<line fill="none" stroke="#92C3F4" stroke-miterlimit="10" x1="876" y1="0" x2="876" y2="253"/>
	<line fill="none" stroke="#92C3F4" stroke-miterlimit="10" x1="894" y1="0" x2="894" y2="253"/>
	<line fill="none" stroke="#92C3F4" stroke-miterlimit="10" x1="912" y1="0" x2="912" y2="253"/>
	<line fill="none" stroke="#92C3F4" stroke-miterlimit="10" x1="930" y1="0" x2="930" y2="253"/>
	<line fill="none" stroke="#92C3F4" stroke-miterlimit="10" x1="948" y1="0" x2="948" y2="253"/>
	<line fill="none" stroke="#92C3F4" stroke-miterlimit="10" x1="966" y1="0" x2="966" y2="253"/>
	<line fill="none" stroke="#92C3F4" stroke-miterlimit="10" x1="984" y1="0" x2="984" y2="253"/>
	<line fill="none" stroke="#92C3F4" stroke-miterlimit="10" x1="1002" y1="0" x2="1002" y2="253"/>
	<line fill="none" stroke="#92C3F4" stroke-miterlimit="10" x1="1020" y1="0" x2="1020" y2="253"/>
	<line fill="none" stroke="#92C3F4" stroke-miterlimit="10" x1="1038" y1="0" x2="1038" y2="253"/>
	<line fill="none" stroke="#92C3F4" stroke-miterlimit="10" x1="1056" y1="0" x2="1056" y2="253"/>
	<line fill="none" stroke="#92C3F4" stroke-miterlimit="10" x1="1074" y1="0" x2="1074" y2="253"/>
	<line fill="none" stroke="#92C3F4" stroke-miterlimit="10" x1="1092" y1="0" x2="1092" y2="253"/>
	<line fill="none" stroke="#92C3F4" stroke-miterlimit="10" x1="1110" y1="0" x2="1110" y2="253"/>
	<line fill="none" stroke="#92C3F4" stroke-miterlimit="10" x1="1128" y1="0" x2="1128" y2="253"/>
	<line fill="none" stroke="#92C3F4" stroke-miterlimit="10" x1="1146" y1="0" x2="1146" y2="253"/>
	<line fill="none" stroke="#92C3F4" stroke-miterlimit="10" x1="1164" y1="0" x2="1164" y2="253"/>
	<line fill="none" stroke="#92C3F4" stroke-miterlimit="10" x1="1182" y1="0" x2="1182" y2="253"/>
	<line fill="none" stroke="#92C3F4" stroke-miterlimit="10" x1="1200" y1="0" x2="1200" y2="253"/>
	<line fill="none" stroke="#92C3F4" stroke-miterlimit="10" x1="1218" y1="0" x2="1218" y2="253"/>
	<line fill="none" stroke="#92C3F4" stroke-miterlimit="10" x1="1236" y1="0" x2="1236" y2="253"/>
	<line fill="none" stroke="#92C3F4" stroke-miterlimit="10" x1="1254" y1="0" x2="1254" y2="253"/>
	<line fill="none" stroke="#92C3F4" stroke-miterlimit="10" x1="1272" y1="0" x2="1272" y2="253"/>
	<line fill="none" stroke="#92C3F4" stroke-miterlimit="10" x1="1290" y1="0" x2="1290" y2="253"/>
	<line fill="none" stroke="#92C3F4" stroke-miterlimit="10" x1="1308" y1="0" x2="1308" y2="253"/>
	<line fill="none" stroke="#92C3F4" stroke-miterlimit="10" x1="1326" y1="0" x2="1326" y2="253"/>
	<line fill="none" stroke="#92C3F4" stroke-miterlimit="10" x1="1344" y1="0" x2="1344" y2="253"/>
	<line fill="none" stroke="#92C3F4" stroke-miterlimit="10" x1="1362" y1="0" x2="1362" y2="253"/>
	<line fill="none" stroke="#92C3F4" stroke-miterlimit="10" x1="1380" y1="0" x2="1380" y2="253"/>
	<line fill="none" stroke="#92C3F4" stroke-miterlimit="10" x1="1398" y1="0" x2="1398" y2="253"/>
	<line fill="none" stroke="#92C3F4" stroke-miterlimit="10" x1="1416" y1="0" x2="1416" y2="253"/>
	<line fill="none" stroke="#92C3F4" stroke-miterlimit="10" x1="1434" y1="0" x2="1434" y2="253"/>
	<line fill="none" stroke="#92C3F4" stroke-miterlimit="10" x1="1452" y1="0" x2="1452" y2="253"/>
	<line fill="none" stroke="#92C3F4" stroke-miterlimit="10" x1="1470" y1="0" x2="1470" y2="253"/>
	<line fill="none" stroke="#92C3F4" stroke-miterlimit="10" x1="1488" y1="0" x2="1488" y2="253"/>
	<line fill="none" stroke="#92C3F4" stroke-miterlimit="10" x1="1506" y1="0" x2="1506" y2="253"/>
	<line fill="none" stroke="#92C3F4" stroke-miterlimit="10" x1="1524" y1="0" x2="1524" y2="253"/>
	<line fill="none" stroke="#92C3F4" stroke-miterlimit="10" x1="1542" y1="0" x2="1542" y2="253"/>
	<line fill="none" stroke="#92C3F4" stroke-miterlimit="10" x1="1560" y1="0" x2="1560" y2="253"/>
	<line fill="none" stroke="#92C3F4" stroke-miterlimit="10" x1="1578" y1="0" x2="1578" y2="253"/>
	<line fill="none" stroke="#92C3F4" stroke-miterlimit="10" x1="1596" y1="0" x2="1596" y2="253"/>
	<line fill="none" stroke="#92C3F4" stroke-miterlimit="10" x1="1614" y1="0" x2="1614" y2="253"/>
	<line fill="none" stroke="#92C3F4" stroke-miterlimit="10" x1="1632" y1="0" x2="1632" y2="253"/>
	<line fill="none" stroke="#92C3F4" stroke-miterlimit="10" x1="1650" y1="0" x2="1650" y2="253"/>
	<line fill="none" stroke="#92C3F4" stroke-miterlimit="10" x1="1668" y1="0" x2="1668" y2="253"/>
	<line fill="none" stroke="#92C3F4" stroke-miterlimit="10" x1="1686" y1="0" x2="1686" y2="253"/>
	<line fill="none" stroke="#92C3F4" stroke-miterlimit="10" x1="1704" y1="0" x2="1704" y2="253"/>
	<line fill="none" stroke="#92C3F4" stroke-miterlimit="10" x1="1722" y1="0" x2="1722" y2="253"/>
	<line fill="none" stroke="#92C3F4" stroke-miterlimit="10" x1="1740" y1="0" x2="1740" y2="253"/>
	<line fill="none" stroke="#92C3F4" stroke-miterlimit="10" x1="-1.5" y1="18.5" x2="1942.5" y2="18.5"/>
	<line fill="none" stroke="#92C3F4" stroke-miterlimit="10" x1="-1.5" y1="36.5" x2="1942.5" y2="36.5"/>
	<line fill="none" stroke="#92C3F4" stroke-miterlimit="10" x1="-1.5" y1="54.5" x2="1942.5" y2="54.5"/>
	<line fill="none" stroke="#92C3F4" stroke-miterlimit="10" x1="-1.5" y1="72.5" x2="1942.5" y2="72.5"/>
	<line fill="none" stroke="#92C3F4" stroke-miterlimit="10" x1="-1.5" y1="90.5" x2="1942.5" y2="90.5"/>
	<line fill="none" stroke="#92C3F4" stroke-miterlimit="10" x1="-1.5" y1="0.5" x2="1942.5" y2="0.5"/>
	<line fill="none" stroke="#92C3F4" stroke-miterlimit="10" x1="-1.5" y1="108.5" x2="1942.5" y2="108.5"/>
	<line fill="none" stroke="#92C3F4" stroke-miterlimit="10" x1="-1.5" y1="126.5" x2="1942.5" y2="126.5"/>
	<line fill="none" stroke="#92C3F4" stroke-miterlimit="10" x1="-1.5" y1="144.5" x2="1942.5" y2="144.5"/>
	<line fill="none" stroke="#92C3F4" stroke-miterlimit="10" x1="-1.5" y1="162.5" x2="1942.5" y2="162.5"/>
	<line fill="none" stroke="#92C3F4" stroke-miterlimit="10" x1="-1.5" y1="180.5" x2="1942.5" y2="180.5"/>
	<line fill="none" stroke="#92C3F4" stroke-miterlimit="10" x1="-1.5" y1="198.5" x2="1942.5" y2="198.5"/>
	<line fill="none" stroke="#92C3F4" stroke-miterlimit="10" x1="-1.5" y1="216.5" x2="1942.5" y2="216.5"/>
	<line fill="none" stroke="#92C3F4" stroke-miterlimit="10" x1="-1.5" y1="234.5" x2="1942.5" y2="234.5"/>
	<line fill="none" stroke="#92C3F4" stroke-miterlimit="10" x1="-1.5" y1="252.5" x2="1942.5" y2="252.5"/>
	<path fill="none" stroke="#FF0000" stroke-miterlimit="10" d="M1948.6,198.6"/>
	<path fill="none" stroke="#000000" stroke-miterlimit="10" d="M1180,545.6"/>
	<line fill="none" stroke="#92C3F4" stroke-miterlimit="10" x1="48" y1="0" x2="48" y2="253"/>
	<line fill="none" stroke="#92C3F4" stroke-miterlimit="10" x1="66" y1="0" x2="66" y2="253"/>
	<line fill="none" stroke="#92C3F4" stroke-miterlimit="10" x1="84" y1="0" x2="84" y2="253"/>
	<line fill="none" stroke="#92C3F4" stroke-miterlimit="10" x1="102" y1="0" x2="102" y2="253"/>
	<line fill="none" stroke="#92C3F4" stroke-miterlimit="10" x1="120" y1="0" x2="120" y2="253"/>
	<line fill="none" stroke="#92C3F4" stroke-miterlimit="10" x1="138" y1="0" x2="138" y2="253"/>
	<line fill="none" stroke="#92C3F4" stroke-miterlimit="10" x1="156" y1="0" x2="156" y2="253"/>
	<line fill="none" stroke="#92C3F4" stroke-miterlimit="10" x1="174" y1="0" x2="174" y2="253"/>
	<path fill="none" stroke="#92C3F4" stroke-miterlimit="10" d="M1153.4-282.4"/>
	<path fill="none" stroke="#92C3F4" stroke-miterlimit="10" d="M-42.1,252.9"/>
	<path fill="none" stroke="#92C3F4" stroke-miterlimit="10" d="M-24.1,252.9"/>
	<path fill="none" stroke="#92C3F4" stroke-miterlimit="10" d="M-6.1,252.9"/>
	<line fill="none" stroke="#92C3F4" stroke-miterlimit="10" x1="12" y1="0" x2="12" y2="253"/>
	<line fill="none" stroke="#92C3F4" stroke-miterlimit="10" x1="30" y1="0" x2="30" y2="253"/>
	<line fill="none" stroke="#92C3F4" stroke-miterlimit="10" x1="1758" y1="0" x2="1758" y2="253"/>
	<line fill="none" stroke="#92C3F4" stroke-miterlimit="10" x1="1776" y1="0" x2="1776" y2="253"/>
	<line fill="none" stroke="#92C3F4" stroke-miterlimit="10" x1="1794" y1="0" x2="1794" y2="253"/>
	<line fill="none" stroke="#92C3F4" stroke-miterlimit="10" x1="1812" y1="0" x2="1812" y2="253"/>
	<line fill="none" stroke="#92C3F4" stroke-miterlimit="10" x1="1830" y1="0" x2="1830" y2="253"/>
	<line fill="none" stroke="#92C3F4" stroke-miterlimit="10" x1="1848" y1="0" x2="1848" y2="253"/>
	<line fill="none" stroke="#92C3F4" stroke-miterlimit="10" x1="1866" y1="0" x2="1866" y2="253"/>
	<line fill="none" stroke="#92C3F4" stroke-miterlimit="10" x1="1884" y1="0" x2="1884" y2="253"/>
	<line fill="none" stroke="#92C3F4" stroke-miterlimit="10" x1="1902" y1="0" x2="1902" y2="253"/>
	<line fill="none" stroke="#92C3F4" stroke-miterlimit="10" x1="1920" y1="0" x2="1920" y2="253"/>
	<line fill="none" stroke="#92C3F4" stroke-miterlimit="10" x1="1938" y1="0" x2="1938" y2="253"/>
	<path fill="none" stroke="#92C3F4" stroke-miterlimit="10" d="M1955.9,0.1"/>
	<path fill="none" stroke="#92C3F4" stroke-miterlimit="10" d="M1973.9,0.1"/>
</g>
<g id="Layer_17">
	<polygon fill="#FFFFFF" stroke="#92C3F4" stroke-miterlimit="10" points="191.9,54.6 209.9,54.6 209.9,71.6 209.9,72.6 191.9,72.6 
			"/>
	<path fill="#FFFFFF" stroke="#92C3F4" stroke-miterlimit="10" d="M209.9,72.6l-18-18L209.9,72.6z"/>
	<polygon fill="#FFFFFF" stroke="#92C3F4" stroke-miterlimit="10" points="209.9,54.6 227.9,54.6 227.9,71.6 227.9,72.6 209.9,72.6 
			"/>
	<path fill="#FFFFFF" stroke="#92C3F4" stroke-miterlimit="10" d="M227.9,72.6l-18-18L227.9,72.6z"/>
	<polygon fill="#FFFFFF" stroke="#92C3F4" stroke-miterlimit="10" points="209.9,72.6 209.9,90.6 192.9,90.6 191.9,90.6 191.9,72.6 
			"/>
	<path fill="#FFFFFF" stroke="#92C3F4" stroke-miterlimit="10" d="M191.9,90.6l18-18L191.9,90.6z"/>
	<polygon fill="#FFFFFF" stroke="#92C3F4" stroke-miterlimit="10" points="227.9,90.6 209.9,90.6 209.9,73.6 209.9,72.6 227.9,72.6 
			"/>
	<path fill="#FFFFFF" stroke="#92C3F4" stroke-miterlimit="10" d="M209.9,72.6l18,18L209.9,72.6z"/>
	<polygon fill="#FFFFFF" stroke="#92C3F4" stroke-miterlimit="10" points="209.9,90.6 209.9,108.6 192.9,108.6 191.9,108.6 
		191.9,90.6 	"/>
	<path fill="#FFFFFF" stroke="#92C3F4" stroke-miterlimit="10" d="M191.9,108.6l18-18L191.9,108.6z"/>
	<polygon fill="#FFFFFF" stroke="#92C3F4" stroke-miterlimit="10" points="209.9,90.6 227.9,90.6 227.9,107.6 227.9,108.6 
		209.9,108.6 	"/>
	<path fill="#FFFFFF" stroke="#92C3F4" stroke-miterlimit="10" d="M227.9,108.6l-18-18L227.9,108.6z"/>
	<polygon fill="#FFFFFF" stroke="#92C3F4" stroke-miterlimit="10" points="191.9,108.6 209.9,108.6 209.9,125.6 209.9,126.6 
		191.9,126.6 	"/>
	<path fill="#FFFFFF" stroke="#92C3F4" stroke-miterlimit="10" d="M209.9,126.6l-18-18L209.9,126.6z"/>
	<polygon fill="#FFFFFF" stroke="#92C3F4" stroke-miterlimit="10" points="209.9,126.6 209.9,108.6 226.9,108.6 227.9,108.6 
		227.9,126.6 	"/>
	<path fill="#FFFFFF" stroke="#92C3F4" stroke-miterlimit="10" d="M227.9,108.6l-18,18L227.9,108.6z"/>
	<polygon fill="#FFFFFF" stroke="#92C3F4" stroke-miterlimit="10" points="191.9,126.6 209.9,126.6 209.9,143.6 209.9,144.6 
		191.9,144.6 	"/>
	<path fill="#FFFFFF" stroke="#92C3F4" stroke-miterlimit="10" d="M209.9,144.6l-18-18L209.9,144.6z"/>
	<polygon fill="#FFFFFF" stroke="#92C3F4" stroke-miterlimit="10" points="209.9,126.6 227.9,126.6 227.9,143.6 227.9,144.6 
		209.9,144.6 	"/>
	<path fill="#FFFFFF" stroke="#92C3F4" stroke-miterlimit="10" d="M227.9,144.6l-18-18L227.9,144.6z"/>
	<polygon fill="#FFFFFF" stroke="#92C3F4" stroke-miterlimit="10" points="191.9,144.6 209.9,144.6 209.9,161.6 209.9,162.6 
		191.9,162.6 	"/>
	<path fill="#FFFFFF" stroke="#92C3F4" stroke-miterlimit="10" d="M209.9,162.6l-18-18L209.9,162.6z"/>
	<polygon fill="#FFFFFF" stroke="#92C3F4" stroke-miterlimit="10" points="227.9,144.6 227.9,162.6 210.9,162.6 209.9,162.6 
		209.9,144.6 	"/>
	<path fill="#FFFFFF" stroke="#92C3F4" stroke-miterlimit="10" d="M209.9,162.6l18-18L209.9,162.6z"/>
	<polygon fill="#FFFFFF" stroke="#92C3F4" stroke-miterlimit="10" points="191.9,180.6 191.9,162.6 208.9,162.6 209.9,162.6 
		209.9,180.6 	"/>
	<path fill="#FFFFFF" stroke="#92C3F4" stroke-miterlimit="10" d="M209.9,162.6l-18,18L209.9,162.6z"/>
	<polygon fill="#FFFFFF" stroke="#92C3F4" stroke-miterlimit="10" points="209.9,162.6 227.9,162.6 227.9,179.6 227.9,180.6 
		209.9,180.6 	"/>
	<path fill="#FFFFFF" stroke="#92C3F4" stroke-miterlimit="10" d="M227.9,180.6l-18-18L227.9,180.6z"/>
	<polygon fill="#FFFFFF" stroke="#92C3F4" stroke-miterlimit="10" points="191.9,180.6 209.9,180.6 209.9,197.6 209.9,198.6 
		191.9,198.6 	"/>
	<path fill="#FFFFFF" stroke="#92C3F4" stroke-miterlimit="10" d="M209.9,198.6l-18-18L209.9,198.6z"/>
	<polygon fill="#FFFFFF" stroke="#92C3F4" stroke-miterlimit="10" points="209.9,180.6 227.9,180.6 227.9,197.6 227.9,198.6 
		209.9,198.6 	"/>
	<path fill="#FFFFFF" stroke="#92C3F4" stroke-miterlimit="10" d="M227.9,198.6l-18-18L227.9,198.6z"/>
	<polygon fill="#FFFFFF" stroke="#92C3F4" stroke-miterlimit="10" points="209.9,198.6 209.9,216.6 192.9,216.6 191.9,216.6 
		191.9,198.6 	"/>
	<path fill="#FFFFFF" stroke="#92C3F4" stroke-miterlimit="10" d="M191.9,216.6l18-18L191.9,216.6z"/>
	<polygon fill="#FFFFFF" stroke="#92C3F4" stroke-miterlimit="10" points="209.9,198.6 227.9,198.6 227.9,215.6 227.9,216.6 
		209.9,216.6 	"/>
	<path fill="#FFFFFF" stroke="#92C3F4" stroke-miterlimit="10" d="M227.9,216.6l-18-18L227.9,216.6z"/>
	<polygon fill="#FFFFFF" stroke="#92C3F4" stroke-miterlimit="10" points="227.9,54.6 245.9,54.6 245.9,71.6 245.9,72.6 227.9,72.6 
			"/>
	<path fill="#FFFFFF" stroke="#92C3F4" stroke-miterlimit="10" d="M245.9,72.6l-18-18L245.9,72.6z"/>
	<polygon fill="#FFFFFF" stroke="#92C3F4" stroke-miterlimit="10" points="245.9,54.6 263.9,54.6 263.9,71.6 263.9,72.6 245.9,72.6 
			"/>
	<path fill="#FFFFFF" stroke="#92C3F4" stroke-miterlimit="10" d="M263.9,72.6l-18-18L263.9,72.6z"/>
	<polygon fill="#FFFFFF" stroke="#92C3F4" stroke-miterlimit="10" points="245.9,72.6 245.9,90.6 228.9,90.6 227.9,90.6 227.9,72.6 
			"/>
	<path fill="#FFFFFF" stroke="#92C3F4" stroke-miterlimit="10" d="M227.9,90.6l18-18L227.9,90.6z"/>
	<polygon fill="#FFFFFF" stroke="#92C3F4" stroke-miterlimit="10" points="263.9,90.6 245.9,90.6 245.9,73.6 245.9,72.6 263.9,72.6 
			"/>
	<path fill="#FFFFFF" stroke="#92C3F4" stroke-miterlimit="10" d="M245.9,72.6l18,18L245.9,72.6z"/>
	<polygon fill="#FFFFFF" stroke="#92C3F4" stroke-miterlimit="10" points="245.9,90.6 245.9,108.6 228.9,108.6 227.9,108.6 
		227.9,90.6 	"/>
	<path fill="#FFFFFF" stroke="#92C3F4" stroke-miterlimit="10" d="M227.9,108.6l18-18L227.9,108.6z"/>
	<polygon fill="#FFFFFF" stroke="#92C3F4" stroke-miterlimit="10" points="245.9,90.6 263.9,90.6 263.9,107.6 263.9,108.6 
		245.9,108.6 	"/>
	<path fill="#FFFFFF" stroke="#92C3F4" stroke-miterlimit="10" d="M263.9,108.6l-18-18L263.9,108.6z"/>
	<polygon fill="#FFFFFF" stroke="#92C3F4" stroke-miterlimit="10" points="227.9,108.6 245.9,108.6 245.9,125.6 245.9,126.6 
		227.9,126.6 	"/>
	<path fill="#FFFFFF" stroke="#92C3F4" stroke-miterlimit="10" d="M245.9,126.6l-18-18L245.9,126.6z"/>
	<polygon fill="#FFFFFF" stroke="#92C3F4" stroke-miterlimit="10" points="245.9,126.6 245.9,108.6 262.9,108.6 263.9,108.6 
		263.9,126.6 	"/>
	<path fill="#FFFFFF" stroke="#92C3F4" stroke-miterlimit="10" d="M263.9,108.6l-18,18L263.9,108.6z"/>
	<polygon fill="#FFFFFF" stroke="#92C3F4" stroke-miterlimit="10" points="227.9,126.6 245.9,126.6 245.9,143.6 245.9,144.6 
		227.9,144.6 	"/>
	<path fill="#FFFFFF" stroke="#92C3F4" stroke-miterlimit="10" d="M245.9,144.6l-18-18L245.9,144.6z"/>
	<polygon fill="#FFFFFF" stroke="#92C3F4" stroke-miterlimit="10" points="245.9,126.6 263.9,126.6 263.9,143.6 263.9,144.6 
		245.9,144.6 	"/>
	<path fill="#FFFFFF" stroke="#92C3F4" stroke-miterlimit="10" d="M263.9,144.6l-18-18L263.9,144.6z"/>
	<polygon fill="#FFFFFF" stroke="#92C3F4" stroke-miterlimit="10" points="227.9,144.6 245.9,144.6 245.9,161.6 245.9,162.6 
		227.9,162.6 	"/>
	<path fill="#FFFFFF" stroke="#92C3F4" stroke-miterlimit="10" d="M245.9,162.6l-18-18L245.9,162.6z"/>
	<polygon fill="#FFFFFF" stroke="#92C3F4" stroke-miterlimit="10" points="263.9,144.6 263.9,162.6 246.9,162.6 245.9,162.6 
		245.9,144.6 	"/>
	<path fill="#FFFFFF" stroke="#92C3F4" stroke-miterlimit="10" d="M245.9,162.6l18-18L245.9,162.6z"/>
	<polygon fill="#FFFFFF" stroke="#92C3F4" stroke-miterlimit="10" points="227.9,180.6 227.9,162.6 244.9,162.6 245.9,162.6 
		245.9,180.6 	"/>
	<path fill="#FFFFFF" stroke="#92C3F4" stroke-miterlimit="10" d="M245.9,162.6l-18,18L245.9,162.6z"/>
	<polygon fill="#FFFFFF" stroke="#92C3F4" stroke-miterlimit="10" points="245.9,162.6 263.9,162.6 263.9,179.6 263.9,180.6 
		245.9,180.6 	"/>
	<path fill="#FFFFFF" stroke="#92C3F4" stroke-miterlimit="10" d="M263.9,180.6l-18-18L263.9,180.6z"/>
	<polygon fill="#FFFFFF" stroke="#92C3F4" stroke-miterlimit="10" points="227.9,180.6 245.9,180.6 245.9,197.6 245.9,198.6 
		227.9,198.6 	"/>
	<path fill="#FFFFFF" stroke="#92C3F4" stroke-miterlimit="10" d="M245.9,198.6l-18-18L245.9,198.6z"/>
	<polygon fill="#FFFFFF" stroke="#92C3F4" stroke-miterlimit="10" points="245.9,180.6 263.9,180.6 263.9,197.6 263.9,198.6 
		245.9,198.6 	"/>
	<path fill="#FFFFFF" stroke="#92C3F4" stroke-miterlimit="10" d="M263.9,198.6l-18-18L263.9,198.6z"/>
	<polygon fill="#FFFFFF" stroke="#92C3F4" stroke-miterlimit="10" points="245.9,198.6 245.9,216.6 228.9,216.6 227.9,216.6 
		227.9,198.6 	"/>
	<path fill="#FFFFFF" stroke="#92C3F4" stroke-miterlimit="10" d="M227.9,216.6l18-18L227.9,216.6z"/>
	<polygon fill="#FFFFFF" stroke="#92C3F4" stroke-miterlimit="10" points="245.9,198.6 263.9,198.6 263.9,215.6 263.9,216.6 
		245.9,216.6 	"/>
	<path fill="#FFFFFF" stroke="#92C3F4" stroke-miterlimit="10" d="M263.9,216.6l-18-18L263.9,216.6z"/>
</g>
<g id="Layer_18">
	<polygon fill="#2F58F2" points="192.5,108.1 192.5,91 209.4,91 	"/>
	<polygon fill="#1B1464" points="210.5,126.1 210.5,109 227.4,109 	"/>
	<polygon fill="#C1272D" points="210.5,162.1 210.5,145 227.4,145 	"/>
	<polygon fill="#C1272D" points="209.5,73.1 209.5,90 192.4,90 	"/>
	<polygon fill="#480087" points="209.5,91.1 209.5,108 192.4,108 	"/>
	<polygon fill="#2F58F2" points="227.5,109.1 227.5,126 210.4,126 	"/>
	<polygon fill="#2F58F2" points="227.5,145.1 227.5,162 210.4,162 	"/>
	<polygon fill="#2F58F2" points="192.5,216.1 192.5,199 209.4,199 	"/>
	<polygon fill="#C1272D" points="209.5,199.1 209.5,216 192.4,216 	"/>
	<polygon fill="#480087" points="192.5,180.1 192.5,163 209.4,163 	"/>
	<polygon fill="#C1272D" points="209.5,163.1 209.5,180 192.4,180 	"/>
	<polygon fill="#480087" points="210.4,55 227.5,55 227.5,72.1 	"/>
	<polygon fill="#C1272D" points="192.4,55 209.5,55 209.5,72.1 	"/>
	<polygon fill="#2F58F2" points="210.4,73 227.5,73 227.5,90.1 	"/>
	<polygon fill="#C1272D" points="210.4,91 227.5,91 227.5,108.1 	"/>
	<polygon fill="#1B1464" points="192.4,145 209.5,145 209.5,162.1 	"/>
	<polygon fill="#480087" points="192.4,181 209.5,181 209.5,198.1 	"/>
	<polygon fill="#C1272D" points="192.4,109 209.5,109 209.5,126.1 	"/>
	<polygon fill="#2F58F2" points="192.4,127 209.5,127 209.5,144.1 	"/>
	<polygon fill="#1B1464" points="209.4,72 192.5,72 192.5,55.1 	"/>
	<polygon fill="#1B1464" points="227.4,90 210.5,90 210.5,73.1 	"/>
	<polygon fill="#480087" points="227.4,144 210.5,144 210.5,127.1 	"/>
	<polygon fill="#1B1464" points="227.4,180 210.5,180 210.5,163.1 	"/>
	<polygon fill="#C1272D" points="209.4,144 192.5,144 192.5,127.1 	"/>
	<polygon fill="#2F58F2" points="210.4,181 227.5,181 227.5,198.1 	"/>
	<polygon fill="#C1272D" points="227.4,198 210.5,198 210.5,181.1 	"/>
	<polygon fill="#1B1464" points="210.4,199 227.5,199 227.5,216.1 	"/>
	<polygon fill="#2F58F2" points="228.5,108.1 228.5,91 245.4,91 	"/>
	<polygon fill="#1B1464" points="246.5,126.1 246.5,109 263.4,109 	"/>
	<polygon fill="#C1272D" points="246.5,162.1 246.5,145 263.4,145 	"/>
	<polygon fill="#C1272D" points="245.5,73.1 245.5,90 228.4,90 	"/>
	<polygon fill="#480087" points="245.5,91.1 245.5,108 228.4,108 	"/>
	<polygon fill="#2F58F2" points="263.5,109.1 263.5,126 246.4,126 	"/>
	<polygon fill="#2F58F2" points="263.5,145.1 263.5,162 246.4,162 	"/>
	<polygon fill="#2F58F2" points="228.5,216.1 228.5,199 245.4,199 	"/>
	<polygon fill="#C1272D" points="245.5,199.1 245.5,216 228.4,216 	"/>
	<polygon fill="#480087" points="228.5,180.1 228.5,163 245.4,163 	"/>
	<polygon fill="#C1272D" points="245.5,163.1 245.5,180 228.4,180 	"/>
	<polygon fill="#480087" points="246.4,55 263.5,55 263.5,72.1 	"/>
	<polygon fill="#C1272D" points="228.4,55 245.5,55 245.5,72.1 	"/>
	<polygon fill="#2F58F2" points="246.4,73 263.5,73 263.5,90.1 	"/>
	<polygon fill="#C1272D" points="246.4,91 263.5,91 263.5,108.1 	"/>
	<polygon fill="#1B1464" points="228.4,145 245.5,145 245.5,162.1 	"/>
	<polygon fill="#480087" points="228.4,181 245.5,181 245.5,198.1 	"/>
	<polygon fill="#C1272D" points="228.4,109 245.5,109 245.5,126.1 	"/>
	<polygon fill="#2F58F2" points="228.4,127 245.5,127 245.5,144.1 	"/>
	<polygon fill="#1B1464" points="245.4,72 228.5,72 228.5,55.1 	"/>
	<polygon fill="#1B1464" points="263.4,90 246.5,90 246.5,73.1 	"/>
	<polygon fill="#480087" points="263.4,144 246.5,144 246.5,127.1 	"/>
	<polygon fill="#1B1464" points="263.4,180 246.5,180 246.5,163.1 	"/>
	<polygon fill="#C1272D" points="245.4,144 228.5,144 228.5,127.1 	"/>
	<polygon fill="#2F58F2" points="246.4,181 263.5,181 263.5,198.1 	"/>
	<polygon fill="#C1272D" points="263.4,198 246.5,198 246.5,181.1 	"/>
	<polygon fill="#1B1464" points="246.4,199 263.5,199 263.5,216.1 	"/>
</g>
<g id="Layer_8">
</g>
<g id="Layer_10">
	<g>
		<path d="M385.3,77h-10.9v44h8.8c8.3,0,13.2-3.6,13.2-14.9v-14C396.5,81.9,393.3,77,385.3,77z"/>
		<path d="M466.9,77h-10.5v44h8.4c8.3,0,13.6-3.6,13.6-14.9v-14C478.5,81.9,474.9,77,466.9,77z"/>
		<polygon points="1220.7,82 1210.1,154 1231.6,154 1221.1,82 		"/>
		<path d="M-1.5,0v253h1944V0H-1.5z M257.5,105h-21V89.8c0-10.2-4.4-14-11.5-14c-7.1,0-11.5,3.9-11.5,14v76.7
			c0,10.2,4.4,13.8,11.5,13.8c7.1,0,11.5-3.7,11.5-13.8V146h21v19.1c0,22.7-11.1,35.7-33,35.7s-33-13-33-35.7V91.3
			c0-22.7,11.1-35.7,33-35.7s33,13,33,35.7V105z M337.5,165.3c0,22.7-11.6,35.7-33.5,35.7s-33.5-13-33.5-35.7V57h22v109.8
			c0,10.1,4.4,13.8,11.5,13.8c7.1,0,11.5-3.7,11.5-13.8V57h22V165.3z M398.9,199c-1.2-3-2.5-5.6-2.5-17.2v-22.3
			c0-13.2-4-18.5-14.2-18.5h-7.8v58h-22V57h33.5c23.1,0,33.5,10.9,33.5,32.8V101c0,14.6-5,24-15,28.6v0.4c11,4.7,15,15.2,15,30V182
			c0,6.9,0,12,2.2,17H398.9z M480.5,199c-1.2-3-2.1-5.6-2.1-17.2v-22.3c0-13.2-4.4-18.5-14.6-18.5h-7.4v58h-23V57h34.1
			c23.1,0,32.9,10.9,32.9,32.8V101c0,14.6-5,24-14,28.6v0.4c11,4.7,14,15.2,14,30V182c0,6.9,0.6,12,2.8,17H480.5z M537.5,199h-22V57
			h22V199z M618.5,105h-21V89.8c0-10.2-4.4-14-11.5-14c-7.1,0-11.5,3.9-11.5,14v76.7c0,10.2,4.4,13.8,11.5,13.8
			c7.1,0,11.5-3.7,11.5-13.8V146h21v19.1c0,22.7-11.1,35.7-33,35.7s-33-13-33-35.7V91.3c0-22.7,11.1-35.7,33-35.7s33,13,33,35.7V105
			z M697.5,165.3c0,22.7-11.1,35.7-33,35.7s-33-13-33-35.7V57h22v109.8c0,10.1,4.4,13.8,11.5,13.8c7.1,0,11.5-3.7,11.5-13.8V57h21
			V165.3z M772.5,199h-59V57h22v122h37V199z M847.5,165.3c0,22.7-11.6,35.7-33.5,35.7s-33.5-13-33.5-35.7V57h23v109.8
			c0,10.1,4.4,13.8,11.5,13.8c7.1,0,11.5-3.7,11.5-13.8V57h21V165.3z M956.5,199h-21V97h-0.6l-15,102h-21.1L882.5,99h0v100h-20V57
			h31.2l16.2,101h0.4l15-101h31.2V199z M1053.4,199h-33.3L998.2,57h22.5l16.8,116h0.4l16.8-116h20.5L1053.4,199z M1108.5,199h-23V57
			h23V199z M1163.5,199h-22V77h-24V57h69v20h-23V199z M1238.5,199l-3.9-26h-27.4l-3.9,26h-20.5l22.7-142h32.7l22.7,142H1238.5z
			 M1332.5,77h-39v40h31v20h-31v42h39v20h-61V57h61V77z"/>
	</g>
</g>
<g id="Layer_9">
	<g>
		<path fill="none" stroke="#92C3F4" stroke-miterlimit="10" d="M257.7,146.4v19c0,22.8-11.4,35.9-33.4,35.9s-32.4-13-32.4-35.9
			V91.1c0-22.8,10.4-35.4,32.4-35.4s33.4,12.5,33.4,35.4v14.1h-21.2V89.7c0-10.2-4.5-14.1-11.6-14.1c-7.1,0-11.6,3.9-11.6,14.1v77.1
			c0,10.2,4.5,13.9,11.6,13.9c7.1,0,11.6-3.7,11.6-13.9v-20.4H257.7z"/>
	</g>
</g>
</svg>
