<?xml version="1.0" encoding="utf-8"?>
<!-- Generator: Adobe Illustrator 18.1.0, SVG Export Plug-In . SVG Version: 6.00 Build 0)  -->
<svg version="1.1" xmlns="http://www.w3.org/2000/svg" xmlns:xlink="http://www.w3.org/1999/xlink" x="0px" y="0px"
	 viewBox="0 0 1941.3 252.5" enable-background="new 0 0 1941.3 252.5" xml:space="preserve">
<g id="Layer_1">
	<polygon fill="#FFFFFF" points="1942.4,251.5 -1.2,251.3 -1.2,0 1942.4,0.2 	"/>
</g>
<g id="Layer_7">
	<path fill="none" stroke="#92C3F4" stroke-miterlimit="10" d="M1963.1-0.3"/>
	<line fill="none" stroke="#92C3F4" stroke-miterlimit="10" x1="192" y1="0" x2="192" y2="253"/>
	<line fill="none" stroke="#92C3F4" stroke-miterlimit="10" x1="210" y1="0" x2="210" y2="253"/>
	<line fill="none" stroke="#92C3F4" stroke-miterlimit="10" x1="228" y1="0" x2="228" y2="253"/>
	<line fill="none" stroke="#92C3F4" stroke-miterlimit="10" x1="246" y1="0" x2="246" y2="253"/>
	<line fill="none" stroke="#92C3F4" stroke-miterlimit="10" x1="264" y1="0" x2="264" y2="253"/>
	<line fill="none" stroke="#92C3F4" stroke-miterlimit="10" x1="282" y1="0" x2="282" y2="253"/>
	<line fill="none" stroke="#92C3F4" stroke-miterlimit="10" x1="300" y1="0" x2="300" y2="253"/>
	<line fill="none" stroke="#92C3F4" stroke-miterlimit="10" x1="318" y1="0" x2="318" y2="253"/>
	<line fill="none" stroke="#92C3F4" stroke-miterlimit="10" x1="336" y1="0" x2="336" y2="253"/>
	<line fill="none" stroke="#92C3F4" stroke-miterlimit="10" x1="354" y1="0" x2="354" y2="253"/>
	<line fill="none" stroke="#92C3F4" stroke-miterlimit="10" x1="372" y1="0" x2="372" y2="253"/>
	<line fill="none" stroke="#92C3F4" stroke-miterlimit="10" x1="390" y1="0" x2="390" y2="253"/>
	<line fill="none" stroke="#92C3F4" stroke-miterlimit="10" x1="408" y1="0" x2="408" y2="253"/>
	<line fill="none" stroke="#92C3F4" stroke-miterlimit="10" x1="426" y1="0" x2="426" y2="253"/>
	<line fill="none" stroke="#92C3F4" stroke-miterlimit="10" x1="444" y1="0" x2="444" y2="253"/>
	<line fill="none" stroke="#92C3F4" stroke-miterlimit="10" x1="462" y1="0" x2="462" y2="253"/>
	<line fill="none" stroke="#92C3F4" stroke-miterlimit="10" x1="480" y1="0" x2="480" y2="253"/>
	<line fill="none" stroke="#92C3F4" stroke-miterlimit="10" x1="498" y1="0" x2="498" y2="253"/>
	<line fill="none" stroke="#92C3F4" stroke-miterlimit="10" x1="516" y1="0" x2="516" y2="253"/>
	<line fill="none" stroke="#92C3F4" stroke-miterlimit="10" x1="534" y1="0" x2="534" y2="253"/>
	<line fill="none" stroke="#92C3F4" stroke-miterlimit="10" x1="552" y1="0" x2="552" y2="253"/>
	<line fill="none" stroke="#92C3F4" stroke-miterlimit="10" x1="570" y1="0" x2="570" y2="253"/>
	<line fill="none" stroke="#92C3F4" stroke-miterlimit="10" x1="588" y1="0" x2="588" y2="253"/>
	<line fill="none" stroke="#92C3F4" stroke-miterlimit="10" x1="606" y1="0" x2="606" y2="253"/>
	<line fill="none" stroke="#92C3F4" stroke-miterlimit="10" x1="624" y1="0" x2="624" y2="253"/>
	<line fill="none" stroke="#92C3F4" stroke-miterlimit="10" x1="642" y1="0" x2="642" y2="253"/>
	<line fill="none" stroke="#92C3F4" stroke-miterlimit="10" x1="660" y1="0" x2="660" y2="253"/>
	<line fill="none" stroke="#92C3F4" stroke-miterlimit="10" x1="678" y1="0" x2="678" y2="253"/>
	<line fill="none" stroke="#92C3F4" stroke-miterlimit="10" x1="696" y1="0" x2="696" y2="253"/>
	<line fill="none" stroke="#92C3F4" stroke-miterlimit="10" x1="714" y1="0" x2="714" y2="253"/>
	<line fill="none" stroke="#92C3F4" stroke-miterlimit="10" x1="732" y1="0" x2="732" y2="253"/>
	<line fill="none" stroke="#92C3F4" stroke-miterlimit="10" x1="750" y1="0" x2="750" y2="253"/>
	<line fill="none" stroke="#92C3F4" stroke-miterlimit="10" x1="768" y1="0" x2="768" y2="253"/>
	<line fill="none" stroke="#92C3F4" stroke-miterlimit="10" x1="786" y1="0" x2="786" y2="253"/>
	<line fill="none" stroke="#92C3F4" stroke-miterlimit="10" x1="804" y1="0" x2="804" y2="253"/>
	<line fill="none" stroke="#92C3F4" stroke-miterlimit="10" x1="822" y1="0" x2="822" y2="253"/>
	<line fill="none" stroke="#92C3F4" stroke-miterlimit="10" x1="840" y1="0" x2="840" y2="253"/>
	<line fill="none" stroke="#92C3F4" stroke-miterlimit="10" x1="858" y1="0" x2="858" y2="253"/>
	<line fill="none" stroke="#92C3F4" stroke-miterlimit="10" x1="876" y1="0" x2="876" y2="253"/>
	<line fill="none" stroke="#92C3F4" stroke-miterlimit="10" x1="894" y1="0" x2="894" y2="253"/>
	<line fill="none" stroke="#92C3F4" stroke-miterlimit="10" x1="912" y1="0" x2="912" y2="253"/>
	<line fill="none" stroke="#92C3F4" stroke-miterlimit="10" x1="930" y1="0" x2="930" y2="253"/>
	<line fill="none" stroke="#92C3F4" stroke-miterlimit="10" x1="948" y1="0" x2="948" y2="253"/>
	<line fill="none" stroke="#92C3F4" stroke-miterlimit="10" x1="966" y1="0" x2="966" y2="253"/>
	<line fill="none" stroke="#92C3F4" stroke-miterlimit="10" x1="984" y1="0" x2="984" y2="253"/>
	<line fill="none" stroke="#92C3F4" stroke-miterlimit="10" x1="1002" y1="0" x2="1002" y2="253"/>
	<line fill="none" stroke="#92C3F4" stroke-miterlimit="10" x1="1020" y1="0" x2="1020" y2="253"/>
	<line fill="none" stroke="#92C3F4" stroke-miterlimit="10" x1="1038" y1="0" x2="1038" y2="253"/>
	<line fill="none" stroke="#92C3F4" stroke-miterlimit="10" x1="1056" y1="0" x2="1056" y2="253"/>
	<line fill="none" stroke="#92C3F4" stroke-miterlimit="10" x1="1074" y1="0" x2="1074" y2="253"/>
	<line fill="none" stroke="#92C3F4" stroke-miterlimit="10" x1="1092" y1="0" x2="1092" y2="253"/>
	<line fill="none" stroke="#92C3F4" stroke-miterlimit="10" x1="1110" y1="0" x2="1110" y2="253"/>
	<line fill="none" stroke="#92C3F4" stroke-miterlimit="10" x1="1128" y1="0" x2="1128" y2="253"/>
	<line fill="none" stroke="#92C3F4" stroke-miterlimit="10" x1="1146" y1="0" x2="1146" y2="253"/>
	<line fill="none" stroke="#92C3F4" stroke-miterlimit="10" x1="1164" y1="0" x2="1164" y2="253"/>
	<line fill="none" stroke="#92C3F4" stroke-miterlimit="10" x1="1182" y1="0" x2="1182" y2="253"/>
	<line fill="none" stroke="#92C3F4" stroke-miterlimit="10" x1="1200" y1="0" x2="1200" y2="253"/>
	<line fill="none" stroke="#92C3F4" stroke-miterlimit="10" x1="1218" y1="0" x2="1218" y2="253"/>
	<line fill="none" stroke="#92C3F4" stroke-miterlimit="10" x1="1236" y1="0" x2="1236" y2="253"/>
	<line fill="none" stroke="#92C3F4" stroke-miterlimit="10" x1="1254" y1="0" x2="1254" y2="253"/>
	<line fill="none" stroke="#92C3F4" stroke-miterlimit="10" x1="1272" y1="0" x2="1272" y2="253"/>
	<line fill="none" stroke="#92C3F4" stroke-miterlimit="10" x1="1290" y1="0" x2="1290" y2="253"/>
	<line fill="none" stroke="#92C3F4" stroke-miterlimit="10" x1="1308" y1="0" x2="1308" y2="253"/>
	<line fill="none" stroke="#92C3F4" stroke-miterlimit="10" x1="1326" y1="0" x2="1326" y2="253"/>
	<line fill="none" stroke="#92C3F4" stroke-miterlimit="10" x1="1344" y1="0" x2="1344" y2="253"/>
	<line fill="none" stroke="#92C3F4" stroke-miterlimit="10" x1="1362" y1="0" x2="1362" y2="253"/>
	<line fill="none" stroke="#92C3F4" stroke-miterlimit="10" x1="1380" y1="0" x2="1380" y2="253"/>
	<line fill="none" stroke="#92C3F4" stroke-miterlimit="10" x1="1398" y1="0" x2="1398" y2="253"/>
	<line fill="none" stroke="#92C3F4" stroke-miterlimit="10" x1="1416" y1="0" x2="1416" y2="253"/>
	<line fill="none" stroke="#92C3F4" stroke-miterlimit="10" x1="1434" y1="0" x2="1434" y2="253"/>
	<line fill="none" stroke="#92C3F4" stroke-miterlimit="10" x1="1452" y1="0" x2="1452" y2="253"/>
	<line fill="none" stroke="#92C3F4" stroke-miterlimit="10" x1="1470" y1="0" x2="1470" y2="253"/>
	<line fill="none" stroke="#92C3F4" stroke-miterlimit="10" x1="1488" y1="0" x2="1488" y2="253"/>
	<line fill="none" stroke="#92C3F4" stroke-miterlimit="10" x1="1506" y1="0" x2="1506" y2="253"/>
	<line fill="none" stroke="#92C3F4" stroke-miterlimit="10" x1="1524" y1="0" x2="1524" y2="253"/>
	<line fill="none" stroke="#92C3F4" stroke-miterlimit="10" x1="1542" y1="0" x2="1542" y2="253"/>
	<line fill="none" stroke="#92C3F4" stroke-miterlimit="10" x1="1560" y1="0" x2="1560" y2="253"/>
	<line fill="none" stroke="#92C3F4" stroke-miterlimit="10" x1="1578" y1="0" x2="1578" y2="253"/>
	<line fill="none" stroke="#92C3F4" stroke-miterlimit="10" x1="1596" y1="0" x2="1596" y2="253"/>
	<line fill="none" stroke="#92C3F4" stroke-miterlimit="10" x1="1614" y1="0" x2="1614" y2="253"/>
	<line fill="none" stroke="#92C3F4" stroke-miterlimit="10" x1="1632" y1="0" x2="1632" y2="253"/>
	<line fill="none" stroke="#92C3F4" stroke-miterlimit="10" x1="1650" y1="0" x2="1650" y2="253"/>
	<line fill="none" stroke="#92C3F4" stroke-miterlimit="10" x1="1668" y1="0" x2="1668" y2="253"/>
	<line fill="none" stroke="#92C3F4" stroke-miterlimit="10" x1="1686" y1="0" x2="1686" y2="253"/>
	<line fill="none" stroke="#92C3F4" stroke-miterlimit="10" x1="1704" y1="0" x2="1704" y2="253"/>
	<line fill="none" stroke="#92C3F4" stroke-miterlimit="10" x1="1722" y1="0" x2="1722" y2="253"/>
	<line fill="none" stroke="#92C3F4" stroke-miterlimit="10" x1="1740" y1="0" x2="1740" y2="253"/>
	<line fill="none" stroke="#92C3F4" stroke-miterlimit="10" x1="-1.5" y1="18.5" x2="1942.5" y2="18.5"/>
	<line fill="none" stroke="#92C3F4" stroke-miterlimit="10" x1="-1.5" y1="36.5" x2="1942.5" y2="36.5"/>
	<line fill="none" stroke="#92C3F4" stroke-miterlimit="10" x1="-1.5" y1="54.5" x2="1942.5" y2="54.5"/>
	<line fill="none" stroke="#92C3F4" stroke-miterlimit="10" x1="-1.5" y1="72.5" x2="1942.5" y2="72.5"/>
	<line fill="none" stroke="#92C3F4" stroke-miterlimit="10" x1="-1.5" y1="90.5" x2="1942.5" y2="90.5"/>
	<line fill="none" stroke="#92C3F4" stroke-miterlimit="10" x1="-1.5" y1="0.5" x2="1942.5" y2="0.5"/>
	<line fill="none" stroke="#92C3F4" stroke-miterlimit="10" x1="-1.5" y1="108.5" x2="1942.5" y2="108.5"/>
	<line fill="none" stroke="#92C3F4" stroke-miterlimit="10" x1="-1.5" y1="126.5" x2="1942.5" y2="126.5"/>
	<line fill="none" stroke="#92C3F4" stroke-miterlimit="10" x1="-1.5" y1="144.5" x2="1942.5" y2="144.5"/>
	<line fill="none" stroke="#92C3F4" stroke-miterlimit="10" x1="-1.5" y1="162.5" x2="1942.5" y2="162.5"/>
	<line fill="none" stroke="#92C3F4" stroke-miterlimit="10" x1="-1.5" y1="180.5" x2="1942.5" y2="180.5"/>
	<line fill="none" stroke="#92C3F4" stroke-miterlimit="10" x1="-1.5" y1="198.5" x2="1942.5" y2="198.5"/>
	<line fill="none" stroke="#92C3F4" stroke-miterlimit="10" x1="-1.5" y1="216.5" x2="1942.5" y2="216.5"/>
	<line fill="none" stroke="#92C3F4" stroke-miterlimit="10" x1="-1.5" y1="234.5" x2="1942.5" y2="234.5"/>
	<line fill="none" stroke="#92C3F4" stroke-miterlimit="10" x1="-1.5" y1="252.5" x2="1942.5" y2="252.5"/>
	<path fill="none" stroke="#FF0000" stroke-miterlimit="10" d="M1948.6,198.6"/>
	<path fill="none" stroke="#000000" stroke-miterlimit="10" d="M1180,545.6"/>
	<line fill="none" stroke="#92C3F4" stroke-miterlimit="10" x1="48" y1="0" x2="48" y2="253"/>
	<line fill="none" stroke="#92C3F4" stroke-miterlimit="10" x1="66" y1="0" x2="66" y2="253"/>
	<line fill="none" stroke="#92C3F4" stroke-miterlimit="10" x1="84" y1="0" x2="84" y2="253"/>
	<line fill="none" stroke="#92C3F4" stroke-miterlimit="10" x1="102" y1="0" x2="102" y2="253"/>
	<line fill="none" stroke="#92C3F4" stroke-miterlimit="10" x1="120" y1="0" x2="120" y2="253"/>
	<line fill="none" stroke="#92C3F4" stroke-miterlimit="10" x1="138" y1="0" x2="138" y2="253"/>
	<line fill="none" stroke="#92C3F4" stroke-miterlimit="10" x1="156" y1="0" x2="156" y2="253"/>
	<line fill="none" stroke="#92C3F4" stroke-miterlimit="10" x1="174" y1="0" x2="174" y2="253"/>
	<path fill="none" stroke="#92C3F4" stroke-miterlimit="10" d="M1153.4-282.4"/>
	<path fill="none" stroke="#92C3F4" stroke-miterlimit="10" d="M-42.1,252.9"/>
	<path fill="none" stroke="#92C3F4" stroke-miterlimit="10" d="M-24.1,252.9"/>
	<path fill="none" stroke="#92C3F4" stroke-miterlimit="10" d="M-6.1,252.9"/>
	<line fill="none" stroke="#92C3F4" stroke-miterlimit="10" x1="12" y1="0" x2="12" y2="253"/>
	<line fill="none" stroke="#92C3F4" stroke-miterlimit="10" x1="30" y1="0" x2="30" y2="253"/>
	<line fill="none" stroke="#92C3F4" stroke-miterlimit="10" x1="1758" y1="0" x2="1758" y2="253"/>
	<line fill="none" stroke="#92C3F4" stroke-miterlimit="10" x1="1776" y1="0" x2="1776" y2="253"/>
	<line fill="none" stroke="#92C3F4" stroke-miterlimit="10" x1="1794" y1="0" x2="1794" y2="253"/>
	<line fill="none" stroke="#92C3F4" stroke-miterlimit="10" x1="1812" y1="0" x2="1812" y2="253"/>
	<line fill="none" stroke="#92C3F4" stroke-miterlimit="10" x1="1830" y1="0" x2="1830" y2="253"/>
	<line fill="none" stroke="#92C3F4" stroke-miterlimit="10" x1="1848" y1="0" x2="1848" y2="253"/>
	<line fill="none" stroke="#92C3F4" stroke-miterlimit="10" x1="1866" y1="0" x2="1866" y2="253"/>
	<line fill="none" stroke="#92C3F4" stroke-miterlimit="10" x1="1884" y1="0" x2="1884" y2="253"/>
	<line fill="none" stroke="#92C3F4" stroke-miterlimit="10" x1="1902" y1="0" x2="1902" y2="253"/>
	<line fill="none" stroke="#92C3F4" stroke-miterlimit="10" x1="1920" y1="0" x2="1920" y2="253"/>
	<line fill="none" stroke="#92C3F4" stroke-miterlimit="10" x1="1938" y1="0" x2="1938" y2="253"/>
	<path fill="none" stroke="#92C3F4" stroke-miterlimit="10" d="M1955.9,0.1"/>
	<path fill="none" stroke="#92C3F4" stroke-miterlimit="10" d="M1973.9,0.1"/>
</g>
<g id="Layer_17">
	<polygon fill="#FFFFFF" stroke="#92C3F4" stroke-miterlimit="10" points="400.9,54.6 418.9,54.6 418.9,71.6 418.9,72.6 400.9,72.6 
			"/>
	<path fill="#FFFFFF" stroke="#92C3F4" stroke-miterlimit="10" d="M418.9,72.6l-18-18L418.9,72.6z"/>
	<polygon fill="#FFFFFF" stroke="#92C3F4" stroke-miterlimit="10" points="418.9,54.6 436.9,54.6 436.9,71.6 436.9,72.6 418.9,72.6 
			"/>
	<path fill="#FFFFFF" stroke="#92C3F4" stroke-miterlimit="10" d="M436.9,72.6l-18-18L436.9,72.6z"/>
	<polygon fill="#FFFFFF" stroke="#92C3F4" stroke-miterlimit="10" points="418.9,72.6 418.9,90.6 401.9,90.6 400.9,90.6 400.9,72.6 
			"/>
	<path fill="#FFFFFF" stroke="#92C3F4" stroke-miterlimit="10" d="M400.9,90.6l18-18L400.9,90.6z"/>
	<polygon fill="#FFFFFF" stroke="#92C3F4" stroke-miterlimit="10" points="436.9,90.6 418.9,90.6 418.9,73.6 418.9,72.6 436.9,72.6 
			"/>
	<path fill="#FFFFFF" stroke="#92C3F4" stroke-miterlimit="10" d="M418.9,72.6l18,18L418.9,72.6z"/>
	<polygon fill="#FFFFFF" stroke="#92C3F4" stroke-miterlimit="10" points="418.9,90.6 418.9,108.6 401.9,108.6 400.9,108.6 
		400.9,90.6 	"/>
	<path fill="#FFFFFF" stroke="#92C3F4" stroke-miterlimit="10" d="M400.9,108.6l18-18L400.9,108.6z"/>
	<polygon fill="#FFFFFF" stroke="#92C3F4" stroke-miterlimit="10" points="418.9,90.6 436.9,90.6 436.9,107.6 436.9,108.6 
		418.9,108.6 	"/>
	<path fill="#FFFFFF" stroke="#92C3F4" stroke-miterlimit="10" d="M436.9,108.6l-18-18L436.9,108.6z"/>
	<polygon fill="#FFFFFF" stroke="#92C3F4" stroke-miterlimit="10" points="400.9,108.6 418.9,108.6 418.9,125.6 418.9,126.6 
		400.9,126.6 	"/>
	<path fill="#FFFFFF" stroke="#92C3F4" stroke-miterlimit="10" d="M418.9,126.6l-18-18L418.9,126.6z"/>
	<polygon fill="#FFFFFF" stroke="#92C3F4" stroke-miterlimit="10" points="418.9,126.6 418.9,108.6 435.9,108.6 436.9,108.6 
		436.9,126.6 	"/>
	<path fill="#FFFFFF" stroke="#92C3F4" stroke-miterlimit="10" d="M436.9,108.6l-18,18L436.9,108.6z"/>
	<polygon fill="#FFFFFF" stroke="#92C3F4" stroke-miterlimit="10" points="400.9,126.6 418.9,126.6 418.9,143.6 418.9,144.6 
		400.9,144.6 	"/>
	<path fill="#FFFFFF" stroke="#92C3F4" stroke-miterlimit="10" d="M418.9,144.6l-18-18L418.9,144.6z"/>
	<polygon fill="#FFFFFF" stroke="#92C3F4" stroke-miterlimit="10" points="418.9,126.6 436.9,126.6 436.9,143.6 436.9,144.6 
		418.9,144.6 	"/>
	<path fill="#FFFFFF" stroke="#92C3F4" stroke-miterlimit="10" d="M436.9,144.6l-18-18L436.9,144.6z"/>
	<polygon fill="#FFFFFF" stroke="#92C3F4" stroke-miterlimit="10" points="400.9,144.6 418.9,144.6 418.9,161.6 418.9,162.6 
		400.9,162.6 	"/>
	<path fill="#FFFFFF" stroke="#92C3F4" stroke-miterlimit="10" d="M418.9,162.6l-18-18L418.9,162.6z"/>
	<polygon fill="#FFFFFF" stroke="#92C3F4" stroke-miterlimit="10" points="436.9,144.6 436.9,162.6 419.9,162.6 418.9,162.6 
		418.9,144.6 	"/>
	<path fill="#FFFFFF" stroke="#92C3F4" stroke-miterlimit="10" d="M418.9,162.6l18-18L418.9,162.6z"/>
	<polygon fill="#FFFFFF" stroke="#92C3F4" stroke-miterlimit="10" points="400.9,180.6 400.9,162.6 417.9,162.6 418.9,162.6 
		418.9,180.6 	"/>
	<path fill="#FFFFFF" stroke="#92C3F4" stroke-miterlimit="10" d="M418.9,162.6l-18,18L418.9,162.6z"/>
	<polygon fill="#FFFFFF" stroke="#92C3F4" stroke-miterlimit="10" points="418.9,162.6 436.9,162.6 436.9,179.6 436.9,180.6 
		418.9,180.6 	"/>
	<path fill="#FFFFFF" stroke="#92C3F4" stroke-miterlimit="10" d="M436.9,180.6l-18-18L436.9,180.6z"/>
	<polygon fill="#FFFFFF" stroke="#92C3F4" stroke-miterlimit="10" points="400.9,180.6 418.9,180.6 418.9,197.6 418.9,198.6 
		400.9,198.6 	"/>
	<path fill="#FFFFFF" stroke="#92C3F4" stroke-miterlimit="10" d="M418.9,198.6l-18-18L418.9,198.6z"/>
	<polygon fill="#FFFFFF" stroke="#92C3F4" stroke-miterlimit="10" points="418.9,180.6 436.9,180.6 436.9,197.6 436.9,198.6 
		418.9,198.6 	"/>
	<path fill="#FFFFFF" stroke="#92C3F4" stroke-miterlimit="10" d="M436.9,198.6l-18-18L436.9,198.6z"/>
	<polygon fill="#FFFFFF" stroke="#92C3F4" stroke-miterlimit="10" points="418.9,198.6 418.9,216.6 401.9,216.6 400.9,216.6 
		400.9,198.6 	"/>
	<path fill="#FFFFFF" stroke="#92C3F4" stroke-miterlimit="10" d="M400.9,216.6l18-18L400.9,216.6z"/>
	<polygon fill="#FFFFFF" stroke="#92C3F4" stroke-miterlimit="10" points="418.9,198.6 436.9,198.6 436.9,215.6 436.9,216.6 
		418.9,216.6 	"/>
	<path fill="#FFFFFF" stroke="#92C3F4" stroke-miterlimit="10" d="M436.9,216.6l-18-18L436.9,216.6z"/>
	<polygon fill="#FFFFFF" stroke="#92C3F4" stroke-miterlimit="10" points="436.9,54.6 454.9,54.6 454.9,71.6 454.9,72.6 436.9,72.6 
			"/>
	<path fill="#FFFFFF" stroke="#92C3F4" stroke-miterlimit="10" d="M454.9,72.6l-18-18L454.9,72.6z"/>
	<polygon fill="#FFFFFF" stroke="#92C3F4" stroke-miterlimit="10" points="454.9,54.6 472.9,54.6 472.9,71.6 472.9,72.6 454.9,72.6 
			"/>
	<path fill="#FFFFFF" stroke="#92C3F4" stroke-miterlimit="10" d="M472.9,72.6l-18-18L472.9,72.6z"/>
	<polygon fill="#FFFFFF" stroke="#92C3F4" stroke-miterlimit="10" points="454.9,72.6 454.9,90.6 437.9,90.6 436.9,90.6 436.9,72.6 
			"/>
	<path fill="#FFFFFF" stroke="#92C3F4" stroke-miterlimit="10" d="M436.9,90.6l18-18L436.9,90.6z"/>
	<polygon fill="#FFFFFF" stroke="#92C3F4" stroke-miterlimit="10" points="472.9,90.6 454.9,90.6 454.9,73.6 454.9,72.6 472.9,72.6 
			"/>
	<path fill="#FFFFFF" stroke="#92C3F4" stroke-miterlimit="10" d="M454.9,72.6l18,18L454.9,72.6z"/>
	<polygon fill="#FFFFFF" stroke="#92C3F4" stroke-miterlimit="10" points="454.9,90.6 454.9,108.6 437.9,108.6 436.9,108.6 
		436.9,90.6 	"/>
	<path fill="#FFFFFF" stroke="#92C3F4" stroke-miterlimit="10" d="M436.9,108.6l18-18L436.9,108.6z"/>
	<polygon fill="#FFFFFF" stroke="#92C3F4" stroke-miterlimit="10" points="454.9,90.6 472.9,90.6 472.9,107.6 472.9,108.6 
		454.9,108.6 	"/>
	<path fill="#FFFFFF" stroke="#92C3F4" stroke-miterlimit="10" d="M472.9,108.6l-18-18L472.9,108.6z"/>
	<polygon fill="#FFFFFF" stroke="#92C3F4" stroke-miterlimit="10" points="436.9,108.6 454.9,108.6 454.9,125.6 454.9,126.6 
		436.9,126.6 	"/>
	<path fill="#FFFFFF" stroke="#92C3F4" stroke-miterlimit="10" d="M454.9,126.6l-18-18L454.9,126.6z"/>
	<polygon fill="#FFFFFF" stroke="#92C3F4" stroke-miterlimit="10" points="454.9,126.6 454.9,108.6 471.9,108.6 472.9,108.6 
		472.9,126.6 	"/>
	<path fill="#FFFFFF" stroke="#92C3F4" stroke-miterlimit="10" d="M472.9,108.6l-18,18L472.9,108.6z"/>
	<polygon fill="#FFFFFF" stroke="#92C3F4" stroke-miterlimit="10" points="436.9,126.6 454.9,126.6 454.9,143.6 454.9,144.6 
		436.9,144.6 	"/>
	<path fill="#FFFFFF" stroke="#92C3F4" stroke-miterlimit="10" d="M454.9,144.6l-18-18L454.9,144.6z"/>
	<polygon fill="#FFFFFF" stroke="#92C3F4" stroke-miterlimit="10" points="454.9,126.6 472.9,126.6 472.9,143.6 472.9,144.6 
		454.9,144.6 	"/>
	<path fill="#FFFFFF" stroke="#92C3F4" stroke-miterlimit="10" d="M472.9,144.6l-18-18L472.9,144.6z"/>
	<polygon fill="#FFFFFF" stroke="#92C3F4" stroke-miterlimit="10" points="436.9,144.6 454.9,144.6 454.9,161.6 454.9,162.6 
		436.9,162.6 	"/>
	<path fill="#FFFFFF" stroke="#92C3F4" stroke-miterlimit="10" d="M454.9,162.6l-18-18L454.9,162.6z"/>
	<polygon fill="#FFFFFF" stroke="#92C3F4" stroke-miterlimit="10" points="472.9,144.6 472.9,162.6 455.9,162.6 454.9,162.6 
		454.9,144.6 	"/>
	<path fill="#FFFFFF" stroke="#92C3F4" stroke-miterlimit="10" d="M454.9,162.6l18-18L454.9,162.6z"/>
	<polygon fill="#FFFFFF" stroke="#92C3F4" stroke-miterlimit="10" points="436.9,180.6 436.9,162.6 453.9,162.6 454.9,162.6 
		454.9,180.6 	"/>
	<path fill="#FFFFFF" stroke="#92C3F4" stroke-miterlimit="10" d="M454.9,162.6l-18,18L454.9,162.6z"/>
	<polygon fill="#FFFFFF" stroke="#92C3F4" stroke-miterlimit="10" points="454.9,162.6 472.9,162.6 472.9,179.6 472.9,180.6 
		454.9,180.6 	"/>
	<path fill="#FFFFFF" stroke="#92C3F4" stroke-miterlimit="10" d="M472.9,180.6l-18-18L472.9,180.6z"/>
	<polygon fill="#FFFFFF" stroke="#92C3F4" stroke-miterlimit="10" points="436.9,180.6 454.9,180.6 454.9,197.6 454.9,198.6 
		436.9,198.6 	"/>
	<path fill="#FFFFFF" stroke="#92C3F4" stroke-miterlimit="10" d="M454.9,198.6l-18-18L454.9,198.6z"/>
	<polygon fill="#FFFFFF" stroke="#92C3F4" stroke-miterlimit="10" points="454.9,180.6 472.9,180.6 472.9,197.6 472.9,198.6 
		454.9,198.6 	"/>
	<path fill="#FFFFFF" stroke="#92C3F4" stroke-miterlimit="10" d="M472.9,198.6l-18-18L472.9,198.6z"/>
	<polygon fill="#FFFFFF" stroke="#92C3F4" stroke-miterlimit="10" points="454.9,198.6 454.9,216.6 437.9,216.6 436.9,216.6 
		436.9,198.6 	"/>
	<path fill="#FFFFFF" stroke="#92C3F4" stroke-miterlimit="10" d="M436.9,216.6l18-18L436.9,216.6z"/>
	<polygon fill="#FFFFFF" stroke="#92C3F4" stroke-miterlimit="10" points="454.9,198.6 472.9,198.6 472.9,215.6 472.9,216.6 
		454.9,216.6 	"/>
	<path fill="#FFFFFF" stroke="#92C3F4" stroke-miterlimit="10" d="M472.9,216.6l-18-18L472.9,216.6z"/>
</g>
<g id="Layer_18">
	<polygon fill="#2F58F2" points="401.5,108.1 401.5,91 418.4,91 	"/>
	<polygon fill="#1B1464" points="419.5,126.1 419.5,109 436.4,109 	"/>
	<polygon fill="#C1272D" points="419.5,162.1 419.5,145 436.4,145 	"/>
	<polygon fill="#C1272D" points="418.5,73.1 418.5,90 401.4,90 	"/>
	<polygon fill="#480087" points="418.5,91.1 418.5,108 401.4,108 	"/>
	<polygon fill="#2F58F2" points="436.5,109.1 436.5,126 419.4,126 	"/>
	<polygon fill="#2F58F2" points="436.5,145.1 436.5,162 419.4,162 	"/>
	<polygon fill="#2F58F2" points="401.5,216.1 401.5,199 418.4,199 	"/>
	<polygon fill="#C1272D" points="418.5,199.1 418.5,216 401.4,216 	"/>
	<polygon fill="#480087" points="401.5,180.1 401.5,163 418.4,163 	"/>
	<polygon fill="#C1272D" points="418.5,163.1 418.5,180 401.4,180 	"/>
	<polygon fill="#480087" points="419.4,55 436.5,55 436.5,72.1 	"/>
	<polygon fill="#C1272D" points="401.4,55 418.5,55 418.5,72.1 	"/>
	<polygon fill="#2F58F2" points="419.4,73 436.5,73 436.5,90.1 	"/>
	<polygon fill="#C1272D" points="419.4,91 436.5,91 436.5,108.1 	"/>
	<polygon fill="#1B1464" points="401.4,145 418.5,145 418.5,162.1 	"/>
	<polygon fill="#480087" points="401.4,181 418.5,181 418.5,198.1 	"/>
	<polygon fill="#C1272D" points="401.4,109 418.5,109 418.5,126.1 	"/>
	<polygon fill="#2F58F2" points="401.4,127 418.5,127 418.5,144.1 	"/>
	<polygon fill="#1B1464" points="418.4,72 401.5,72 401.5,55.1 	"/>
	<polygon fill="#1B1464" points="436.4,90 419.5,90 419.5,73.1 	"/>
	<polygon fill="#480087" points="436.4,144 419.5,144 419.5,127.1 	"/>
	<polygon fill="#1B1464" points="436.4,180 419.5,180 419.5,163.1 	"/>
	<polygon fill="#C1272D" points="418.4,144 401.5,144 401.5,127.1 	"/>
	<polygon fill="#2F58F2" points="419.4,181 436.5,181 436.5,198.1 	"/>
	<polygon fill="#C1272D" points="436.4,198 419.5,198 419.5,181.1 	"/>
	<polygon fill="#1B1464" points="419.4,199 436.5,199 436.5,216.1 	"/>
	<polygon fill="#2F58F2" points="437.5,108.1 437.5,91 454.4,91 	"/>
	<polygon fill="#1B1464" points="455.5,126.1 455.5,109 472.4,109 	"/>
	<polygon fill="#C1272D" points="455.5,162.1 455.5,145 472.4,145 	"/>
	<polygon fill="#C1272D" points="454.5,73.1 454.5,90 437.4,90 	"/>
	<polygon fill="#480087" points="454.5,91.1 454.5,108 437.4,108 	"/>
	<polygon fill="#2F58F2" points="472.5,109.1 472.5,126 455.4,126 	"/>
	<polygon fill="#2F58F2" points="472.5,145.1 472.5,162 455.4,162 	"/>
	<polygon fill="#2F58F2" points="437.5,216.1 437.5,199 454.4,199 	"/>
	<polygon fill="#C1272D" points="454.5,199.1 454.5,216 437.4,216 	"/>
	<polygon fill="#480087" points="437.5,180.1 437.5,163 454.4,163 	"/>
	<polygon fill="#C1272D" points="454.5,163.1 454.5,180 437.4,180 	"/>
	<polygon fill="#480087" points="455.4,55 472.5,55 472.5,72.1 	"/>
	<polygon fill="#C1272D" points="437.4,55 454.5,55 454.5,72.1 	"/>
	<polygon fill="#2F58F2" points="455.4,73 472.5,73 472.5,90.1 	"/>
	<polygon fill="#C1272D" points="455.4,91 472.5,91 472.5,108.1 	"/>
	<polygon fill="#1B1464" points="437.4,145 454.5,145 454.5,162.1 	"/>
	<polygon fill="#480087" points="437.4,181 454.5,181 454.5,198.1 	"/>
	<polygon fill="#C1272D" points="437.4,109 454.5,109 454.5,126.1 	"/>
	<polygon fill="#2F58F2" points="437.4,127 454.5,127 454.5,144.1 	"/>
	<polygon fill="#1B1464" points="454.4,72 437.5,72 437.5,55.1 	"/>
	<polygon fill="#1B1464" points="472.4,90 455.5,90 455.5,73.1 	"/>
	<polygon fill="#480087" points="472.4,144 455.5,144 455.5,127.1 	"/>
	<polygon fill="#1B1464" points="472.4,180 455.5,180 455.5,163.1 	"/>
	<polygon fill="#C1272D" points="454.4,144 437.5,144 437.5,127.1 	"/>
	<polygon fill="#2F58F2" points="455.4,181 472.5,181 472.5,198.1 	"/>
	<polygon fill="#C1272D" points="472.4,198 455.5,198 455.5,181.1 	"/>
	<polygon fill="#1B1464" points="455.4,199 472.5,199 472.5,216.1 	"/>
</g>
<g id="Layer_10">
	<g>
		<path d="M594.3,77h-10.9v44h8.8c8.3,0,13.2-3.6,13.2-14.9v-14C605.5,81.9,602.3,77,594.3,77z"/>
		<path d="M675.9,77h-10.5v44h8.4c8.3,0,13.6-3.6,13.6-14.9v-14C687.5,81.9,683.9,77,675.9,77z"/>
		<polygon points="1429.7,82 1419.1,154 1440.6,154 1430.1,82 		"/>
	</g>
</g>
<g id="Layer_11">
	<g>
		<path d="M207.5,0L207.5,0H-2.5v253h210l0,0h1737V0H207.5z M466.5,105h-21V89.8c0-10.2-4.4-14-11.5-14c-7.1,0-11.5,3.9-11.5,14
			v76.7c0,10.2,4.4,13.8,11.5,13.8c7.1,0,11.5-3.7,11.5-13.8V146h21v19.1c0,22.7-11.1,35.7-33,35.7s-33-13-33-35.7V91.3
			c0-22.7,11.1-35.7,33-35.7s33,13,33,35.7V105z M546.5,165.3c0,22.7-11.6,35.7-33.5,35.7c-21.9,0-33.5-13-33.5-35.7V57h22v109.8
			c0,10.1,4.4,13.8,11.5,13.8c7.1,0,11.5-3.7,11.5-13.8V57h22V165.3z M607.9,199c-1.2-3-2.5-5.6-2.5-17.2v-22.3
			c0-13.2-4-18.5-14.2-18.5h-7.8v58h-22V57h33.5c23.1,0,33.5,10.9,33.5,32.8V101c0,14.6-5,24-15,28.6v0.4c11,4.7,15,15.2,15,30V182
			c0,6.9,0,12,2.2,17H607.9z M689.5,199c-1.2-3-2.1-5.6-2.1-17.2v-22.3c0-13.2-4.4-18.5-14.6-18.5h-7.4v58h-23V57h34.1
			c23.1,0,32.9,10.9,32.9,32.8V101c0,14.6-5,24-14,28.6v0.4c11,4.7,14,15.2,14,30V182c0,6.9,0.6,12,2.8,17H689.5z M746.5,199h-22V57
			h22V199z M827.5,105h-21V89.8c0-10.2-4.4-14-11.5-14c-7.1,0-11.5,3.9-11.5,14v76.7c0,10.2,4.4,13.8,11.5,13.8
			c7.1,0,11.5-3.7,11.5-13.8V146h21v19.1c0,22.7-11.1,35.7-33,35.7s-33-13-33-35.7V91.3c0-22.7,11.1-35.7,33-35.7s33,13,33,35.7V105
			z M906.5,165.3c0,22.7-11.1,35.7-33,35.7s-33-13-33-35.7V57h22v109.8c0,10.1,4.4,13.8,11.5,13.8c7.1,0,11.5-3.7,11.5-13.8V57h21
			V165.3z M981.5,199h-59V57h22v122h37V199z M1056.5,165.3c0,22.7-11.6,35.7-33.5,35.7c-21.9,0-33.5-13-33.5-35.7V57h23v109.8
			c0,10.1,4.4,13.8,11.5,13.8c7.1,0,11.5-3.7,11.5-13.8V57h21V165.3z M1165.5,199h-21V97h-0.6l-15,102h-21.1l-16.2-100v100h-20V57
			h31.2l16.2,101h0.4l15-101h31.2V199z M1262.4,199h-33.3l-21.9-142h22.5l16.8,116h0.4l16.8-116h20.5L1262.4,199z M1317.5,199h-23
			V57h23V199z M1372.5,199h-22V77h-24V57h69v20h-23V199z M1447.5,199l-3.9-26h-27.4l-3.9,26h-20.5l22.7-142h32.7l22.7,142H1447.5z
			 M1541.5,77h-39v40h31v20h-31v42h39v20h-61V57h61V77z"/>
		<polygon points="1091.5,99 1091.5,99 1091.5,99 		"/>
	</g>
</g>
<g id="Layer_9">
	<g>
		<path fill="none" stroke="#92C3F4" stroke-miterlimit="10" d="M466.7,146.4v19c0,22.8-11.4,35.9-33.4,35.9s-32.4-13-32.4-35.9
			V91.1c0-22.8,10.4-35.4,32.4-35.4s33.4,12.5,33.4,35.4v14.1h-21.2V89.7c0-10.2-4.5-14.1-11.6-14.1c-7.1,0-11.6,3.9-11.6,14.1v77.1
			c0,10.2,4.5,13.9,11.6,13.9c7.1,0,11.6-3.7,11.6-13.9v-20.4H466.7z"/>
	</g>
</g>
</svg>
