<?xml version="1.0" encoding="utf-8"?>
<!-- Generator: Adobe Illustrator 18.1.0, SVG Export Plug-In . SVG Version: 6.00 Build 0)  -->
<svg version="1.1" xmlns="http://www.w3.org/2000/svg" xmlns:xlink="http://www.w3.org/1999/xlink" x="0px" y="0px"
	 viewBox="0 0 1943.7 725.4" enable-background="new 0 0 1943.7 725.4" xml:space="preserve">
<g id="Layer_1">
	<polygon fill="#FFFFFF" points="1943.7,725.4 0,725 0,55.2 1943.7,55.7 	"/>
</g>
<g id="Layer_7">
	<path fill="none" stroke="#92C3F4" stroke-miterlimit="10" d="M1964.3,54.9"/>
	<line fill="none" stroke="#92C3F4" stroke-miterlimit="10" x1="193.2" y1="55.2" x2="193.2" y2="729.2"/>
	<line fill="none" stroke="#92C3F4" stroke-miterlimit="10" x1="211.2" y1="55.2" x2="211.2" y2="729.2"/>
	<line fill="none" stroke="#92C3F4" stroke-miterlimit="10" x1="229.2" y1="55.2" x2="229.2" y2="729.2"/>
	<line fill="none" stroke="#92C3F4" stroke-miterlimit="10" x1="247.2" y1="55.2" x2="247.2" y2="729.2"/>
	<line fill="none" stroke="#92C3F4" stroke-miterlimit="10" x1="265.2" y1="55.2" x2="265.2" y2="729.2"/>
	<line fill="none" stroke="#92C3F4" stroke-miterlimit="10" x1="283.2" y1="55.2" x2="283.2" y2="729.2"/>
	<line fill="none" stroke="#92C3F4" stroke-miterlimit="10" x1="301.2" y1="55.2" x2="301.2" y2="729.2"/>
	<line fill="none" stroke="#92C3F4" stroke-miterlimit="10" x1="319.2" y1="55.2" x2="319.2" y2="729.2"/>
	<line fill="none" stroke="#92C3F4" stroke-miterlimit="10" x1="337.2" y1="55.2" x2="337.2" y2="729.2"/>
	<line fill="none" stroke="#92C3F4" stroke-miterlimit="10" x1="355.2" y1="55.2" x2="355.2" y2="729.2"/>
	<line fill="none" stroke="#92C3F4" stroke-miterlimit="10" x1="373.2" y1="55.2" x2="373.2" y2="729.2"/>
	<line fill="none" stroke="#92C3F4" stroke-miterlimit="10" x1="391.2" y1="55.2" x2="391.2" y2="729.2"/>
	<line fill="none" stroke="#92C3F4" stroke-miterlimit="10" x1="409.2" y1="55.2" x2="409.2" y2="729.2"/>
	<line fill="none" stroke="#92C3F4" stroke-miterlimit="10" x1="427.2" y1="55.2" x2="427.2" y2="729.2"/>
	<line fill="none" stroke="#92C3F4" stroke-miterlimit="10" x1="445.2" y1="55.2" x2="445.2" y2="729.2"/>
	<line fill="none" stroke="#92C3F4" stroke-miterlimit="10" x1="463.2" y1="55.2" x2="463.2" y2="729.2"/>
	<line fill="none" stroke="#92C3F4" stroke-miterlimit="10" x1="481.2" y1="55.2" x2="481.2" y2="729.2"/>
	<line fill="none" stroke="#92C3F4" stroke-miterlimit="10" x1="499.2" y1="55.2" x2="499.2" y2="729.2"/>
	<line fill="none" stroke="#92C3F4" stroke-miterlimit="10" x1="517.2" y1="55.2" x2="517.2" y2="729.2"/>
	<line fill="none" stroke="#92C3F4" stroke-miterlimit="10" x1="535.2" y1="55.2" x2="535.2" y2="729.2"/>
	<line fill="none" stroke="#92C3F4" stroke-miterlimit="10" x1="553.2" y1="55.2" x2="553.2" y2="729.2"/>
	<line fill="none" stroke="#92C3F4" stroke-miterlimit="10" x1="571.2" y1="55.2" x2="571.2" y2="729.2"/>
	<line fill="none" stroke="#92C3F4" stroke-miterlimit="10" x1="589.2" y1="55.2" x2="589.2" y2="729.2"/>
	<line fill="none" stroke="#92C3F4" stroke-miterlimit="10" x1="607.2" y1="55.2" x2="607.2" y2="729.2"/>
	<line fill="none" stroke="#92C3F4" stroke-miterlimit="10" x1="625.2" y1="55.2" x2="625.2" y2="729.2"/>
	<line fill="none" stroke="#92C3F4" stroke-miterlimit="10" x1="643.2" y1="55.2" x2="643.2" y2="729.2"/>
	<line fill="none" stroke="#92C3F4" stroke-miterlimit="10" x1="661.2" y1="55.2" x2="661.2" y2="729.2"/>
	<line fill="none" stroke="#92C3F4" stroke-miterlimit="10" x1="679.2" y1="55.2" x2="679.2" y2="729.2"/>
	<line fill="none" stroke="#92C3F4" stroke-miterlimit="10" x1="697.2" y1="55.2" x2="697.2" y2="729.2"/>
	<line fill="none" stroke="#92C3F4" stroke-miterlimit="10" x1="715.2" y1="55.2" x2="715.2" y2="729.2"/>
	<line fill="none" stroke="#92C3F4" stroke-miterlimit="10" x1="733.2" y1="55.2" x2="733.2" y2="729.2"/>
	<line fill="none" stroke="#92C3F4" stroke-miterlimit="10" x1="751.2" y1="55.2" x2="751.2" y2="729.2"/>
	<line fill="none" stroke="#92C3F4" stroke-miterlimit="10" x1="769.2" y1="55.2" x2="769.2" y2="729.2"/>
	<line fill="none" stroke="#92C3F4" stroke-miterlimit="10" x1="787.2" y1="55.2" x2="787.2" y2="729.2"/>
	<line fill="none" stroke="#92C3F4" stroke-miterlimit="10" x1="805.2" y1="55.2" x2="805.2" y2="729.2"/>
	<line fill="none" stroke="#92C3F4" stroke-miterlimit="10" x1="823.2" y1="55.2" x2="823.2" y2="729.2"/>
	<line fill="none" stroke="#92C3F4" stroke-miterlimit="10" x1="841.2" y1="55.2" x2="841.2" y2="729.2"/>
	<line fill="none" stroke="#92C3F4" stroke-miterlimit="10" x1="859.2" y1="55.2" x2="859.2" y2="729.2"/>
	<line fill="none" stroke="#92C3F4" stroke-miterlimit="10" x1="877.2" y1="55.2" x2="877.2" y2="729.2"/>
	<line fill="none" stroke="#92C3F4" stroke-miterlimit="10" x1="895.2" y1="55.2" x2="895.2" y2="729.2"/>
	<line fill="none" stroke="#92C3F4" stroke-miterlimit="10" x1="913.2" y1="55.2" x2="913.2" y2="729.2"/>
	<line fill="none" stroke="#92C3F4" stroke-miterlimit="10" x1="931.2" y1="55.2" x2="931.2" y2="729.2"/>
	<line fill="none" stroke="#92C3F4" stroke-miterlimit="10" x1="949.2" y1="55.2" x2="949.2" y2="729.2"/>
	<line fill="none" stroke="#92C3F4" stroke-miterlimit="10" x1="967.2" y1="55.2" x2="967.2" y2="729.2"/>
	<line fill="none" stroke="#92C3F4" stroke-miterlimit="10" x1="985.2" y1="55.2" x2="985.2" y2="729.2"/>
	<line fill="none" stroke="#92C3F4" stroke-miterlimit="10" x1="1003.2" y1="55.2" x2="1003.2" y2="729.2"/>
	<line fill="none" stroke="#92C3F4" stroke-miterlimit="10" x1="1021.2" y1="55.2" x2="1021.2" y2="729.2"/>
	<line fill="none" stroke="#92C3F4" stroke-miterlimit="10" x1="1039.2" y1="55.2" x2="1039.2" y2="729.2"/>
	<line fill="none" stroke="#92C3F4" stroke-miterlimit="10" x1="1057.2" y1="55.2" x2="1057.2" y2="729.2"/>
	<line fill="none" stroke="#92C3F4" stroke-miterlimit="10" x1="1075.2" y1="55.2" x2="1075.2" y2="729.2"/>
	<line fill="none" stroke="#92C3F4" stroke-miterlimit="10" x1="1093.2" y1="55.2" x2="1093.2" y2="729.2"/>
	<line fill="none" stroke="#92C3F4" stroke-miterlimit="10" x1="1111.2" y1="55.2" x2="1111.2" y2="729.2"/>
	<line fill="none" stroke="#92C3F4" stroke-miterlimit="10" x1="1129.2" y1="55.2" x2="1129.2" y2="729.2"/>
	<line fill="none" stroke="#92C3F4" stroke-miterlimit="10" x1="1147.2" y1="55.2" x2="1147.2" y2="729.2"/>
	<line fill="none" stroke="#92C3F4" stroke-miterlimit="10" x1="1165.2" y1="55.2" x2="1165.2" y2="729.2"/>
	<line fill="none" stroke="#92C3F4" stroke-miterlimit="10" x1="1183.2" y1="55.2" x2="1183.2" y2="729.2"/>
	<line fill="none" stroke="#92C3F4" stroke-miterlimit="10" x1="1201.2" y1="55.2" x2="1201.2" y2="729.2"/>
	<line fill="none" stroke="#92C3F4" stroke-miterlimit="10" x1="1219.2" y1="55.2" x2="1219.2" y2="729.2"/>
	<line fill="none" stroke="#92C3F4" stroke-miterlimit="10" x1="1237.2" y1="55.2" x2="1237.2" y2="729.2"/>
	<line fill="none" stroke="#92C3F4" stroke-miterlimit="10" x1="1255.2" y1="55.2" x2="1255.2" y2="729.2"/>
	<line fill="none" stroke="#92C3F4" stroke-miterlimit="10" x1="1273.2" y1="55.2" x2="1273.2" y2="729.2"/>
	<line fill="none" stroke="#92C3F4" stroke-miterlimit="10" x1="1291.2" y1="55.2" x2="1291.2" y2="729.2"/>
	<line fill="none" stroke="#92C3F4" stroke-miterlimit="10" x1="1309.2" y1="55.2" x2="1309.2" y2="729.2"/>
	<line fill="none" stroke="#92C3F4" stroke-miterlimit="10" x1="1327.2" y1="55.2" x2="1327.2" y2="729.2"/>
	<line fill="none" stroke="#92C3F4" stroke-miterlimit="10" x1="1345.2" y1="55.2" x2="1345.2" y2="729.2"/>
	<line fill="none" stroke="#92C3F4" stroke-miterlimit="10" x1="1363.2" y1="55.2" x2="1363.2" y2="729.2"/>
	<line fill="none" stroke="#92C3F4" stroke-miterlimit="10" x1="1381.2" y1="55.2" x2="1381.2" y2="729.2"/>
	<line fill="none" stroke="#92C3F4" stroke-miterlimit="10" x1="1399.2" y1="55.2" x2="1399.2" y2="729.2"/>
	<line fill="none" stroke="#92C3F4" stroke-miterlimit="10" x1="1417.2" y1="55.2" x2="1417.2" y2="729.2"/>
	<line fill="none" stroke="#92C3F4" stroke-miterlimit="10" x1="1435.2" y1="55.2" x2="1435.2" y2="729.2"/>
	<line fill="none" stroke="#92C3F4" stroke-miterlimit="10" x1="1453.2" y1="55.2" x2="1453.2" y2="729.2"/>
	<line fill="none" stroke="#92C3F4" stroke-miterlimit="10" x1="1471.2" y1="55.2" x2="1471.2" y2="729.2"/>
	<line fill="none" stroke="#92C3F4" stroke-miterlimit="10" x1="1489.2" y1="55.2" x2="1489.2" y2="729.2"/>
	<line fill="none" stroke="#92C3F4" stroke-miterlimit="10" x1="1507.2" y1="55.2" x2="1507.2" y2="729.2"/>
	<line fill="none" stroke="#92C3F4" stroke-miterlimit="10" x1="1525.2" y1="55.2" x2="1525.2" y2="729.2"/>
	<line fill="none" stroke="#92C3F4" stroke-miterlimit="10" x1="1543.2" y1="55.2" x2="1543.2" y2="729.2"/>
	<line fill="none" stroke="#92C3F4" stroke-miterlimit="10" x1="1561.2" y1="55.2" x2="1561.2" y2="729.2"/>
	<line fill="none" stroke="#92C3F4" stroke-miterlimit="10" x1="1579.2" y1="55.2" x2="1579.2" y2="729.2"/>
	<line fill="none" stroke="#92C3F4" stroke-miterlimit="10" x1="1597.2" y1="55.2" x2="1597.2" y2="729.2"/>
	<line fill="none" stroke="#92C3F4" stroke-miterlimit="10" x1="1615.2" y1="55.2" x2="1615.2" y2="729.2"/>
	<line fill="none" stroke="#92C3F4" stroke-miterlimit="10" x1="1633.2" y1="55.2" x2="1633.2" y2="729.2"/>
	<line fill="none" stroke="#92C3F4" stroke-miterlimit="10" x1="1651.2" y1="55.2" x2="1651.2" y2="729.2"/>
	<line fill="none" stroke="#92C3F4" stroke-miterlimit="10" x1="1669.2" y1="55.2" x2="1669.2" y2="729.2"/>
	<line fill="none" stroke="#92C3F4" stroke-miterlimit="10" x1="1687.2" y1="55.2" x2="1687.2" y2="729.2"/>
	<line fill="none" stroke="#92C3F4" stroke-miterlimit="10" x1="1705.2" y1="55.2" x2="1705.2" y2="729.2"/>
	<line fill="none" stroke="#92C3F4" stroke-miterlimit="10" x1="1723.2" y1="55.2" x2="1723.2" y2="729.2"/>
	<line fill="none" stroke="#92C3F4" stroke-miterlimit="10" x1="1741.2" y1="55.2" x2="1741.2" y2="729.2"/>
	<line fill="none" stroke="#92C3F4" stroke-miterlimit="10" x1="-0.3" y1="73.7" x2="1943.7" y2="73.7"/>
	<line fill="none" stroke="#92C3F4" stroke-miterlimit="10" x1="-0.3" y1="91.7" x2="1943.7" y2="91.7"/>
	<line fill="none" stroke="#92C3F4" stroke-miterlimit="10" x1="-0.3" y1="109.7" x2="1943.7" y2="109.7"/>
	<line fill="none" stroke="#92C3F4" stroke-miterlimit="10" x1="-0.3" y1="127.7" x2="1943.7" y2="127.7"/>
	<line fill="none" stroke="#92C3F4" stroke-miterlimit="10" x1="-0.3" y1="145.7" x2="1943.7" y2="145.7"/>
	<line fill="none" stroke="#92C3F4" stroke-miterlimit="10" x1="-0.3" y1="55.7" x2="1943.7" y2="55.7"/>
	<line fill="none" stroke="#92C3F4" stroke-miterlimit="10" x1="-0.3" y1="163.7" x2="1943.7" y2="163.7"/>
	<line fill="none" stroke="#92C3F4" stroke-miterlimit="10" x1="-0.3" y1="181.7" x2="1943.7" y2="181.7"/>
	<line fill="none" stroke="#92C3F4" stroke-miterlimit="10" x1="-0.3" y1="199.7" x2="1943.7" y2="199.7"/>
	<line fill="none" stroke="#92C3F4" stroke-miterlimit="10" x1="-0.3" y1="217.7" x2="1943.7" y2="217.7"/>
	<line fill="none" stroke="#92C3F4" stroke-miterlimit="10" x1="-0.3" y1="235.7" x2="1943.7" y2="235.7"/>
	<line fill="none" stroke="#92C3F4" stroke-miterlimit="10" x1="-0.3" y1="253.7" x2="1943.7" y2="253.7"/>
	<line fill="none" stroke="#92C3F4" stroke-miterlimit="10" x1="-0.3" y1="271.7" x2="1943.7" y2="271.7"/>
	<line fill="none" stroke="#92C3F4" stroke-miterlimit="10" x1="-0.3" y1="289.7" x2="1943.7" y2="289.7"/>
	<line fill="none" stroke="#92C3F4" stroke-miterlimit="10" x1="-0.3" y1="307.7" x2="1943.7" y2="307.7"/>
	<line fill="none" stroke="#92C3F4" stroke-miterlimit="10" x1="-0.3" y1="325.7" x2="1943.7" y2="325.7"/>
	<line fill="none" stroke="#92C3F4" stroke-miterlimit="10" x1="-0.3" y1="343.7" x2="1943.7" y2="343.7"/>
	<line fill="none" stroke="#92C3F4" stroke-miterlimit="10" x1="-0.3" y1="361.7" x2="1943.7" y2="361.7"/>
	<line fill="none" stroke="#92C3F4" stroke-miterlimit="10" x1="-0.3" y1="379.7" x2="1943.7" y2="379.7"/>
	<line fill="none" stroke="#92C3F4" stroke-miterlimit="10" x1="-0.3" y1="397.7" x2="1943.7" y2="397.7"/>
	<line fill="none" stroke="#92C3F4" stroke-miterlimit="10" x1="-0.3" y1="415.7" x2="1943.7" y2="415.7"/>
	<line fill="none" stroke="#92C3F4" stroke-miterlimit="10" x1="-0.3" y1="433.7" x2="1943.7" y2="433.7"/>
	<line fill="none" stroke="#92C3F4" stroke-miterlimit="10" x1="-0.3" y1="451.7" x2="1943.7" y2="451.7"/>
	<line fill="none" stroke="#92C3F4" stroke-miterlimit="10" x1="-0.3" y1="469.7" x2="1943.7" y2="469.7"/>
	<line fill="none" stroke="#92C3F4" stroke-miterlimit="10" x1="-0.3" y1="487.7" x2="1943.7" y2="487.7"/>
	<line fill="none" stroke="#92C3F4" stroke-miterlimit="10" x1="-0.3" y1="505.7" x2="1943.7" y2="505.7"/>
	<line fill="none" stroke="#92C3F4" stroke-miterlimit="10" x1="-0.3" y1="523.7" x2="1943.7" y2="523.7"/>
	<line fill="none" stroke="#92C3F4" stroke-miterlimit="10" x1="-0.3" y1="541.7" x2="1943.7" y2="541.7"/>
	<line fill="none" stroke="#92C3F4" stroke-miterlimit="10" x1="-0.3" y1="559.7" x2="1943.7" y2="559.7"/>
	<line fill="none" stroke="#92C3F4" stroke-miterlimit="10" x1="-0.3" y1="577.7" x2="1943.7" y2="577.7"/>
	<line fill="none" stroke="#92C3F4" stroke-miterlimit="10" x1="-0.3" y1="595.7" x2="1943.7" y2="595.7"/>
	<line fill="none" stroke="#92C3F4" stroke-miterlimit="10" x1="-0.3" y1="613.7" x2="1943.7" y2="613.7"/>
	<line fill="none" stroke="#92C3F4" stroke-miterlimit="10" x1="-0.3" y1="631.7" x2="1943.7" y2="631.7"/>
	<line fill="none" stroke="#92C3F4" stroke-miterlimit="10" x1="-0.3" y1="649.7" x2="1943.7" y2="649.7"/>
	<line fill="none" stroke="#92C3F4" stroke-miterlimit="10" x1="-0.3" y1="667.7" x2="1943.7" y2="667.7"/>
	<rect x="661.8" y="470.4" width="17.1" height="17.2"/>
	<rect x="661.8" y="434.5" width="17.1" height="17.2"/>
	<rect x="643.8" y="416.4" width="17.1" height="17.2"/>
	<rect x="625.7" y="434.5" width="17.1" height="17.2"/>
	<rect x="643.8" y="488.5" width="17.1" height="17.2"/>
	<rect x="607.8" y="488.5" width="17.1" height="17.2"/>
	<rect x="589.7" y="470.4" width="17.1" height="17.2"/>
	<rect x="625.7" y="470.4" width="17.1" height="17.2"/>
	<rect x="679.8" y="452.4" width="17.1" height="17.2"/>
	<rect x="571.8" y="452.4" width="17.1" height="17.2"/>
	<rect x="607.8" y="416.4" width="17.1" height="17.2"/>
	<rect x="553.7" y="470.4" width="17.1" height="17.2"/>
	<rect x="571.8" y="488.5" width="17.1" height="17.2"/>
	<rect x="553.7" y="506.4" width="17.1" height="17.2"/>
	<rect x="571.8" y="524.5" width="17.1" height="17.2"/>
	<rect x="589.7" y="542.3" width="17.1" height="17.2"/>
	<rect x="607.8" y="560.3" width="17.1" height="17.2"/>
	<rect x="625.7" y="542.3" width="17.1" height="17.2"/>
	<rect x="643.8" y="560.3" width="17.1" height="17.2"/>
	<rect x="661.8" y="542.3" width="17.1" height="17.2"/>
	<rect x="679.8" y="524.5" width="17.1" height="17.2"/>
	<rect x="733.8" y="344.3" width="17.1" height="17.2"/>
	<rect x="751.8" y="362.3" width="17.1" height="17.2"/>
	<rect x="733.8" y="380.4" width="17.1" height="17.2"/>
	<rect x="751.8" y="398.5" width="17.1" height="17.2"/>
	<rect x="733.8" y="416.4" width="17.1" height="17.2"/>
	<rect x="751.8" y="434.5" width="17.1" height="17.2"/>
	<rect x="733.8" y="452.4" width="17.1" height="17.2"/>
	<rect x="751.8" y="470.4" width="17.1" height="17.2"/>
	<rect x="733.8" y="488.5" width="17.1" height="17.2"/>
	<rect x="751.8" y="506.4" width="17.1" height="17.2"/>
	<rect x="733.8" y="524.5" width="17.1" height="17.2"/>
	<rect x="751.8" y="542.3" width="17.1" height="17.2"/>
	<rect x="733.8" y="560.3" width="17.1" height="17.2"/>
	<rect x="769.8" y="560.3" width="17.1" height="17.2"/>
	<rect x="787.7" y="542.3" width="17.1" height="17.2"/>
	<rect x="805.9" y="560.3" width="17.1" height="17.2"/>
	<rect x="823.7" y="542.3" width="17.1" height="17.2"/>
	<rect x="841.7" y="524.5" width="17.1" height="17.2"/>
	<rect x="823.7" y="506.4" width="17.1" height="17.2"/>
	<rect x="841.7" y="488.5" width="17.1" height="17.2"/>
	<rect x="823.7" y="470.4" width="17.1" height="17.2"/>
	<rect x="805.9" y="452.4" width="17.1" height="17.2"/>
	<rect x="787.7" y="470.4" width="17.1" height="17.2"/>
	<rect x="769.8" y="488.5" width="17.1" height="17.2"/>
	<rect x="589.7" y="434.5" width="17.1" height="17.2"/>
	<rect x="265.9" y="416.4" width="17.1" height="17.2"/>
	<rect x="283.9" y="470.4" width="17.1" height="17.2"/>
	<rect x="247.8" y="434.5" width="17.1" height="17.2"/>
	<rect x="265.9" y="452.4" width="17.1" height="17.2"/>
	<rect x="247.8" y="470.4" width="17.1" height="17.2"/>
	<rect x="265.9" y="488.5" width="17.1" height="17.2"/>
	<rect x="283.9" y="506.4" width="17.1" height="17.2"/>
	<rect x="301.7" y="524.5" width="17.1" height="17.2"/>
	<rect x="319.7" y="542.3" width="17.1" height="17.2"/>
	<rect x="337.9" y="560.3" width="17.1" height="17.2"/>
	<rect x="355.8" y="542.3" width="17.1" height="17.2"/>
	<rect x="391.8" y="542.3" width="17.1" height="17.2"/>
	<rect x="409.8" y="560.3" width="17.1" height="17.2"/>
	<rect x="427.8" y="542.3" width="17.1" height="17.2"/>
	<rect x="445.7" y="524.5" width="17.1" height="17.2"/>
	<rect x="463.8" y="506.4" width="17.1" height="17.2"/>
	<rect x="355.8" y="506.4" width="17.1" height="17.2"/>
	<rect x="391.8" y="506.4" width="17.1" height="17.2"/>
	<rect x="373.8" y="488.5" width="17.1" height="17.2"/>
	<rect x="373.8" y="524.5" width="17.1" height="17.2"/>
	<rect x="481.8" y="488.5" width="17.1" height="17.2"/>
	<rect x="463.8" y="470.4" width="17.1" height="17.2"/>
	<rect x="499.7" y="434.5" width="17.1" height="17.2"/>
	<rect x="481.8" y="416.4" width="17.1" height="17.2"/>
	<rect x="499.7" y="470.4" width="17.1" height="17.2"/>
	<rect x="481.8" y="452.4" width="17.1" height="17.2"/>
	<path fill="none" stroke="#FF0000" stroke-miterlimit="10" d="M1949.8,253.8"/>
	<g>
		<ellipse transform="matrix(0.9568 0.2908 -0.2908 0.9568 189.086 -349.7987)" cx="1271.6" cy="461.4" rx="11.6" ry="12.7"/>
		
			<ellipse transform="matrix(0.9568 0.2908 -0.2908 0.9568 189.0854 -349.7979)" fill="none" stroke="#000000" stroke-width="0.5" stroke-miterlimit="10" cx="1271.6" cy="461.4" rx="11.6" ry="12.7"/>
	</g>
	<path fill="none" stroke="#000000" stroke-width="4" stroke-miterlimit="10" d="M1428.8,487.7c-5,7.2-53.9,93.2-53.9,93.2"/>
	<path fill="none" stroke="#000000" stroke-width="4" stroke-miterlimit="10" d="M1352.4,518.9c0,0-15.7,30.7-35.6,38.2
		c-19.6,7.4-31.4-7.3-26.8-22.2c13-41.9,73.3-44,73.3-44s-71.5,167.7-96.8,160.4c-44.3-12.8,148.7-161.5,200.6-161.5
		c39.4,0-71.4,88.5-19.6,88.5c42.5,0,55.9-34,55.9-34"/>
	<path fill="none" stroke="#000000" stroke-width="4" stroke-miterlimit="10" d="M1021.7,488.8c-73.6,1.9-83.6,88.8-46.6,88.8
		s135.3-162.7,100.7-179.2c-34.6-16.5-82.9,179.9-42.8,179.2c20.1-0.3,36.8-35.6,36.8-35.6c24.6,19.3,82.2-20.9,62.3-44.1
		c-35.8-41.8-102.6,91.8-38.3,78.9c36.4-7.3,106.4-85.4,106.4-85.4s17.3,86.3-20.7,86.3s-27-33.8-27-33.8s67.8,46,112.7-55.1
		c0,0-51.6,89.3-4.3,89.3c42.5,0,78.2-37.8,78.2-37.8"/>
	<path fill="none" stroke="#000000" stroke-miterlimit="10" d="M1181.2,600.8"/>
	<path fill="none" stroke="#000000" stroke-width="4" stroke-miterlimit="10" d="M1503.3,544.1c21.1,13.4,84.7-25.8,62-48.3
		c-36.4-36.2-101.4,89.9-36.4,82.4c41-4.7,100.7-88.4,100.7-88.4c8.3,1.9,34.6,0.6,34.6,0.6s-58.3,87.5-21.5,87.5
		c22.2,0,37.5-35.9,37.5-35.9"/>
	<circle fill="#0000FF" stroke="#0000FF" stroke-width="0.5" stroke-miterlimit="10" cx="950" cy="490" r="1.7"/>
	<circle fill="#0000FF" stroke="#0000FF" stroke-width="0.5" stroke-miterlimit="10" cx="993.5" cy="579.6" r="1.7"/>
	<circle fill="#0000FF" stroke="#0000FF" stroke-miterlimit="10" cx="1012.9" cy="577.9" r="1.7"/>
	<circle fill="#0000FF" stroke="#0000FF" stroke-width="0.5" stroke-miterlimit="10" cx="1053.5" cy="577.9" r="1.7"/>
	<circle fill="#0000FF" stroke="#0000FF" stroke-width="0.5" stroke-miterlimit="10" cx="1030.6" cy="590.2" r="1.7"/>
	<circle fill="#0000FF" stroke="#0000FF" stroke-width="0.5" stroke-miterlimit="10" cx="1080.5" cy="486.5" r="1.7"/>
	<circle fill="#0000FF" stroke="#0000FF" stroke-width="0.5" stroke-miterlimit="10" cx="1153.6" cy="522.5" r="1.7"/>
	<circle fill="#0000FF" stroke="#0000FF" stroke-width="0.5" stroke-miterlimit="10" cx="1097.6" cy="457.5" r="1.7"/>
	<circle fill="#0000FF" stroke="#0000FF" stroke-width="0.5" stroke-miterlimit="10" cx="1110.7" cy="414.7" r="1.7"/>
	<circle fill="#0000FF" stroke="#0000FF" stroke-width="0.5" stroke-miterlimit="10" cx="1041.9" cy="381.2" r="1.7"/>
	<circle fill="#0000FF" stroke="#0000FF" stroke-width="0.5" stroke-miterlimit="10" cx="1095.8" cy="562" r="1.7"/>
	<circle fill="#0000FF" stroke="#0000FF" stroke-width="0.5" stroke-miterlimit="10" cx="1131.1" cy="569.1" r="1.7"/>
	<circle fill="#0000FF" stroke="#0000FF" stroke-width="0.5" stroke-miterlimit="10" cx="1143.5" cy="579.6" r="1.7"/>
	<circle fill="#0000FF" stroke="#0000FF" stroke-width="0.5" stroke-miterlimit="10" cx="1214" cy="579.6" r="1.7"/>
	<circle fill="#0000FF" stroke="#0000FF" stroke-width="0.5" stroke-miterlimit="10" cx="1219.3" cy="577.9" r="1.7"/>
	<circle fill="#0000FF" stroke="#0000FF" stroke-width="0.5" stroke-miterlimit="10" cx="1222.8" cy="593.7" r="1.7"/>
	<circle fill="#0000FF" stroke="#0000FF" stroke-width="0.5" stroke-miterlimit="10" cx="1224.6" cy="639.6" r="1.7"/>
	<circle fill="#0000FF" stroke="#0000FF" stroke-width="0.5" stroke-miterlimit="10" cx="1291.7" cy="657.8" r="1.5"/>
	<circle fill="#0000FF" stroke="#0000FF" stroke-width="0.5" stroke-miterlimit="10" cx="1397.4" cy="577.9" r="1.7"/>
	<circle fill="#0000FF" stroke="#0000FF" stroke-width="0.5" stroke-miterlimit="10" cx="1425.6" cy="494.5" r="1.7"/>
	<circle fill="#0000FF" stroke="#0000FF" stroke-width="0.5" stroke-miterlimit="10" cx="1416.8" cy="487.2" r="1.7"/>
	<circle fill="#0000FF" stroke="#0000FF" stroke-width="0.5" stroke-miterlimit="10" cx="1438" cy="476.9" r="1.7"/>
	<circle fill="#0000FF" stroke="#0000FF" stroke-width="0.5" stroke-miterlimit="10" cx="1506.8" cy="487.2" r="1.7"/>
	<circle fill="#0000FF" stroke="#0000FF" stroke-width="0.5" stroke-miterlimit="10" cx="1531.5" cy="461" r="1.7"/>
	<circle fill="#0000FF" stroke="#0000FF" stroke-width="0.5" stroke-miterlimit="10" cx="1589.7" cy="519.2" r="1.7"/>
	<circle fill="#0000FF" stroke="#0000FF" stroke-width="0.5" stroke-miterlimit="10" cx="1524.4" cy="556.7" r="1.7"/>
	<circle fill="#0000FF" stroke="#0000FF" stroke-width="0.5" stroke-miterlimit="10" cx="1570.3" cy="574.3" r="1.7"/>
	<circle fill="#0000FF" stroke="#0000FF" stroke-width="0.5" stroke-miterlimit="10" cx="1607.3" cy="577.9" r="1.7"/>
	<circle fill="#0000FF" stroke="#0000FF" stroke-width="0.5" stroke-miterlimit="10" cx="1665.5" cy="577.9" r="1.7"/>
	<circle fill="#0000FF" stroke="#0000FF" stroke-width="0.5" stroke-miterlimit="10" cx="1639" cy="492.5" r="1.7"/>
	<circle fill="#0000FF" stroke="#0000FF" stroke-width="0.5" stroke-miterlimit="10" cx="1490.9" cy="577.9" r="1.7"/>
	<circle fill="#0000FF" stroke="#0000FF" stroke-width="0.5" stroke-miterlimit="10" cx="1466.2" cy="584.9" r="1.7"/>
	<circle fill="#0000FF" stroke="#0000FF" stroke-width="0.5" stroke-miterlimit="10" cx="1303.9" cy="577.9" r="1.7"/>
	<circle fill="#0000FF" stroke="#0000FF" stroke-width="0.5" stroke-miterlimit="10" cx="1298.7" cy="563.8" r="1.7"/>
	<circle fill="#0000FF" stroke="#0000FF" stroke-width="0.5" stroke-miterlimit="10" cx="1286.3" cy="549.7" r="1.7"/>
	<circle fill="#0000FF" stroke="#0000FF" stroke-width="0.5" stroke-miterlimit="10" cx="1303.9" cy="488.5" r="1.7"/>
	<circle fill="#0000FF" stroke="#0000FF" stroke-width="0.5" stroke-miterlimit="10" cx="1337.5" cy="549.7" r="1.7"/>
	<circle fill="#0000FF" stroke="#0000FF" stroke-width="0.5" stroke-miterlimit="10" cx="938.9" cy="577.9" r="1.7"/>
	<rect x="1072.7" y="395.4" fill="#0000FF" width="5.4" height="5.4"/>
	<rect x="972.2" y="575.1" fill="#0000FF" width="5.4" height="5.4"/>
	<rect x="1030.2" y="575.1" fill="#0000FF" width="5.4" height="5.4"/>
	<rect x="1019.9" y="485.7" fill="#0000FF" width="5.4" height="5.4"/>
	<g>
		<ellipse fill="#0000FF" stroke="#0000FF" stroke-miterlimit="10" cx="1268.4" cy="447.1" rx="0.5" ry="0.5"/>
		<ellipse fill="#0000FF" stroke="#0000FF" stroke-miterlimit="10" cx="1282.4" cy="451.3" rx="0.5" ry="0.5"/>
		<ellipse fill="#0000FF" stroke="#0000FF" stroke-miterlimit="10" cx="1285.2" cy="458.2" rx="0.5" ry="0.5"/>
		<ellipse fill="#0000FF" stroke="#0000FF" stroke-miterlimit="10" cx="1280.3" cy="472.6" rx="0.5" ry="0.5"/>
		<ellipse fill="#0000FF" stroke="#0000FF" stroke-miterlimit="10" cx="1275.4" cy="476.1" rx="0.5" ry="0.5"/>
		<ellipse fill="#0000FF" stroke="#0000FF" stroke-miterlimit="10" cx="1261.5" cy="471.9" rx="0.5" ry="0.5"/>
		<ellipse fill="#0000FF" stroke="#0000FF" stroke-miterlimit="10" cx="1257.3" cy="466.4" rx="0.5" ry="0.5"/>
		<ellipse fill="#0000FF" stroke="#0000FF" stroke-miterlimit="10" cx="1262.9" cy="451.3" rx="0.5" ry="0.5"/>
		<line fill="none" stroke="#0000FF" stroke-miterlimit="10" x1="1262.5" y1="451.5" x2="1257.5" y2="466.3"/>
		<line fill="none" stroke="#0000FF" stroke-miterlimit="10" x1="1285.6" y1="457.8" x2="1280.6" y2="472.7"/>
		<line fill="none" stroke="#0000FF" stroke-miterlimit="10" x1="1275.6" y1="475.8" x2="1261.7" y2="471.8"/>
		<line fill="none" stroke="#0000FF" stroke-miterlimit="10" x1="1282" y1="451.2" x2="1268.1" y2="447.2"/>
		<rect x="1274.8" y="448.6" fill="#0000FF" width="1.7" height="1.7"/>
		<rect x="1282.3" y="464.3" fill="#0000FF" width="1.7" height="1.7"/>
		<rect x="1267.6" y="472.9" fill="#0000FF" width="1.7" height="1.7"/>
		<rect x="1259.7" y="457.5" fill="#0000FF" width="1.7" height="1.7"/>
	</g>
	<rect x="1262.2" y="487.4" fill="#0000FF" width="5.4" height="5.4"/>
	<rect x="1361.3" y="488.2" fill="#0000FF" width="5.4" height="5.4"/>
	<rect x="1197.9" y="487.2" fill="#0000FF" width="5.4" height="5.4"/>
	<rect x="1130.5" y="496.4" fill="#0000FF" width="5.4" height="5.4"/>
	<rect x="1176" y="575.2" fill="#0000FF" width="5.4" height="5.4"/>
	<rect x="1150.1" y="538.6" fill="#0000FF" width="5.4" height="5.6"/>
	<rect x="1091.4" y="574" fill="#0000FF" width="5.4" height="5.4"/>
	<rect x="1069" y="541.3" fill="#0000FF" width="5.4" height="5.4"/>
	<rect x="1258.9" y="576.1" fill="#0000FF" width="5.4" height="5.4"/>
	<rect x="1287.6" y="531.3" fill="#0000FF" width="5.4" height="5.4"/>
	<rect x="1501.3" y="541.5" fill="#0000FF" width="5.4" height="5.4"/>
	<rect x="1562.8" y="492.7" fill="#0000FF" width="5.4" height="5.4"/>
	<rect x="1423.3" y="486.7" fill="#0000FF" width="5.4" height="5.4"/>
	<rect x="1662.9" y="487.5" fill="#0000FF" width="5.4" height="5.4"/>
	<rect x="1526.9" y="575.5" fill="#0000FF" width="5.4" height="5.4"/>
	<rect x="1678.2" y="539.8" fill="#0000FF" width="5.4" height="5.4"/>
	<rect x="1445.2" y="575.5" fill="#0000FF" width="5.4" height="5.4"/>
	<rect x="1639.5" y="575.4" fill="#0000FF" width="5.4" height="5.4"/>
	<rect x="1464.9" y="486.9" fill="#0000FF" width="5.4" height="5.4"/>
	<rect x="1372.8" y="577" fill="#0000FF" width="5.4" height="5.4"/>
	<rect x="1350.1" y="515.1" fill="#0000FF" width="5.4" height="5.4"/>
	<rect x="1337" y="537.3" fill="#0000FF" width="5.4" height="5.4"/>
	<rect x="1314.7" y="554.7" fill="#0000FF" width="5.4" height="5.4"/>
	<rect x="1625.5" y="487.5" fill="#0000FF" width="5.4" height="5.4"/>
	<rect x="1264.1" y="648.9" fill="#0000FF" width="4.7" height="4.7"/>
	<line fill="none" stroke="#0000FF" stroke-width="2" stroke-miterlimit="10" x1="1609.3" y1="578.4" x2="1666" y2="578.6"/>
	<line fill="none" stroke="#0000FF" stroke-width="2" stroke-miterlimit="10" x1="1465.4" y1="585.9" x2="1571.9" y2="573.6"/>
	<line fill="none" stroke="#0000FF" stroke-width="2" stroke-miterlimit="10" x1="1396.3" y1="578" x2="1491.4" y2="578"/>
	<line fill="none" stroke="#0000FF" stroke-width="2" stroke-miterlimit="10" x1="1297.9" y1="565" x2="1338" y2="549.5"/>
	<line fill="none" stroke="#0000FF" stroke-width="2" stroke-miterlimit="10" x1="1286.8" y1="549.6" x2="1304" y2="490.3"/>
	<line fill="none" stroke="#0000FF" stroke-width="2" stroke-miterlimit="10" x1="1224.3" y1="639.5" x2="1292" y2="657.9"/>
	<line fill="none" stroke="#0000FF" stroke-width="2" stroke-miterlimit="10" x1="1222.8" y1="593.2" x2="1265.9" y2="490.2"/>
	<line fill="none" stroke="#0000FF" stroke-width="2" stroke-miterlimit="10" x1="1218.3" y1="579.1" x2="1303.9" y2="578.9"/>
	<line fill="none" stroke="#0000FF" stroke-width="2" stroke-miterlimit="10" x1="1143.5" y1="579.1" x2="1214" y2="578.9"/>
	<line fill="none" stroke="#0000FF" stroke-width="2" stroke-miterlimit="10" x1="1030.2" y1="589.8" x2="1130.4" y2="570"/>
	<line fill="none" stroke="#0000FF" stroke-width="2" stroke-miterlimit="10" x1="940.2" y1="578.8" x2="1013" y2="578.6"/>
	<line fill="none" stroke="#0000FF" stroke-width="2" stroke-miterlimit="10" x1="994.8" y1="579.3" x2="1053.3" y2="578.2"/>
	<line fill="none" stroke="#0000FF" stroke-width="2" stroke-miterlimit="10" x1="1097.6" y1="457.1" x2="1152.6" y2="520.9"/>
	<line fill="none" stroke="#0000FF" stroke-width="2" stroke-miterlimit="10" x1="1070.6" y1="542.9" x2="1095.6" y2="561.7"/>
	<line fill="none" stroke="#0000FF" stroke-width="2" stroke-miterlimit="10" x1="1042.4" y1="381.9" x2="1110.7" y2="415.3"/>
	<line fill="none" stroke="#0000FF" stroke-width="2" stroke-miterlimit="10" x1="949.9" y1="490.8" x2="1081.1" y2="486.7"/>
	<line fill="none" stroke="#0000FF" stroke-width="2" stroke-miterlimit="10" x1="1504.5" y1="544.5" x2="1525.3" y2="557.9"/>
	<line fill="none" stroke="#0000FF" stroke-width="2" stroke-miterlimit="10" x1="1530.4" y1="460.7" x2="1589.6" y2="519.2"/>
	<line fill="none" stroke="#0000FF" stroke-width="2" stroke-miterlimit="10" x1="1416.5" y1="488" x2="1507.4" y2="487.9"/>
	<line fill="none" stroke="#0000FF" stroke-width="2" stroke-miterlimit="10" x1="1425.9" y1="494.8" x2="1437.1" y2="477.7"/>
	<line fill="none" stroke="#0000FF" stroke-width="2" stroke-miterlimit="10" x1="1628.7" y1="491" x2="1640.5" y2="491.8"/>
	<line fill="none" stroke="#92C3F4" stroke-miterlimit="10" x1="49.2" y1="55.2" x2="49.2" y2="729.2"/>
	<line fill="none" stroke="#92C3F4" stroke-miterlimit="10" x1="67.2" y1="55.2" x2="67.2" y2="729.2"/>
	<line fill="none" stroke="#92C3F4" stroke-miterlimit="10" x1="85.2" y1="55.2" x2="85.2" y2="729.2"/>
	<line fill="none" stroke="#92C3F4" stroke-miterlimit="10" x1="103.2" y1="55.2" x2="103.2" y2="729.2"/>
	<line fill="none" stroke="#92C3F4" stroke-miterlimit="10" x1="121.2" y1="55.2" x2="121.2" y2="729.2"/>
	<line fill="none" stroke="#92C3F4" stroke-miterlimit="10" x1="139.2" y1="55.2" x2="139.2" y2="729.2"/>
	<line fill="none" stroke="#92C3F4" stroke-miterlimit="10" x1="157.2" y1="55.2" x2="157.2" y2="729.2"/>
	<line fill="none" stroke="#92C3F4" stroke-miterlimit="10" x1="175.2" y1="55.2" x2="175.2" y2="729.2"/>
	<path fill="none" stroke="#92C3F4" stroke-miterlimit="10" d="M1154.7-227.2"/>
	<path fill="none" stroke="#92C3F4" stroke-miterlimit="10" d="M-40.8,668.3"/>
	<path fill="none" stroke="#92C3F4" stroke-miterlimit="10" d="M-22.8,668.3"/>
	<path fill="none" stroke="#92C3F4" stroke-miterlimit="10" d="M-4.8,668.3"/>
	<line fill="none" stroke="#92C3F4" stroke-miterlimit="10" x1="13.2" y1="55.2" x2="13.2" y2="729.2"/>
	<line fill="none" stroke="#92C3F4" stroke-miterlimit="10" x1="31.2" y1="55.2" x2="31.2" y2="729.2"/>
	<line fill="none" stroke="#92C3F4" stroke-miterlimit="10" x1="1759.2" y1="55.2" x2="1759.2" y2="729.2"/>
	<line fill="none" stroke="#92C3F4" stroke-miterlimit="10" x1="1777.2" y1="55.2" x2="1777.2" y2="729.2"/>
	<line fill="none" stroke="#92C3F4" stroke-miterlimit="10" x1="1795.2" y1="55.2" x2="1795.2" y2="729.2"/>
	<line fill="none" stroke="#92C3F4" stroke-miterlimit="10" x1="1813.2" y1="55.2" x2="1813.2" y2="729.2"/>
	<line fill="none" stroke="#92C3F4" stroke-miterlimit="10" x1="1831.2" y1="55.2" x2="1831.2" y2="729.2"/>
	<line fill="none" stroke="#92C3F4" stroke-miterlimit="10" x1="1849.2" y1="55.2" x2="1849.2" y2="729.2"/>
	<line fill="none" stroke="#92C3F4" stroke-miterlimit="10" x1="1867.2" y1="55.2" x2="1867.2" y2="729.2"/>
	<line fill="none" stroke="#92C3F4" stroke-miterlimit="10" x1="1885.2" y1="55.2" x2="1885.2" y2="729.2"/>
	<line fill="none" stroke="#92C3F4" stroke-miterlimit="10" x1="1903.2" y1="55.2" x2="1903.2" y2="729.2"/>
	<line fill="none" stroke="#92C3F4" stroke-miterlimit="10" x1="1921.2" y1="55.2" x2="1921.2" y2="729.2"/>
	<line fill="none" stroke="#92C3F4" stroke-miterlimit="10" x1="1939.2" y1="55.2" x2="1939.2" y2="729.2"/>
	<path fill="none" stroke="#92C3F4" stroke-miterlimit="10" d="M1957.2,55.3"/>
	<path fill="none" stroke="#92C3F4" stroke-miterlimit="10" d="M1975.2,55.3"/>
	<line fill="none" stroke="#92C3F4" stroke-miterlimit="10" x1="-0.3" y1="685.7" x2="1943.7" y2="685.7"/>
	<line fill="none" stroke="#92C3F4" stroke-miterlimit="10" x1="-0.3" y1="703.7" x2="1943.7" y2="703.7"/>
	<line fill="none" stroke="#92C3F4" stroke-miterlimit="10" x1="-0.3" y1="721.7" x2="1943.7" y2="721.7"/>
	<line fill="none" stroke="#92C3F4" stroke-miterlimit="10" x1="0.7" y1="721.7" x2="1944.7" y2="721.7"/>
</g>
<g id="Layer_16">
	<g>
		<polygon points="1303.5,81.2 1292.9,153.2 1314.5,153.2 1303.9,81.2 		"/>
		<polygon points="701.2,82.2 690.6,154.2 712.2,154.2 701.6,82.2 		"/>
		<path d="M545.6,77.2h-10.9v44h8.9c8.3,0,13.1-3.8,13.1-15.2V92C556.7,81.8,553.6,77.2,545.6,77.2z"/>
		<polygon points="291.6,82.2 281,154.2 302.6,154.2 292,82.2 		"/>
		<path d="M464.4,77.2h-12.7v102h12.7c7.1,0,11.3-3.7,11.3-13.9V91.2C475.7,81,471.5,77.2,464.4,77.2z"/>
		<polygon points="1671.7,141.3 1671.7,141 1671.7,141.3 		"/>
		<polygon points="393,142.3 392.7,141.2 392.7,142.3 		"/>
		<path d="M1572.2,75.3c-7.1,0-11.5,3.9-11.5,14v77c0,10.2,4.4,14,11.5,14c7.1,0,11.5-3.9,11.5-14v-77
			C1583.7,79.2,1579.3,75.3,1572.2,75.3z"/>
		<path d="M-1.3,0.2v254h1945V0.2H-1.3z M309.5,199.2l-3.9-26h-27.5l-3.9,26h-20.6l22.8-143h32.8l22.8,143H309.5z M412.7,199.2
			h-22.4l-27.5-103h-1.1v103h-20v-143h28.6l22.4,85v-85h20V199.2z M497.7,164.3c0,22.8-10.5,34.9-32.9,34.9h-36.1v-143h36.1
			c22.4,0,32.9,13.2,32.9,36V164.3z M559.3,199.2c-1.2-4-2.6-5.6-2.6-17.2v-22.4c0-13.2-4-18.4-14.1-18.4h-7.9v58h-23v-143h34.5
			c23.2,0,32.5,11.6,32.5,33.5V101c0,14.7-4,24-14,28.7v0.4c11,4.7,15,15.3,15,30.1v22c0,6.9,0.1,12,2.4,17H559.3z M654.7,77.2h-38
			v39h30v21h-30v42h38v20h-61v-143h61V77.2z M719.1,199.2l-3.9-26h-27.5l-3.9,26h-20.6l22.8-143h32.8l22.8,143H719.1z M1029.1,199.2
			h-29.7l-7.9-76H991l-7.9,76h-30.7l-15.9-143h21.8l11.8,112h0.4l10.6-112h21.6l11,113h0.4l11.4-113h19.5L1029.1,199.2z
			 M1077.7,199.2h-22v-143h22V199.2z M1153.7,199.2h-59v-143h22v122h37V199.2z M1222.7,199.2h-59v-143h22v122h37V199.2z
			 M1254.7,199.2h-22v-143h22V199.2z M1321.4,199.2l-3.9-26H1290l-3.9,26h-20.6l22.8-143h32.8l22.8,143H1321.4z M1447.7,199.2h-21
			v-103h-0.1l-15.1,103h-21.2l-16.3-101h-0.4v101h-20v-143h31.6l16.3,101h0.4l15.1-101h30.6V199.2z M1494.3,200.7
			c-22,0-33.5-13-33.5-35.8v-8.7h21v10.1c0,10.2,4.7,13.8,11.9,13.8c7.1,0,11.7-3.7,11.7-13.8c0-10.4-4.4-18.1-19.1-30.9
			c-18.7-16.5-24.6-28.3-24.6-44.6c0-22.8,10.8-35.8,32.6-35.8c21.8,0,32.6,13,32.6,35.8v4.5h-21v-5.9c0-10.2-3.7-14-10.8-14
			c-7.1,0-11,3.9-11,14c0,10.4,4.6,18.1,19.2,30.9c18.7,16.5,24.6,28.3,24.6,44.6C1527.7,187.7,1516.3,200.7,1494.3,200.7z
			 M1606.7,164.9c0,22.8-12,35.8-34,35.8s-34-13-34-35.8V90.8c0-22.8,12-35.8,34-35.8s34,13,34,35.8V164.9z M1691.7,199.2h-22.6
			l-27.5-104h-0.9v104h-20v-143h28.4l22.6,84.8V56.2h20V199.2z"/>
	</g>
</g>
<g id="Layer_6">
	<g>
		<g id="XMLID_2_">
			<g>
				<polygon fill="#C1272D" points="812.2,71.9 812.2,72.8 794.2,54.8 812.2,54.8 				"/>
				<polygon fill="#1B1464" points="812.2,72.8 794.2,72.8 794.2,54.8 				"/>
			</g>
			<g>
				<polygon fill="none" stroke="#92C3F4" stroke-miterlimit="10" points="794.2,54.8 812.2,54.8 812.2,71.9 812.2,72.8 794.2,72.8 
									"/>
				<line fill="none" stroke="#92C3F4" stroke-miterlimit="10" x1="794.2" y1="54.8" x2="812.2" y2="72.8"/>
			</g>
		</g>
		<g id="XMLID_4_">
			<g>
				<polygon fill="#480087" points="830.2,71.9 830.2,72.8 812.2,54.8 830.2,54.8 				"/>
				<polygon fill="#FFFFFF" points="830.2,72.8 812.2,72.8 812.2,54.8 				"/>
			</g>
			<g>
				<polygon fill="none" stroke="#92C3F4" stroke-miterlimit="10" points="812.2,54.8 830.2,54.8 830.2,71.9 830.2,72.8 812.2,72.8 
									"/>
				<line fill="none" stroke="#92C3F4" stroke-miterlimit="10" x1="812.2" y1="54.8" x2="830.2" y2="72.8"/>
			</g>
		</g>
		<g id="XMLID_1_">
			<g>
				<polygon fill="#C1272D" points="812.3,53.9 812.3,54.8 794.3,36.8 812.3,36.8 				"/>
				<polygon fill="#FFFFFF" points="812.3,54.8 794.3,54.8 794.3,36.8 				"/>
			</g>
			<g>
				<polygon fill="none" stroke="#92C3F4" stroke-miterlimit="10" points="794.3,36.8 812.3,36.8 812.3,53.9 812.3,54.8 794.3,54.8 
									"/>
				<line fill="none" stroke="#92C3F4" stroke-miterlimit="10" x1="794.3" y1="36.8" x2="812.3" y2="54.8"/>
			</g>
		</g>
		<g id="XMLID_3_">
			<g>
				<polygon fill="#2F58F2" points="830.2,36.8 830.2,54.8 812.2,54.8 				"/>
				<polygon fill="#1B1464" points="830.2,36.8 812.2,54.8 812.2,36.8 829.3,36.8 				"/>
			</g>
			<g>
				<polygon fill="none" stroke="#92C3F4" stroke-miterlimit="10" points="812.2,54.8 812.2,36.8 829.3,36.8 830.2,36.8 830.2,54.8 
									"/>
				<line fill="none" stroke="#92C3F4" stroke-miterlimit="10" x1="812.2" y1="54.8" x2="830.2" y2="36.8"/>
			</g>
		</g>
		<g id="XMLID_5_">
			<g>
				<polygon fill="#C1272D" points="812.2,72.8 812.2,90.8 795.2,90.8 794.2,90.8 				"/>
				<polygon fill="#FFFFFF" points="812.2,72.8 794.2,90.8 794.2,72.8 				"/>
			</g>
			<g>
				<polygon fill="none" stroke="#92C3F4" stroke-miterlimit="10" points="812.2,72.8 812.2,90.8 795.2,90.8 794.2,90.8 794.2,72.8 
									"/>
				<line fill="none" stroke="#92C3F4" stroke-miterlimit="10" x1="812.2" y1="72.8" x2="794.2" y2="90.8"/>
			</g>
		</g>
		<g id="XMLID_6_">
			<g>
				<polygon fill="#2F58F2" points="830.2,72.8 830.2,90.8 812.2,72.8 				"/>
				<polygon fill="#1B1464" points="830.2,90.8 812.2,90.8 812.2,73.8 812.2,72.8 				"/>
			</g>
			<g>
				<polygon fill="none" stroke="#92C3F4" stroke-miterlimit="10" points="830.2,90.8 812.2,90.8 812.2,73.8 812.2,72.8 830.2,72.8 
									"/>
				<line fill="none" stroke="#92C3F4" stroke-miterlimit="10" x1="830.2" y1="90.8" x2="812.2" y2="72.8"/>
			</g>
		</g>
		<g id="XMLID_7_">
			<g>
				<polygon fill="#2F58F2" points="830.2,108.8 830.2,126.8 812.2,126.8 				"/>
				<polygon fill="#C1272D" points="830.2,107.9 830.2,108.8 812.2,90.8 830.2,90.8 				"/>
				<polygon fill="#1B1464" points="830.2,108.8 812.2,126.8 812.2,108.8 829.3,108.8 				"/>
				<polygon fill="#FFFFFF" points="830.2,108.8 829.3,108.8 812.2,108.8 812.2,90.8 				"/>
				<polygon fill="#C1272D" points="812.2,108.8 812.2,126.8 794.2,108.8 				"/>
				<polygon fill="#480087" points="812.2,90.8 812.2,108.8 794.2,108.8 				"/>
				<polygon fill="#2F58F2" points="812.2,90.8 794.2,108.8 794.2,90.8 				"/>
				<polygon fill="#FFFFFF" points="812.2,126.8 794.2,126.8 794.2,108.8 				"/>
			</g>
			<g>
				<polyline fill="none" stroke="#92C3F4" stroke-miterlimit="10" points="794.2,108.8 794.2,90.8 812.2,90.8 				"/>
				<line fill="none" stroke="#92C3F4" stroke-miterlimit="10" x1="812.2" y1="90.8" x2="794.2" y2="108.8"/>
				<polyline fill="none" stroke="#92C3F4" stroke-miterlimit="10" points="812.2,108.8 812.2,90.8 830.2,90.8 830.2,107.9 
					830.2,108.8 				"/>
				<line fill="none" stroke="#92C3F4" stroke-miterlimit="10" x1="812.2" y1="90.8" x2="830.2" y2="108.8"/>
				<polyline fill="none" stroke="#92C3F4" stroke-miterlimit="10" points="812.2,126.8 794.2,126.8 794.2,108.8 812.2,108.8 				
					"/>
				<line fill="none" stroke="#92C3F4" stroke-miterlimit="10" x1="794.2" y1="108.8" x2="812.2" y2="126.8"/>
				<polygon fill="none" stroke="#92C3F4" stroke-miterlimit="10" points="812.2,126.8 812.2,108.8 829.3,108.8 830.2,108.8 
					830.2,126.8 				"/>
				<line fill="none" stroke="#92C3F4" stroke-miterlimit="10" x1="812.2" y1="126.8" x2="830.2" y2="108.8"/>
			</g>
		</g>
		<g id="XMLID_8_">
			<g>
				<polygon fill="#FFFFFF" points="830.2,179.9 830.2,180.8 812.2,162.8 830.2,162.8 				"/>
				<polygon fill="#2F58F2" points="830.2,144.8 830.2,162.8 812.2,162.8 				"/>
				<polygon fill="#FFFFFF" points="830.2,143.9 830.2,144.8 812.2,126.8 830.2,126.8 				"/>
				<polygon fill="#C1272D" points="830.2,144.8 812.2,162.8 812.2,144.8 				"/>
				<polygon fill="#480087" points="830.2,144.8 812.2,144.8 812.2,126.8 				"/>
				<polygon fill="#1B1464" points="830.2,180.8 812.2,180.8 812.2,162.8 				"/>
				<polygon fill="#FFFFFF" points="812.2,162.8 812.2,180.8 794.2,180.8 				"/>
				<polygon fill="#1B1464" points="812.2,144.8 812.2,162.8 794.2,144.8 				"/>
				<polygon fill="#FFFFFF" points="812.2,126.8 812.2,144.8 794.2,126.8 				"/>
				<polygon fill="#480087" points="812.2,162.8 794.2,180.8 794.2,162.8 811.3,162.8 				"/>
				<polygon fill="#C1272D" points="812.2,144.8 794.2,144.8 794.2,126.8 				"/>
				<polygon fill="#FFFFFF" points="812.2,162.8 811.3,162.8 794.2,162.8 794.2,144.8 				"/>
			</g>
			<g>
				<polyline fill="none" stroke="#92C3F4" stroke-miterlimit="10" points="794.2,144.8 794.2,126.8 812.2,126.8 				"/>
				<line fill="none" stroke="#92C3F4" stroke-miterlimit="10" x1="794.2" y1="126.8" x2="812.2" y2="144.8"/>
				<polyline fill="none" stroke="#92C3F4" stroke-miterlimit="10" points="812.2,144.8 812.2,126.8 830.2,126.8 830.2,143.9 
					830.2,144.8 				"/>
				<line fill="none" stroke="#92C3F4" stroke-miterlimit="10" x1="812.2" y1="126.8" x2="830.2" y2="144.8"/>
				<polyline fill="none" stroke="#92C3F4" stroke-miterlimit="10" points="794.2,162.8 794.2,144.8 812.2,144.8 				"/>
				<line fill="none" stroke="#92C3F4" stroke-miterlimit="10" x1="794.2" y1="144.8" x2="812.2" y2="162.8"/>
				<polyline fill="none" stroke="#92C3F4" stroke-miterlimit="10" points="812.2,162.8 812.2,144.8 830.2,144.8 830.2,162.8 				
					"/>
				<line fill="none" stroke="#92C3F4" stroke-miterlimit="10" x1="830.2" y1="144.8" x2="812.2" y2="162.8"/>
				<polyline fill="none" stroke="#92C3F4" stroke-miterlimit="10" points="812.2,180.8 794.2,180.8 794.2,162.8 811.3,162.8 
					812.2,162.8 				"/>
				<line fill="none" stroke="#92C3F4" stroke-miterlimit="10" x1="794.2" y1="180.8" x2="812.2" y2="162.8"/>
				<polygon fill="none" stroke="#92C3F4" stroke-miterlimit="10" points="812.2,162.8 830.2,162.8 830.2,179.9 830.2,180.8 
					812.2,180.8 				"/>
				<line fill="none" stroke="#92C3F4" stroke-miterlimit="10" x1="812.2" y1="162.8" x2="830.2" y2="180.8"/>
			</g>
		</g>
		<g id="XMLID_9_">
			<g>
				<polygon fill="#FFFFFF" points="902.2,215.9 902.2,216.8 884.2,198.8 902.2,198.8 				"/>
				<polygon fill="#C1272D" points="902.2,197.9 902.2,198.8 884.2,180.8 902.2,180.8 				"/>
				<polygon fill="#2F58F2" points="902.2,198.8 884.2,198.8 884.2,180.8 				"/>
				<polygon fill="#1B1464" points="902.2,216.8 884.2,216.8 884.2,198.8 				"/>
				<polygon fill="#C1272D" points="884.2,198.8 884.2,216.8 866.2,216.8 				"/>
				<polygon fill="#FFFFFF" points="884.2,180.8 884.2,198.8 883.3,198.8 866.2,198.8 				"/>
				<polygon fill="#480087" points="884.2,180.8 866.2,198.8 866.2,180.8 883.3,180.8 				"/>
				<polygon fill="#2F58F2" points="884.2,198.8 866.2,216.8 866.2,198.8 883.3,198.8 				"/>
				<polygon fill="#FFFFFF" points="866.2,198.8 866.2,216.8 848.2,198.8 				"/>
				<polygon fill="#C1272D" points="866.2,180.8 866.2,198.8 848.2,198.8 				"/>
				<polygon fill="#2F58F2" points="866.2,180.8 848.2,198.8 848.2,180.8 865.3,180.8 				"/>
				<polygon fill="#480087" points="866.2,216.8 848.2,216.8 848.2,198.8 				"/>
				<polygon fill="#2F58F2" points="848.2,198.8 848.2,216.8 831.2,216.8 830.2,216.8 				"/>
				<polygon fill="#1B1464" points="848.2,180.8 848.2,198.8 830.2,180.8 				"/>
				<polygon fill="#C1272D" points="848.2,198.8 830.2,216.8 830.2,198.8 				"/>
				<polygon fill="#FFFFFF" points="848.2,198.8 830.2,198.8 830.2,180.8 				"/>
				<polygon fill="#1B1464" points="830.2,198.8 830.2,216.8 812.2,198.8 				"/>
				<polygon fill="#2F58F2" points="830.2,180.8 830.2,198.8 812.2,180.8 				"/>
				<polygon fill="#C1272D" points="830.2,198.8 812.2,198.8 812.2,180.8 				"/>
				<polygon fill="#FFFFFF" points="830.2,216.8 812.2,216.8 812.2,198.8 				"/>
				<polygon fill="#C1272D" points="812.2,198.8 812.2,216.8 795.2,216.8 794.2,216.8 				"/>
				<polygon fill="#480087" points="812.2,180.8 812.2,198.8 794.2,180.8 				"/>
				<polygon fill="#2F58F2" points="812.2,198.8 794.2,216.8 794.2,198.8 				"/>
				<polygon fill="#FFFFFF" points="812.2,198.8 794.2,198.8 794.2,180.8 				"/>
			</g>
			<g>
				<polyline fill="none" stroke="#92C3F4" stroke-miterlimit="10" points="794.2,198.8 794.2,180.8 812.2,180.8 				"/>
				<line fill="none" stroke="#92C3F4" stroke-miterlimit="10" x1="794.2" y1="180.8" x2="812.2" y2="198.8"/>
				<polyline fill="none" stroke="#92C3F4" stroke-miterlimit="10" points="812.2,198.8 812.2,180.8 830.2,180.8 				"/>
				<line fill="none" stroke="#92C3F4" stroke-miterlimit="10" x1="812.2" y1="180.8" x2="830.2" y2="198.8"/>
				<polyline fill="none" stroke="#92C3F4" stroke-miterlimit="10" points="812.2,216.8 795.2,216.8 794.2,216.8 794.2,198.8 
					812.2,198.8 				"/>
				<line fill="none" stroke="#92C3F4" stroke-miterlimit="10" x1="812.2" y1="198.8" x2="794.2" y2="216.8"/>
				<polyline fill="none" stroke="#92C3F4" stroke-miterlimit="10" points="830.2,216.8 812.2,216.8 812.2,198.8 830.2,198.8 				
					"/>
				<line fill="none" stroke="#92C3F4" stroke-miterlimit="10" x1="812.2" y1="198.8" x2="830.2" y2="216.8"/>
				<polyline fill="none" stroke="#92C3F4" stroke-miterlimit="10" points="830.2,198.8 830.2,180.8 848.2,180.8 				"/>
				<line fill="none" stroke="#92C3F4" stroke-miterlimit="10" x1="830.2" y1="180.8" x2="848.2" y2="198.8"/>
				<polyline fill="none" stroke="#92C3F4" stroke-miterlimit="10" points="848.2,198.8 848.2,180.8 865.3,180.8 866.2,180.8 				
					"/>
				<line fill="none" stroke="#92C3F4" stroke-miterlimit="10" x1="848.2" y1="198.8" x2="866.2" y2="180.8"/>
				<polyline fill="none" stroke="#92C3F4" stroke-miterlimit="10" points="848.2,216.8 831.2,216.8 830.2,216.8 830.2,198.8 
					848.2,198.8 				"/>
				<line fill="none" stroke="#92C3F4" stroke-miterlimit="10" x1="848.2" y1="198.8" x2="830.2" y2="216.8"/>
				<polyline fill="none" stroke="#92C3F4" stroke-miterlimit="10" points="866.2,216.8 848.2,216.8 848.2,198.8 866.2,198.8 				
					"/>
				<line fill="none" stroke="#92C3F4" stroke-miterlimit="10" x1="848.2" y1="198.8" x2="866.2" y2="216.8"/>
				<polyline fill="none" stroke="#92C3F4" stroke-miterlimit="10" points="866.2,198.8 866.2,180.8 883.3,180.8 884.2,180.8 				
					"/>
				<line fill="none" stroke="#92C3F4" stroke-miterlimit="10" x1="866.2" y1="198.8" x2="884.2" y2="180.8"/>
				<polyline fill="none" stroke="#92C3F4" stroke-miterlimit="10" points="884.2,198.8 884.2,180.8 902.2,180.8 902.2,197.9 
					902.2,198.8 				"/>
				<line fill="none" stroke="#92C3F4" stroke-miterlimit="10" x1="884.2" y1="180.8" x2="902.2" y2="198.8"/>
				<polyline fill="none" stroke="#92C3F4" stroke-miterlimit="10" points="884.2,216.8 866.2,216.8 866.2,198.8 883.3,198.8 
					884.2,198.8 				"/>
				<line fill="none" stroke="#92C3F4" stroke-miterlimit="10" x1="866.2" y1="216.8" x2="884.2" y2="198.8"/>
				<polygon fill="none" stroke="#92C3F4" stroke-miterlimit="10" points="884.2,198.8 902.2,198.8 902.2,215.9 902.2,216.8 
					884.2,216.8 				"/>
				<line fill="none" stroke="#92C3F4" stroke-miterlimit="10" x1="884.2" y1="198.8" x2="902.2" y2="216.8"/>
			</g>
		</g>
	</g>
</g>
</svg>
