<?xml version="1.0" encoding="utf-8"?>
<!-- Generator: Adobe Illustrator 18.1.0, SVG Export Plug-In . SVG Version: 6.00 Build 0)  -->
<svg version="1.1" xmlns="http://www.w3.org/2000/svg" xmlns:xlink="http://www.w3.org/1999/xlink" x="0px" y="0px"
	 viewBox="0 0 1943.2 252.5" enable-background="new 0 0 1943.2 252.5" xml:space="preserve">
<g id="Layer_1">
	<polygon fill="#FFFFFF" points="1943.9,251.5 0.3,251.3 0.3,0 1943.9,0.2 	"/>
</g>
<g id="Layer_7">
	<path fill="none" stroke="#92C3F4" stroke-miterlimit="10" d="M1964.6-0.3"/>
	<line fill="none" stroke="#92C3F4" stroke-miterlimit="10" x1="193.5" y1="0" x2="193.5" y2="253"/>
	<line fill="none" stroke="#92C3F4" stroke-miterlimit="10" x1="211.5" y1="0" x2="211.5" y2="253"/>
	<line fill="none" stroke="#92C3F4" stroke-miterlimit="10" x1="229.5" y1="0" x2="229.5" y2="253"/>
	<line fill="none" stroke="#92C3F4" stroke-miterlimit="10" x1="247.5" y1="0" x2="247.5" y2="253"/>
	<line fill="none" stroke="#92C3F4" stroke-miterlimit="10" x1="265.5" y1="0" x2="265.5" y2="253"/>
	<line fill="none" stroke="#92C3F4" stroke-miterlimit="10" x1="283.5" y1="0" x2="283.5" y2="253"/>
	<line fill="none" stroke="#92C3F4" stroke-miterlimit="10" x1="301.5" y1="0" x2="301.5" y2="253"/>
	<line fill="none" stroke="#92C3F4" stroke-miterlimit="10" x1="319.5" y1="0" x2="319.5" y2="253"/>
	<line fill="none" stroke="#92C3F4" stroke-miterlimit="10" x1="337.5" y1="0" x2="337.5" y2="253"/>
	<line fill="none" stroke="#92C3F4" stroke-miterlimit="10" x1="355.5" y1="0" x2="355.5" y2="253"/>
	<line fill="none" stroke="#92C3F4" stroke-miterlimit="10" x1="373.5" y1="0" x2="373.5" y2="253"/>
	<line fill="none" stroke="#92C3F4" stroke-miterlimit="10" x1="391.5" y1="0" x2="391.5" y2="253"/>
	<line fill="none" stroke="#92C3F4" stroke-miterlimit="10" x1="409.5" y1="0" x2="409.5" y2="253"/>
	<line fill="none" stroke="#92C3F4" stroke-miterlimit="10" x1="427.5" y1="0" x2="427.5" y2="253"/>
	<line fill="none" stroke="#92C3F4" stroke-miterlimit="10" x1="445.5" y1="0" x2="445.5" y2="253"/>
	<line fill="none" stroke="#92C3F4" stroke-miterlimit="10" x1="463.5" y1="0" x2="463.5" y2="253"/>
	<line fill="none" stroke="#92C3F4" stroke-miterlimit="10" x1="481.5" y1="0" x2="481.5" y2="253"/>
	<line fill="none" stroke="#92C3F4" stroke-miterlimit="10" x1="499.5" y1="0" x2="499.5" y2="253"/>
	<line fill="none" stroke="#92C3F4" stroke-miterlimit="10" x1="517.5" y1="0" x2="517.5" y2="253"/>
	<line fill="none" stroke="#92C3F4" stroke-miterlimit="10" x1="535.5" y1="0" x2="535.5" y2="253"/>
	<line fill="none" stroke="#92C3F4" stroke-miterlimit="10" x1="553.5" y1="0" x2="553.5" y2="253"/>
	<line fill="none" stroke="#92C3F4" stroke-miterlimit="10" x1="571.5" y1="0" x2="571.5" y2="253"/>
	<line fill="none" stroke="#92C3F4" stroke-miterlimit="10" x1="589.5" y1="0" x2="589.5" y2="253"/>
	<line fill="none" stroke="#92C3F4" stroke-miterlimit="10" x1="607.5" y1="0" x2="607.5" y2="253"/>
	<line fill="none" stroke="#92C3F4" stroke-miterlimit="10" x1="625.5" y1="0" x2="625.5" y2="253"/>
	<line fill="none" stroke="#92C3F4" stroke-miterlimit="10" x1="643.5" y1="0" x2="643.5" y2="253"/>
	<line fill="none" stroke="#92C3F4" stroke-miterlimit="10" x1="661.5" y1="0" x2="661.5" y2="253"/>
	<line fill="none" stroke="#92C3F4" stroke-miterlimit="10" x1="679.5" y1="0" x2="679.5" y2="253"/>
	<line fill="none" stroke="#92C3F4" stroke-miterlimit="10" x1="697.5" y1="0" x2="697.5" y2="253"/>
	<line fill="none" stroke="#92C3F4" stroke-miterlimit="10" x1="715.5" y1="0" x2="715.5" y2="253"/>
	<line fill="none" stroke="#92C3F4" stroke-miterlimit="10" x1="733.5" y1="0" x2="733.5" y2="253"/>
	<line fill="none" stroke="#92C3F4" stroke-miterlimit="10" x1="751.5" y1="0" x2="751.5" y2="253"/>
	<line fill="none" stroke="#92C3F4" stroke-miterlimit="10" x1="769.5" y1="0" x2="769.5" y2="253"/>
	<line fill="none" stroke="#92C3F4" stroke-miterlimit="10" x1="787.5" y1="0" x2="787.5" y2="253"/>
	<line fill="none" stroke="#92C3F4" stroke-miterlimit="10" x1="805.5" y1="0" x2="805.5" y2="253"/>
	<line fill="none" stroke="#92C3F4" stroke-miterlimit="10" x1="823.5" y1="0" x2="823.5" y2="253"/>
	<line fill="none" stroke="#92C3F4" stroke-miterlimit="10" x1="841.5" y1="0" x2="841.5" y2="253"/>
	<line fill="none" stroke="#92C3F4" stroke-miterlimit="10" x1="859.5" y1="0" x2="859.5" y2="253"/>
	<line fill="none" stroke="#92C3F4" stroke-miterlimit="10" x1="877.5" y1="0" x2="877.5" y2="253"/>
	<line fill="none" stroke="#92C3F4" stroke-miterlimit="10" x1="895.5" y1="0" x2="895.5" y2="253"/>
	<line fill="none" stroke="#92C3F4" stroke-miterlimit="10" x1="913.5" y1="0" x2="913.5" y2="253"/>
	<line fill="none" stroke="#92C3F4" stroke-miterlimit="10" x1="931.5" y1="0" x2="931.5" y2="253"/>
	<line fill="none" stroke="#92C3F4" stroke-miterlimit="10" x1="949.5" y1="0" x2="949.5" y2="253"/>
	<line fill="none" stroke="#92C3F4" stroke-miterlimit="10" x1="967.5" y1="0" x2="967.5" y2="253"/>
	<line fill="none" stroke="#92C3F4" stroke-miterlimit="10" x1="985.5" y1="0" x2="985.5" y2="253"/>
	<line fill="none" stroke="#92C3F4" stroke-miterlimit="10" x1="1003.5" y1="0" x2="1003.5" y2="253"/>
	<line fill="none" stroke="#92C3F4" stroke-miterlimit="10" x1="1021.5" y1="0" x2="1021.5" y2="253"/>
	<line fill="none" stroke="#92C3F4" stroke-miterlimit="10" x1="1039.5" y1="0" x2="1039.5" y2="253"/>
	<line fill="none" stroke="#92C3F4" stroke-miterlimit="10" x1="1057.5" y1="0" x2="1057.5" y2="253"/>
	<line fill="none" stroke="#92C3F4" stroke-miterlimit="10" x1="1075.5" y1="0" x2="1075.5" y2="253"/>
	<line fill="none" stroke="#92C3F4" stroke-miterlimit="10" x1="1093.5" y1="0" x2="1093.5" y2="253"/>
	<line fill="none" stroke="#92C3F4" stroke-miterlimit="10" x1="1111.5" y1="0" x2="1111.5" y2="253"/>
	<line fill="none" stroke="#92C3F4" stroke-miterlimit="10" x1="1129.5" y1="0" x2="1129.5" y2="253"/>
	<line fill="none" stroke="#92C3F4" stroke-miterlimit="10" x1="1147.5" y1="0" x2="1147.5" y2="253"/>
	<line fill="none" stroke="#92C3F4" stroke-miterlimit="10" x1="1165.5" y1="0" x2="1165.5" y2="253"/>
	<line fill="none" stroke="#92C3F4" stroke-miterlimit="10" x1="1183.5" y1="0" x2="1183.5" y2="253"/>
	<line fill="none" stroke="#92C3F4" stroke-miterlimit="10" x1="1201.5" y1="0" x2="1201.5" y2="253"/>
	<line fill="none" stroke="#92C3F4" stroke-miterlimit="10" x1="1219.5" y1="0" x2="1219.5" y2="253"/>
	<line fill="none" stroke="#92C3F4" stroke-miterlimit="10" x1="1237.5" y1="0" x2="1237.5" y2="253"/>
	<line fill="none" stroke="#92C3F4" stroke-miterlimit="10" x1="1255.5" y1="0" x2="1255.5" y2="253"/>
	<line fill="none" stroke="#92C3F4" stroke-miterlimit="10" x1="1273.5" y1="0" x2="1273.5" y2="253"/>
	<line fill="none" stroke="#92C3F4" stroke-miterlimit="10" x1="1291.5" y1="0" x2="1291.5" y2="253"/>
	<line fill="none" stroke="#92C3F4" stroke-miterlimit="10" x1="1309.5" y1="0" x2="1309.5" y2="253"/>
	<line fill="none" stroke="#92C3F4" stroke-miterlimit="10" x1="1327.5" y1="0" x2="1327.5" y2="253"/>
	<line fill="none" stroke="#92C3F4" stroke-miterlimit="10" x1="1345.5" y1="0" x2="1345.5" y2="253"/>
	<line fill="none" stroke="#92C3F4" stroke-miterlimit="10" x1="1363.5" y1="0" x2="1363.5" y2="253"/>
	<line fill="none" stroke="#92C3F4" stroke-miterlimit="10" x1="1381.5" y1="0" x2="1381.5" y2="253"/>
	<line fill="none" stroke="#92C3F4" stroke-miterlimit="10" x1="1399.5" y1="0" x2="1399.5" y2="253"/>
	<line fill="none" stroke="#92C3F4" stroke-miterlimit="10" x1="1417.5" y1="0" x2="1417.5" y2="253"/>
	<line fill="none" stroke="#92C3F4" stroke-miterlimit="10" x1="1435.5" y1="0" x2="1435.5" y2="253"/>
	<line fill="none" stroke="#92C3F4" stroke-miterlimit="10" x1="1453.5" y1="0" x2="1453.5" y2="253"/>
	<line fill="none" stroke="#92C3F4" stroke-miterlimit="10" x1="1471.5" y1="0" x2="1471.5" y2="253"/>
	<line fill="none" stroke="#92C3F4" stroke-miterlimit="10" x1="1489.5" y1="0" x2="1489.5" y2="253"/>
	<line fill="none" stroke="#92C3F4" stroke-miterlimit="10" x1="1507.5" y1="0" x2="1507.5" y2="253"/>
	<line fill="none" stroke="#92C3F4" stroke-miterlimit="10" x1="1525.5" y1="0" x2="1525.5" y2="253"/>
	<line fill="none" stroke="#92C3F4" stroke-miterlimit="10" x1="1543.5" y1="0" x2="1543.5" y2="253"/>
	<line fill="none" stroke="#92C3F4" stroke-miterlimit="10" x1="1561.5" y1="0" x2="1561.5" y2="253"/>
	<line fill="none" stroke="#92C3F4" stroke-miterlimit="10" x1="1579.5" y1="0" x2="1579.5" y2="253"/>
	<line fill="none" stroke="#92C3F4" stroke-miterlimit="10" x1="1597.5" y1="0" x2="1597.5" y2="253"/>
	<line fill="none" stroke="#92C3F4" stroke-miterlimit="10" x1="1615.5" y1="0" x2="1615.5" y2="253"/>
	<line fill="none" stroke="#92C3F4" stroke-miterlimit="10" x1="1633.5" y1="0" x2="1633.5" y2="253"/>
	<line fill="none" stroke="#92C3F4" stroke-miterlimit="10" x1="1651.5" y1="0" x2="1651.5" y2="253"/>
	<line fill="none" stroke="#92C3F4" stroke-miterlimit="10" x1="1669.5" y1="0" x2="1669.5" y2="253"/>
	<line fill="none" stroke="#92C3F4" stroke-miterlimit="10" x1="1687.5" y1="0" x2="1687.5" y2="253"/>
	<line fill="none" stroke="#92C3F4" stroke-miterlimit="10" x1="1705.5" y1="0" x2="1705.5" y2="253"/>
	<line fill="none" stroke="#92C3F4" stroke-miterlimit="10" x1="1723.5" y1="0" x2="1723.5" y2="253"/>
	<line fill="none" stroke="#92C3F4" stroke-miterlimit="10" x1="1741.5" y1="0" x2="1741.5" y2="253"/>
	<line fill="none" stroke="#92C3F4" stroke-miterlimit="10" x1="0" y1="18.5" x2="1944" y2="18.5"/>
	<line fill="none" stroke="#92C3F4" stroke-miterlimit="10" x1="0" y1="36.5" x2="1944" y2="36.5"/>
	<line fill="none" stroke="#92C3F4" stroke-miterlimit="10" x1="0" y1="54.5" x2="1944" y2="54.5"/>
	<line fill="none" stroke="#92C3F4" stroke-miterlimit="10" x1="0" y1="72.5" x2="1944" y2="72.5"/>
	<line fill="none" stroke="#92C3F4" stroke-miterlimit="10" x1="0" y1="90.5" x2="1944" y2="90.5"/>
	<line fill="none" stroke="#92C3F4" stroke-miterlimit="10" x1="0" y1="0.5" x2="1944" y2="0.5"/>
	<line fill="none" stroke="#92C3F4" stroke-miterlimit="10" x1="0" y1="108.5" x2="1944" y2="108.5"/>
	<line fill="none" stroke="#92C3F4" stroke-miterlimit="10" x1="0" y1="126.5" x2="1944" y2="126.5"/>
	<line fill="none" stroke="#92C3F4" stroke-miterlimit="10" x1="0" y1="144.5" x2="1944" y2="144.5"/>
	<line fill="none" stroke="#92C3F4" stroke-miterlimit="10" x1="0" y1="162.5" x2="1944" y2="162.5"/>
	<line fill="none" stroke="#92C3F4" stroke-miterlimit="10" x1="0" y1="180.5" x2="1944" y2="180.5"/>
	<line fill="none" stroke="#92C3F4" stroke-miterlimit="10" x1="0" y1="198.5" x2="1944" y2="198.5"/>
	<line fill="none" stroke="#92C3F4" stroke-miterlimit="10" x1="0" y1="216.5" x2="1944" y2="216.5"/>
	<line fill="none" stroke="#92C3F4" stroke-miterlimit="10" x1="0" y1="234.5" x2="1944" y2="234.5"/>
	<line fill="none" stroke="#92C3F4" stroke-miterlimit="10" x1="0" y1="252.5" x2="1944" y2="252.5"/>
	<path fill="none" stroke="#FF0000" stroke-miterlimit="10" d="M1950.1,198.6"/>
	<path fill="none" stroke="#000000" stroke-miterlimit="10" d="M1181.5,545.6"/>
	<line fill="none" stroke="#92C3F4" stroke-miterlimit="10" x1="49.5" y1="0" x2="49.5" y2="253"/>
	<line fill="none" stroke="#92C3F4" stroke-miterlimit="10" x1="67.5" y1="0" x2="67.5" y2="253"/>
	<line fill="none" stroke="#92C3F4" stroke-miterlimit="10" x1="85.5" y1="0" x2="85.5" y2="253"/>
	<line fill="none" stroke="#92C3F4" stroke-miterlimit="10" x1="103.5" y1="0" x2="103.5" y2="253"/>
	<line fill="none" stroke="#92C3F4" stroke-miterlimit="10" x1="121.5" y1="0" x2="121.5" y2="253"/>
	<line fill="none" stroke="#92C3F4" stroke-miterlimit="10" x1="139.5" y1="0" x2="139.5" y2="253"/>
	<line fill="none" stroke="#92C3F4" stroke-miterlimit="10" x1="157.5" y1="0" x2="157.5" y2="253"/>
	<line fill="none" stroke="#92C3F4" stroke-miterlimit="10" x1="175.5" y1="0" x2="175.5" y2="253"/>
	<path fill="none" stroke="#92C3F4" stroke-miterlimit="10" d="M1154.9-282.4"/>
	<path fill="none" stroke="#92C3F4" stroke-miterlimit="10" d="M-40.6,252.9"/>
	<path fill="none" stroke="#92C3F4" stroke-miterlimit="10" d="M-22.6,252.9"/>
	<path fill="none" stroke="#92C3F4" stroke-miterlimit="10" d="M-4.6,252.9"/>
	<line fill="none" stroke="#92C3F4" stroke-miterlimit="10" x1="13.5" y1="0" x2="13.5" y2="253"/>
	<line fill="none" stroke="#92C3F4" stroke-miterlimit="10" x1="31.5" y1="0" x2="31.5" y2="253"/>
	<line fill="none" stroke="#92C3F4" stroke-miterlimit="10" x1="1759.5" y1="0" x2="1759.5" y2="253"/>
	<line fill="none" stroke="#92C3F4" stroke-miterlimit="10" x1="1777.5" y1="0" x2="1777.5" y2="253"/>
	<line fill="none" stroke="#92C3F4" stroke-miterlimit="10" x1="1795.5" y1="0" x2="1795.5" y2="253"/>
	<line fill="none" stroke="#92C3F4" stroke-miterlimit="10" x1="1813.5" y1="0" x2="1813.5" y2="253"/>
	<line fill="none" stroke="#92C3F4" stroke-miterlimit="10" x1="1831.5" y1="0" x2="1831.5" y2="253"/>
	<line fill="none" stroke="#92C3F4" stroke-miterlimit="10" x1="1849.5" y1="0" x2="1849.5" y2="253"/>
	<line fill="none" stroke="#92C3F4" stroke-miterlimit="10" x1="1867.5" y1="0" x2="1867.5" y2="253"/>
	<line fill="none" stroke="#92C3F4" stroke-miterlimit="10" x1="1885.5" y1="0" x2="1885.5" y2="253"/>
	<line fill="none" stroke="#92C3F4" stroke-miterlimit="10" x1="1903.5" y1="0" x2="1903.5" y2="253"/>
	<line fill="none" stroke="#92C3F4" stroke-miterlimit="10" x1="1921.5" y1="0" x2="1921.5" y2="253"/>
	<line fill="none" stroke="#92C3F4" stroke-miterlimit="10" x1="1939.5" y1="0" x2="1939.5" y2="253"/>
	<path fill="none" stroke="#92C3F4" stroke-miterlimit="10" d="M1957.4,0.1"/>
	<path fill="none" stroke="#92C3F4" stroke-miterlimit="10" d="M1975.4,0.1"/>
</g>
<g id="Layer_17">
	<polygon fill="#FFFFFF" stroke="#92C3F4" stroke-miterlimit="10" points="193.4,54.6 211.4,54.6 211.4,71.6 211.4,72.6 193.4,72.6 
			"/>
	<path fill="#FFFFFF" stroke="#92C3F4" stroke-miterlimit="10" d="M211.4,72.6l-18-18L211.4,72.6z"/>
	<polygon fill="#FFFFFF" stroke="#92C3F4" stroke-miterlimit="10" points="211.4,54.6 229.4,54.6 229.4,71.6 229.4,72.6 211.4,72.6 
			"/>
	<path fill="#FFFFFF" stroke="#92C3F4" stroke-miterlimit="10" d="M229.4,72.6l-18-18L229.4,72.6z"/>
	<polygon fill="#FFFFFF" stroke="#92C3F4" stroke-miterlimit="10" points="265.4,144.6 247.4,144.6 247.4,127.6 247.4,126.6 
		265.4,126.6 	"/>
	<path fill="#FFFFFF" stroke="#92C3F4" stroke-miterlimit="10" d="M247.4,126.6l18,18L247.4,126.6z"/>
	<polygon fill="#FFFFFF" stroke="#92C3F4" stroke-miterlimit="10" points="247.4,126.6 247.4,144.6 230.4,144.6 229.4,144.6 
		229.4,126.6 	"/>
	<path fill="#FFFFFF" stroke="#92C3F4" stroke-miterlimit="10" d="M229.4,144.6l18-18L229.4,144.6z"/>
	<polygon fill="#FFFFFF" stroke="#92C3F4" stroke-miterlimit="10" points="211.4,72.6 211.4,90.6 194.4,90.6 193.4,90.6 193.4,72.6 
			"/>
	<path fill="#FFFFFF" stroke="#92C3F4" stroke-miterlimit="10" d="M193.4,90.6l18-18L193.4,90.6z"/>
	<polygon fill="#FFFFFF" stroke="#92C3F4" stroke-miterlimit="10" points="229.4,90.6 211.4,90.6 211.4,73.6 211.4,72.6 229.4,72.6 
			"/>
	<path fill="#FFFFFF" stroke="#92C3F4" stroke-miterlimit="10" d="M211.4,72.6l18,18L211.4,72.6z"/>
	<polygon fill="#FFFFFF" stroke="#92C3F4" stroke-miterlimit="10" points="211.4,90.6 211.4,108.6 194.4,108.6 193.4,108.6 
		193.4,90.6 	"/>
	<path fill="#FFFFFF" stroke="#92C3F4" stroke-miterlimit="10" d="M193.4,108.6l18-18L193.4,108.6z"/>
	<polygon fill="#FFFFFF" stroke="#92C3F4" stroke-miterlimit="10" points="211.4,90.6 229.4,90.6 229.4,107.6 229.4,108.6 
		211.4,108.6 	"/>
	<path fill="#FFFFFF" stroke="#92C3F4" stroke-miterlimit="10" d="M229.4,108.6l-18-18L229.4,108.6z"/>
	<polygon fill="#FFFFFF" stroke="#92C3F4" stroke-miterlimit="10" points="193.4,108.6 211.4,108.6 211.4,125.6 211.4,126.6 
		193.4,126.6 	"/>
	<path fill="#FFFFFF" stroke="#92C3F4" stroke-miterlimit="10" d="M211.4,126.6l-18-18L211.4,126.6z"/>
	<polygon fill="#FFFFFF" stroke="#92C3F4" stroke-miterlimit="10" points="211.4,126.6 211.4,108.6 228.5,108.6 229.4,108.6 
		229.4,126.6 	"/>
	<path fill="#FFFFFF" stroke="#92C3F4" stroke-miterlimit="10" d="M229.4,108.6l-18,18L229.4,108.6z"/>
	<polygon fill="#FFFFFF" stroke="#92C3F4" stroke-miterlimit="10" points="193.4,126.6 211.4,126.6 211.4,143.6 211.4,144.6 
		193.4,144.6 	"/>
	<path fill="#FFFFFF" stroke="#92C3F4" stroke-miterlimit="10" d="M211.4,144.6l-18-18L211.4,144.6z"/>
	<polygon fill="#FFFFFF" stroke="#92C3F4" stroke-miterlimit="10" points="211.4,126.6 229.4,126.6 229.4,143.6 229.4,144.6 
		211.4,144.6 	"/>
	<path fill="#FFFFFF" stroke="#92C3F4" stroke-miterlimit="10" d="M229.4,144.6l-18-18L229.4,144.6z"/>
	<polygon fill="#FFFFFF" stroke="#92C3F4" stroke-miterlimit="10" points="193.4,144.6 211.4,144.6 211.4,161.6 211.4,162.6 
		193.4,162.6 	"/>
	<path fill="#FFFFFF" stroke="#92C3F4" stroke-miterlimit="10" d="M211.4,162.6l-18-18L211.4,162.6z"/>
	<polygon fill="#FFFFFF" stroke="#92C3F4" stroke-miterlimit="10" points="229.4,144.6 229.4,162.6 212.4,162.6 211.4,162.6 
		211.4,144.6 	"/>
	<path fill="#FFFFFF" stroke="#92C3F4" stroke-miterlimit="10" d="M211.4,162.6l18-18L211.4,162.6z"/>
	<polygon fill="#FFFFFF" stroke="#92C3F4" stroke-miterlimit="10" points="193.4,180.6 193.4,162.6 210.5,162.6 211.4,162.6 
		211.4,180.6 	"/>
	<path fill="#FFFFFF" stroke="#92C3F4" stroke-miterlimit="10" d="M211.4,162.6l-18,18L211.4,162.6z"/>
	<polygon fill="#FFFFFF" stroke="#92C3F4" stroke-miterlimit="10" points="211.4,162.6 229.4,162.6 229.4,179.6 229.4,180.6 
		211.4,180.6 	"/>
	<path fill="#FFFFFF" stroke="#92C3F4" stroke-miterlimit="10" d="M229.4,180.6l-18-18L229.4,180.6z"/>
	<polygon fill="#FFFFFF" stroke="#92C3F4" stroke-miterlimit="10" points="193.4,180.6 211.4,180.6 211.4,197.6 211.4,198.6 
		193.4,198.6 	"/>
	<path fill="#FFFFFF" stroke="#92C3F4" stroke-miterlimit="10" d="M211.4,198.6l-18-18L211.4,198.6z"/>
	<polygon fill="#FFFFFF" stroke="#92C3F4" stroke-miterlimit="10" points="211.4,180.6 229.4,180.6 229.4,197.6 229.4,198.6 
		211.4,198.6 	"/>
	<path fill="#FFFFFF" stroke="#92C3F4" stroke-miterlimit="10" d="M229.4,198.6l-18-18L229.4,198.6z"/>
	<polygon fill="#FFFFFF" stroke="#92C3F4" stroke-miterlimit="10" points="211.4,198.6 211.4,216.6 194.4,216.6 193.4,216.6 
		193.4,198.6 	"/>
	<path fill="#FFFFFF" stroke="#92C3F4" stroke-miterlimit="10" d="M193.4,216.6l18-18L193.4,216.6z"/>
	<polygon fill="#FFFFFF" stroke="#92C3F4" stroke-miterlimit="10" points="211.4,198.6 229.4,198.6 229.4,215.6 229.4,216.6 
		211.4,216.6 	"/>
	<path fill="#FFFFFF" stroke="#92C3F4" stroke-miterlimit="10" d="M229.4,216.6l-18-18L229.4,216.6z"/>
	<polygon fill="#FFFFFF" stroke="#92C3F4" stroke-miterlimit="10" points="229.4,126.6 229.4,108.6 246.5,108.6 247.4,108.6 
		247.4,126.6 	"/>
	<path fill="#FFFFFF" stroke="#92C3F4" stroke-miterlimit="10" d="M247.4,108.6l-18,18L247.4,108.6z"/>
	<polygon fill="#FFFFFF" stroke="#92C3F4" stroke-miterlimit="10" points="247.4,108.6 229.4,108.6 229.4,91.6 229.4,90.6 
		247.4,90.6 	"/>
	<path fill="#FFFFFF" stroke="#92C3F4" stroke-miterlimit="10" d="M229.4,90.6l18,18L229.4,90.6z"/>
	<polygon fill="#FFFFFF" stroke="#92C3F4" stroke-miterlimit="10" points="247.4,108.6 265.4,108.6 265.4,125.6 265.4,126.6 
		247.4,126.6 	"/>
	<path fill="#FFFFFF" stroke="#92C3F4" stroke-miterlimit="10" d="M265.4,126.6l-18-18L265.4,126.6z"/>
	<polygon fill="#FFFFFF" stroke="#92C3F4" stroke-miterlimit="10" points="247.4,108.6 247.4,90.6 264.5,90.6 265.4,90.6 
		265.4,108.6 	"/>
	<path fill="#FFFFFF" stroke="#92C3F4" stroke-miterlimit="10" d="M265.4,90.6l-18,18L265.4,90.6z"/>
	<polygon fill="#FFFFFF" stroke="#92C3F4" stroke-miterlimit="10" points="247.4,90.6 229.4,90.6 229.4,73.6 229.4,72.6 247.4,72.6 
			"/>
	<path fill="#FFFFFF" stroke="#92C3F4" stroke-miterlimit="10" d="M229.4,72.6l18,18L229.4,72.6z"/>
	<polygon fill="#FFFFFF" stroke="#92C3F4" stroke-miterlimit="10" points="229.4,72.6 229.4,54.6 246.5,54.6 247.4,54.6 247.4,72.6 
			"/>
	<path fill="#FFFFFF" stroke="#92C3F4" stroke-miterlimit="10" d="M247.4,54.6l-18,18L247.4,54.6z"/>
	<polygon fill="#FFFFFF" stroke="#92C3F4" stroke-miterlimit="10" points="265.4,90.6 247.4,90.6 247.4,73.6 247.4,72.6 265.4,72.6 
			"/>
	<path fill="#FFFFFF" stroke="#92C3F4" stroke-miterlimit="10" d="M247.4,72.6l18,18L247.4,72.6z"/>
	<polygon fill="#FFFFFF" stroke="#92C3F4" stroke-miterlimit="10" points="247.4,72.6 247.4,54.6 264.5,54.6 265.4,54.6 265.4,72.6 
			"/>
	<path fill="#FFFFFF" stroke="#92C3F4" stroke-miterlimit="10" d="M265.4,54.6l-18,18L265.4,54.6z"/>
</g>
<g id="Layer_18">
	<polygon fill="#C1272D" points="264.9,144 248,144 248,127.1 	"/>
	<polygon fill="#1B1464" points="247,127.1 247,144 229.9,144 	"/>
	<polygon fill="#2F58F2" points="194,108.1 194,91 210.9,91 	"/>
	<polygon fill="#1B1464" points="212,126.1 212,109 228.9,109 	"/>
	<polygon fill="#C1272D" points="212,162.1 212,145 228.9,145 	"/>
	<polygon fill="#2F58F2" points="230,144.1 230,127 246.9,127 	"/>
	<polygon fill="#C1272D" points="211,73.1 211,90 193.9,90 	"/>
	<polygon fill="#480087" points="211,91.1 211,108 193.9,108 	"/>
	<polygon fill="#2F58F2" points="229,109.1 229,126 211.9,126 	"/>
	<polygon fill="#2F58F2" points="229,145.1 229,162 211.9,162 	"/>
	<polygon fill="#2F58F2" points="194,216.1 194,199 210.9,199 	"/>
	<polygon fill="#C1272D" points="211,199.1 211,216 193.9,216 	"/>
	<polygon fill="#C1272D" points="264.9,126 248,126 248,109.1 	"/>
	<polygon fill="#480087" points="246.9,90 230,90 230,73.1 	"/>
	<polygon fill="#2F58F2" points="247.9,109 265,109 265,126.1 	"/>
	<polygon fill="#2F58F2" points="264.9,90 248,90 248,73.1 	"/>
	<polygon fill="#C1272D" points="247.9,73 265,73 265,90.1 	"/>
	<polygon fill="#2F58F2" points="246.9,108 230,108 230,91.1 	"/>
	<polygon fill="#C1272D" points="229.9,91 247,91 247,108.1 	"/>
	<polygon fill="#480087" points="194,180.1 194,163 210.9,163 	"/>
	<polygon fill="#C1272D" points="211,163.1 211,180 193.9,180 	"/>
	<polygon fill="#480087" points="211.9,55 229,55 229,72.1 	"/>
	<polygon fill="#C1272D" points="193.9,55 211,55 211,72.1 	"/>
	<polygon fill="#2F58F2" points="211.9,73 229,73 229,90.1 	"/>
	<polygon fill="#C1272D" points="211.9,91 229,91 229,108.1 	"/>
	<polygon fill="#1B1464" points="193.9,145 211,145 211,162.1 	"/>
	<polygon fill="#480087" points="193.9,181 211,181 211,198.1 	"/>
	<polygon fill="#C1272D" points="193.9,109 211,109 211,126.1 	"/>
	<polygon fill="#2F58F2" points="193.9,127 211,127 211,144.1 	"/>
	<polygon fill="#1B1464" points="210.9,72 194,72 194,55.1 	"/>
	<polygon fill="#1B1464" points="228.9,90 212,90 212,73.1 	"/>
	<polygon fill="#480087" points="228.9,144 212,144 212,127.1 	"/>
	<polygon fill="#1B1464" points="228.9,180 212,180 212,163.1 	"/>
	<polygon fill="#C1272D" points="210.9,144 194,144 194,127.1 	"/>
	<polygon fill="#2F58F2" points="211.9,181 229,181 229,198.1 	"/>
	<polygon fill="#1B1464" points="230,126.1 230,109 246.9,109 	"/>
	<polygon fill="#C1272D" points="228.9,198 212,198 212,181.1 	"/>
	<polygon fill="#C1272D" points="230,72.1 230,55 246.9,55 	"/>
	<polygon fill="#2F58F2" points="247,55.1 247,72 229.9,72 	"/>
	<polygon fill="#480087" points="265,91.1 265,108 247.9,108 	"/>
	<polygon fill="#1B1464" points="265,55.1 265,72 247.9,72 	"/>
	<polygon fill="#1B1464" points="211.9,199 229,199 229,216.1 	"/>
</g>
<g id="Layer_9">
	<g>
		<path d="M-1,0v254h1945V0H-1z M260,110.5c0,22.7-10.9,33.5-33.2,33.5H216v54h-22V55h32.8c22.3,0,33.2,14.3,33.2,37.1V110.5z
			 M336,164.9c0,22.7-11.6,35.7-33.5,35.7c-21.9,0-33.5-13-33.5-35.7V91c0-22.7,11.6-35.7,33.5-35.7c21.9,0,33.5,13,33.5,35.7V164.9
			z M397.4,198c-1.2-4-2.4-4.9-2.4-16.5v-22.3c0-13.2-4.1-19.2-14.2-19.2H373v58h-22V55h33.4c23.1,0,33.6,12.7,33.6,34.6v11.2
			c0,14.6-5,23.9-15,28.6v0.4c11,4.7,15,15.2,15,30v21.9c0,6.9-0.1,10.2,2.2,16.2H397.4z M495,76h-24v122h-22V76h-23V55h69V76z
			 M564,76h-37v43h29v20h-29v59h-22V55h59V76z M640,164.9c0,22.7-11.6,35.7-33.5,35.7c-21.9,0-33.5-13-33.5-35.7V91
			c0-22.7,11.6-35.7,33.5-35.7c21.9,0,33.5,13,33.5,35.7V164.9z M714,198h-59V55h22v122h37V198z M746,198h-22V55h22V198z M828,164.9
			c0,22.7-12.1,35.7-34,35.7c-21.9,0-34-13-34-35.7V91c0-22.7,12.1-35.7,34-35.7c21.9,0,34,13,34,35.7V164.9z"/>
		<path d="M606.5,75.6c-7.1,0-11.5,3.9-11.5,14v76.7c0,10.1,4.4,14,11.5,14c7.1,0,11.5-3.9,11.5-14V89.6
			C618,79.5,613.6,75.6,606.5,75.6z"/>
		<path d="M302.5,75.6c-7.1,0-11.5,3.9-11.5,14v76.7c0,10.1,4.4,14,11.5,14c7.1,0,11.5-3.9,11.5-14V89.6
			C314,79.5,309.6,75.6,302.5,75.6z"/>
		<path d="M226.8,76H216v48h10.8c7.1,0,11.2-1.9,11.2-12.1V90.6C238,80.5,233.9,76,226.8,76z"/>
		<path d="M794.5,75.6c-7.1,0-11.5,3.9-11.5,14v76.7c0,10.1,4.4,14,11.5,14c7.1,0,11.5-3.9,11.5-14V89.6
			C806,79.5,801.6,75.6,794.5,75.6z"/>
		<path d="M383.8,76H373v43h8.8c8.3,0,13.2-1.8,13.2-13.1v-14C395,81.7,391.7,76,383.8,76z"/>
	</g>
</g>
<g id="Layer_6">
	<g>
		<path fill="none" stroke="#BDCCD4" stroke-miterlimit="10" d="M260.1,90.8v18.5c0,22.7-11,35.1-33.3,35.1h-10.6v53.4h-22.3V55.4
			h32.9C249.2,55.4,260.1,68,260.1,90.8z M216.3,75.9v48.1h10.6c7.1,0,11-3.2,11-13.4V89.3c0-10.1-3.9-13.4-11-13.4H216.3z"/>
	</g>
</g>
</svg>
