<?xml version="1.0" encoding="utf-8"?>
<!-- Generator: Adobe Illustrator 18.1.0, SVG Export Plug-In . SVG Version: 6.00 Build 0)  -->
<svg version="1.1" xmlns="http://www.w3.org/2000/svg" xmlns:xlink="http://www.w3.org/1999/xlink" x="0px" y="0px"
	 viewBox="0 0 1943.7 253" enable-background="new 0 0 1943.7 253" xml:space="preserve">
<g id="Layer_1">
	<polygon fill="#FFFFFF" points="1943.7,251.4 0,251.3 0,0 1943.7,0.2 	"/>
</g>
<g id="Layer_7">
	<path fill="none" stroke="#92C3F4" stroke-miterlimit="10" d="M1964.3-0.4"/>
	<line fill="none" stroke="#92C3F4" stroke-miterlimit="10" x1="193.2" y1="0" x2="193.2" y2="253"/>
	<line fill="none" stroke="#92C3F4" stroke-miterlimit="10" x1="211.2" y1="0" x2="211.2" y2="253"/>
	<line fill="none" stroke="#92C3F4" stroke-miterlimit="10" x1="229.2" y1="0" x2="229.2" y2="253"/>
	<line fill="none" stroke="#92C3F4" stroke-miterlimit="10" x1="247.2" y1="0" x2="247.2" y2="253"/>
	<line fill="none" stroke="#92C3F4" stroke-miterlimit="10" x1="265.2" y1="0" x2="265.2" y2="253"/>
	<line fill="none" stroke="#92C3F4" stroke-miterlimit="10" x1="283.2" y1="0" x2="283.2" y2="253"/>
	<line fill="none" stroke="#92C3F4" stroke-miterlimit="10" x1="301.2" y1="0" x2="301.2" y2="253"/>
	<line fill="none" stroke="#92C3F4" stroke-miterlimit="10" x1="319.2" y1="0" x2="319.2" y2="253"/>
	<line fill="none" stroke="#92C3F4" stroke-miterlimit="10" x1="337.2" y1="0" x2="337.2" y2="253"/>
	<line fill="none" stroke="#92C3F4" stroke-miterlimit="10" x1="355.2" y1="0" x2="355.2" y2="253"/>
	<line fill="none" stroke="#92C3F4" stroke-miterlimit="10" x1="373.2" y1="0" x2="373.2" y2="253"/>
	<line fill="none" stroke="#92C3F4" stroke-miterlimit="10" x1="391.2" y1="0" x2="391.2" y2="253"/>
	<line fill="none" stroke="#92C3F4" stroke-miterlimit="10" x1="409.2" y1="0" x2="409.2" y2="253"/>
	<line fill="none" stroke="#92C3F4" stroke-miterlimit="10" x1="427.2" y1="0" x2="427.2" y2="253"/>
	<line fill="none" stroke="#92C3F4" stroke-miterlimit="10" x1="445.2" y1="0" x2="445.2" y2="253"/>
	<line fill="none" stroke="#92C3F4" stroke-miterlimit="10" x1="463.2" y1="0" x2="463.2" y2="253"/>
	<line fill="none" stroke="#92C3F4" stroke-miterlimit="10" x1="481.2" y1="0" x2="481.2" y2="253"/>
	<line fill="none" stroke="#92C3F4" stroke-miterlimit="10" x1="499.2" y1="0" x2="499.2" y2="253"/>
	<line fill="none" stroke="#92C3F4" stroke-miterlimit="10" x1="517.2" y1="0" x2="517.2" y2="253"/>
	<line fill="none" stroke="#92C3F4" stroke-miterlimit="10" x1="535.2" y1="0" x2="535.2" y2="253"/>
	<line fill="none" stroke="#92C3F4" stroke-miterlimit="10" x1="553.2" y1="0" x2="553.2" y2="253"/>
	<line fill="none" stroke="#92C3F4" stroke-miterlimit="10" x1="571.2" y1="0" x2="571.2" y2="253"/>
	<line fill="none" stroke="#92C3F4" stroke-miterlimit="10" x1="589.2" y1="0" x2="589.2" y2="253"/>
	<line fill="none" stroke="#92C3F4" stroke-miterlimit="10" x1="607.2" y1="0" x2="607.2" y2="253"/>
	<line fill="none" stroke="#92C3F4" stroke-miterlimit="10" x1="625.2" y1="0" x2="625.2" y2="253"/>
	<line fill="none" stroke="#92C3F4" stroke-miterlimit="10" x1="643.2" y1="0" x2="643.2" y2="253"/>
	<line fill="none" stroke="#92C3F4" stroke-miterlimit="10" x1="661.2" y1="0" x2="661.2" y2="253"/>
	<line fill="none" stroke="#92C3F4" stroke-miterlimit="10" x1="679.2" y1="0" x2="679.2" y2="253"/>
	<line fill="none" stroke="#92C3F4" stroke-miterlimit="10" x1="697.2" y1="0" x2="697.2" y2="253"/>
	<line fill="none" stroke="#92C3F4" stroke-miterlimit="10" x1="715.2" y1="0" x2="715.2" y2="253"/>
	<line fill="none" stroke="#92C3F4" stroke-miterlimit="10" x1="733.2" y1="0" x2="733.2" y2="253"/>
	<line fill="none" stroke="#92C3F4" stroke-miterlimit="10" x1="751.2" y1="0" x2="751.2" y2="253"/>
	<line fill="none" stroke="#92C3F4" stroke-miterlimit="10" x1="769.2" y1="0" x2="769.2" y2="253"/>
	<line fill="none" stroke="#92C3F4" stroke-miterlimit="10" x1="787.2" y1="0" x2="787.2" y2="253"/>
	<line fill="none" stroke="#92C3F4" stroke-miterlimit="10" x1="805.2" y1="0" x2="805.2" y2="253"/>
	<line fill="none" stroke="#92C3F4" stroke-miterlimit="10" x1="823.2" y1="0" x2="823.2" y2="253"/>
	<line fill="none" stroke="#92C3F4" stroke-miterlimit="10" x1="841.2" y1="0" x2="841.2" y2="253"/>
	<line fill="none" stroke="#92C3F4" stroke-miterlimit="10" x1="859.2" y1="0" x2="859.2" y2="253"/>
	<line fill="none" stroke="#92C3F4" stroke-miterlimit="10" x1="877.2" y1="0" x2="877.2" y2="253"/>
	<line fill="none" stroke="#92C3F4" stroke-miterlimit="10" x1="895.2" y1="0" x2="895.2" y2="253"/>
	<line fill="none" stroke="#92C3F4" stroke-miterlimit="10" x1="913.2" y1="0" x2="913.2" y2="253"/>
	<line fill="none" stroke="#92C3F4" stroke-miterlimit="10" x1="931.2" y1="0" x2="931.2" y2="253"/>
	<line fill="none" stroke="#92C3F4" stroke-miterlimit="10" x1="949.2" y1="0" x2="949.2" y2="253"/>
	<line fill="none" stroke="#92C3F4" stroke-miterlimit="10" x1="967.2" y1="0" x2="967.2" y2="253"/>
	<line fill="none" stroke="#92C3F4" stroke-miterlimit="10" x1="985.2" y1="0" x2="985.2" y2="253"/>
	<line fill="none" stroke="#92C3F4" stroke-miterlimit="10" x1="1003.2" y1="0" x2="1003.2" y2="253"/>
	<line fill="none" stroke="#92C3F4" stroke-miterlimit="10" x1="1021.2" y1="0" x2="1021.2" y2="253"/>
	<line fill="none" stroke="#92C3F4" stroke-miterlimit="10" x1="1039.2" y1="0" x2="1039.2" y2="253"/>
	<line fill="none" stroke="#92C3F4" stroke-miterlimit="10" x1="1057.2" y1="0" x2="1057.2" y2="253"/>
	<line fill="none" stroke="#92C3F4" stroke-miterlimit="10" x1="1075.2" y1="0" x2="1075.2" y2="253"/>
	<line fill="none" stroke="#92C3F4" stroke-miterlimit="10" x1="1093.2" y1="0" x2="1093.2" y2="253"/>
	<line fill="none" stroke="#92C3F4" stroke-miterlimit="10" x1="1111.2" y1="0" x2="1111.2" y2="253"/>
	<line fill="none" stroke="#92C3F4" stroke-miterlimit="10" x1="1129.2" y1="0" x2="1129.2" y2="253"/>
	<line fill="none" stroke="#92C3F4" stroke-miterlimit="10" x1="1147.2" y1="0" x2="1147.2" y2="253"/>
	<line fill="none" stroke="#92C3F4" stroke-miterlimit="10" x1="1165.2" y1="0" x2="1165.2" y2="253"/>
	<line fill="none" stroke="#92C3F4" stroke-miterlimit="10" x1="1183.2" y1="0" x2="1183.2" y2="253"/>
	<line fill="none" stroke="#92C3F4" stroke-miterlimit="10" x1="1201.2" y1="0" x2="1201.2" y2="253"/>
	<line fill="none" stroke="#92C3F4" stroke-miterlimit="10" x1="1219.2" y1="0" x2="1219.2" y2="253"/>
	<line fill="none" stroke="#92C3F4" stroke-miterlimit="10" x1="1237.2" y1="0" x2="1237.2" y2="253"/>
	<line fill="none" stroke="#92C3F4" stroke-miterlimit="10" x1="1255.2" y1="0" x2="1255.2" y2="253"/>
	<line fill="none" stroke="#92C3F4" stroke-miterlimit="10" x1="1273.2" y1="0" x2="1273.2" y2="253"/>
	<line fill="none" stroke="#92C3F4" stroke-miterlimit="10" x1="1291.2" y1="0" x2="1291.2" y2="253"/>
	<line fill="none" stroke="#92C3F4" stroke-miterlimit="10" x1="1309.2" y1="0" x2="1309.2" y2="253"/>
	<line fill="none" stroke="#92C3F4" stroke-miterlimit="10" x1="1327.2" y1="0" x2="1327.2" y2="253"/>
	<line fill="none" stroke="#92C3F4" stroke-miterlimit="10" x1="1345.2" y1="0" x2="1345.2" y2="253"/>
	<line fill="none" stroke="#92C3F4" stroke-miterlimit="10" x1="1363.2" y1="0" x2="1363.2" y2="253"/>
	<line fill="none" stroke="#92C3F4" stroke-miterlimit="10" x1="1381.2" y1="0" x2="1381.2" y2="253"/>
	<line fill="none" stroke="#92C3F4" stroke-miterlimit="10" x1="1399.2" y1="0" x2="1399.2" y2="253"/>
	<line fill="none" stroke="#92C3F4" stroke-miterlimit="10" x1="1417.2" y1="0" x2="1417.2" y2="253"/>
	<line fill="none" stroke="#92C3F4" stroke-miterlimit="10" x1="1435.2" y1="0" x2="1435.2" y2="253"/>
	<line fill="none" stroke="#92C3F4" stroke-miterlimit="10" x1="1453.2" y1="0" x2="1453.2" y2="253"/>
	<line fill="none" stroke="#92C3F4" stroke-miterlimit="10" x1="1471.2" y1="0" x2="1471.2" y2="253"/>
	<line fill="none" stroke="#92C3F4" stroke-miterlimit="10" x1="1489.2" y1="0" x2="1489.2" y2="253"/>
	<line fill="none" stroke="#92C3F4" stroke-miterlimit="10" x1="1507.2" y1="0" x2="1507.2" y2="253"/>
	<line fill="none" stroke="#92C3F4" stroke-miterlimit="10" x1="1525.2" y1="0" x2="1525.2" y2="253"/>
	<line fill="none" stroke="#92C3F4" stroke-miterlimit="10" x1="1543.2" y1="0" x2="1543.2" y2="253"/>
	<line fill="none" stroke="#92C3F4" stroke-miterlimit="10" x1="1561.2" y1="0" x2="1561.2" y2="253"/>
	<line fill="none" stroke="#92C3F4" stroke-miterlimit="10" x1="1579.2" y1="0" x2="1579.2" y2="253"/>
	<line fill="none" stroke="#92C3F4" stroke-miterlimit="10" x1="1597.2" y1="0" x2="1597.2" y2="253"/>
	<line fill="none" stroke="#92C3F4" stroke-miterlimit="10" x1="1615.2" y1="0" x2="1615.2" y2="253"/>
	<line fill="none" stroke="#92C3F4" stroke-miterlimit="10" x1="1633.2" y1="0" x2="1633.2" y2="253"/>
	<line fill="none" stroke="#92C3F4" stroke-miterlimit="10" x1="1651.2" y1="0" x2="1651.2" y2="253"/>
	<line fill="none" stroke="#92C3F4" stroke-miterlimit="10" x1="1669.2" y1="0" x2="1669.2" y2="253"/>
	<line fill="none" stroke="#92C3F4" stroke-miterlimit="10" x1="1687.2" y1="0" x2="1687.2" y2="253"/>
	<line fill="none" stroke="#92C3F4" stroke-miterlimit="10" x1="1705.2" y1="0" x2="1705.2" y2="253"/>
	<line fill="none" stroke="#92C3F4" stroke-miterlimit="10" x1="1723.2" y1="0" x2="1723.2" y2="253"/>
	<line fill="none" stroke="#92C3F4" stroke-miterlimit="10" x1="1741.2" y1="0" x2="1741.2" y2="253"/>
	<line fill="none" stroke="#92C3F4" stroke-miterlimit="10" x1="-0.3" y1="18.5" x2="1943.7" y2="18.5"/>
	<line fill="none" stroke="#92C3F4" stroke-miterlimit="10" x1="-0.3" y1="36.5" x2="1943.7" y2="36.5"/>
	<line fill="none" stroke="#92C3F4" stroke-miterlimit="10" x1="-0.3" y1="54.5" x2="1943.7" y2="54.5"/>
	<line fill="none" stroke="#92C3F4" stroke-miterlimit="10" x1="-0.3" y1="72.5" x2="1943.7" y2="72.5"/>
	<line fill="none" stroke="#92C3F4" stroke-miterlimit="10" x1="-0.3" y1="90.5" x2="1943.7" y2="90.5"/>
	<line fill="none" stroke="#92C3F4" stroke-miterlimit="10" x1="-0.3" y1="0.5" x2="1943.7" y2="0.5"/>
	<line fill="none" stroke="#92C3F4" stroke-miterlimit="10" x1="-0.3" y1="108.5" x2="1943.7" y2="108.5"/>
	<line fill="none" stroke="#92C3F4" stroke-miterlimit="10" x1="-0.3" y1="126.5" x2="1943.7" y2="126.5"/>
	<line fill="none" stroke="#92C3F4" stroke-miterlimit="10" x1="-0.3" y1="144.5" x2="1943.7" y2="144.5"/>
	<line fill="none" stroke="#92C3F4" stroke-miterlimit="10" x1="-0.3" y1="162.5" x2="1943.7" y2="162.5"/>
	<line fill="none" stroke="#92C3F4" stroke-miterlimit="10" x1="-0.3" y1="180.5" x2="1943.7" y2="180.5"/>
	<line fill="none" stroke="#92C3F4" stroke-miterlimit="10" x1="-0.3" y1="198.5" x2="1943.7" y2="198.5"/>
	<line fill="none" stroke="#92C3F4" stroke-miterlimit="10" x1="-0.3" y1="216.5" x2="1943.7" y2="216.5"/>
	<line fill="none" stroke="#92C3F4" stroke-miterlimit="10" x1="-0.3" y1="234.5" x2="1943.7" y2="234.5"/>
	<line fill="none" stroke="#92C3F4" stroke-miterlimit="10" x1="-0.3" y1="252.5" x2="1943.7" y2="252.5"/>
	<path fill="none" stroke="#FF0000" stroke-miterlimit="10" d="M1949.8,198.6"/>
	<path fill="none" stroke="#000000" stroke-miterlimit="10" d="M1181.2,545.6"/>
	<line fill="none" stroke="#92C3F4" stroke-miterlimit="10" x1="49.2" y1="0" x2="49.2" y2="253"/>
	<line fill="none" stroke="#92C3F4" stroke-miterlimit="10" x1="67.2" y1="0" x2="67.2" y2="253"/>
	<line fill="none" stroke="#92C3F4" stroke-miterlimit="10" x1="85.2" y1="0" x2="85.2" y2="253"/>
	<line fill="none" stroke="#92C3F4" stroke-miterlimit="10" x1="103.2" y1="0" x2="103.2" y2="253"/>
	<line fill="none" stroke="#92C3F4" stroke-miterlimit="10" x1="121.2" y1="0" x2="121.2" y2="253"/>
	<line fill="none" stroke="#92C3F4" stroke-miterlimit="10" x1="139.2" y1="0" x2="139.2" y2="253"/>
	<line fill="none" stroke="#92C3F4" stroke-miterlimit="10" x1="157.2" y1="0" x2="157.2" y2="253"/>
	<line fill="none" stroke="#92C3F4" stroke-miterlimit="10" x1="175.2" y1="0" x2="175.2" y2="253"/>
	<path fill="none" stroke="#92C3F4" stroke-miterlimit="10" d="M1154.7-282.4"/>
	<path fill="none" stroke="#92C3F4" stroke-miterlimit="10" d="M-40.8,252.9"/>
	<path fill="none" stroke="#92C3F4" stroke-miterlimit="10" d="M-22.8,252.9"/>
	<path fill="none" stroke="#92C3F4" stroke-miterlimit="10" d="M-4.8,252.9"/>
	<line fill="none" stroke="#92C3F4" stroke-miterlimit="10" x1="13.2" y1="0" x2="13.2" y2="253"/>
	<line fill="none" stroke="#92C3F4" stroke-miterlimit="10" x1="31.2" y1="0" x2="31.2" y2="253"/>
	<line fill="none" stroke="#92C3F4" stroke-miterlimit="10" x1="1759.2" y1="0" x2="1759.2" y2="253"/>
	<line fill="none" stroke="#92C3F4" stroke-miterlimit="10" x1="1777.2" y1="0" x2="1777.2" y2="253"/>
	<line fill="none" stroke="#92C3F4" stroke-miterlimit="10" x1="1795.2" y1="0" x2="1795.2" y2="253"/>
	<line fill="none" stroke="#92C3F4" stroke-miterlimit="10" x1="1813.2" y1="0" x2="1813.2" y2="253"/>
	<line fill="none" stroke="#92C3F4" stroke-miterlimit="10" x1="1831.2" y1="0" x2="1831.2" y2="253"/>
	<line fill="none" stroke="#92C3F4" stroke-miterlimit="10" x1="1849.2" y1="0" x2="1849.2" y2="253"/>
	<line fill="none" stroke="#92C3F4" stroke-miterlimit="10" x1="1867.2" y1="0" x2="1867.2" y2="253"/>
	<line fill="none" stroke="#92C3F4" stroke-miterlimit="10" x1="1885.2" y1="0" x2="1885.2" y2="253"/>
	<line fill="none" stroke="#92C3F4" stroke-miterlimit="10" x1="1903.2" y1="0" x2="1903.2" y2="253"/>
	<line fill="none" stroke="#92C3F4" stroke-miterlimit="10" x1="1921.2" y1="0" x2="1921.2" y2="253"/>
	<line fill="none" stroke="#92C3F4" stroke-miterlimit="10" x1="1939.2" y1="0" x2="1939.2" y2="253"/>
	<path fill="none" stroke="#92C3F4" stroke-miterlimit="10" d="M1957.2,0.1"/>
	<path fill="none" stroke="#92C3F4" stroke-miterlimit="10" d="M1975.2,0.1"/>
</g>
<g id="Layer_17">
	<polygon fill="#FFFFFF" stroke="#92C3F4" stroke-miterlimit="10" points="653.2,54.6 671.2,54.6 671.2,71.6 671.2,72.6 653.2,72.6 
			"/>
	<path fill="#FFFFFF" stroke="#92C3F4" stroke-miterlimit="10" d="M671.2,72.6l-18-18L671.2,72.6z"/>
	<polygon fill="#FFFFFF" stroke="#92C3F4" stroke-miterlimit="10" points="671.2,54.6 689.2,54.6 689.2,71.6 689.2,72.6 671.2,72.6 
			"/>
	<path fill="#FFFFFF" stroke="#92C3F4" stroke-miterlimit="10" d="M689.2,72.6l-18-18L689.2,72.6z"/>
	<polygon fill="#FFFFFF" stroke="#92C3F4" stroke-miterlimit="10" points="725.2,144.6 707.2,144.6 707.2,127.6 707.2,126.6 
		725.2,126.6 	"/>
	<path fill="#FFFFFF" stroke="#92C3F4" stroke-miterlimit="10" d="M707.2,126.6l18,18L707.2,126.6z"/>
	<polygon fill="#FFFFFF" stroke="#92C3F4" stroke-miterlimit="10" points="707.2,126.6 707.2,144.6 690.1,144.6 689.2,144.6 
		689.2,126.6 	"/>
	<path fill="#FFFFFF" stroke="#92C3F4" stroke-miterlimit="10" d="M689.2,144.6l18-18L689.2,144.6z"/>
	<polygon fill="#FFFFFF" stroke="#92C3F4" stroke-miterlimit="10" points="671.2,72.6 671.2,90.6 654.1,90.6 653.2,90.6 653.2,72.6 
			"/>
	<path fill="#FFFFFF" stroke="#92C3F4" stroke-miterlimit="10" d="M653.2,90.6l18-18L653.2,90.6z"/>
	<polygon fill="#FFFFFF" stroke="#92C3F4" stroke-miterlimit="10" points="689.2,90.6 671.2,90.6 671.2,73.6 671.2,72.6 689.2,72.6 
			"/>
	<path fill="#FFFFFF" stroke="#92C3F4" stroke-miterlimit="10" d="M671.2,72.6l18,18L671.2,72.6z"/>
	<polygon fill="#FFFFFF" stroke="#92C3F4" stroke-miterlimit="10" points="671.2,90.6 671.2,108.6 654.1,108.6 653.2,108.6 
		653.2,90.6 	"/>
	<path fill="#FFFFFF" stroke="#92C3F4" stroke-miterlimit="10" d="M653.2,108.6l18-18L653.2,108.6z"/>
	<polygon fill="#FFFFFF" stroke="#92C3F4" stroke-miterlimit="10" points="671.2,90.6 689.2,90.6 689.2,107.6 689.2,108.6 
		671.2,108.6 	"/>
	<path fill="#FFFFFF" stroke="#92C3F4" stroke-miterlimit="10" d="M689.2,108.6l-18-18L689.2,108.6z"/>
	<polygon fill="#FFFFFF" stroke="#92C3F4" stroke-miterlimit="10" points="653.2,108.6 671.2,108.6 671.2,125.6 671.2,126.6 
		653.2,126.6 	"/>
	<path fill="#FFFFFF" stroke="#92C3F4" stroke-miterlimit="10" d="M671.2,126.6l-18-18L671.2,126.6z"/>
	<polygon fill="#FFFFFF" stroke="#92C3F4" stroke-miterlimit="10" points="671.2,126.6 671.2,108.6 688.2,108.6 689.2,108.6 
		689.2,126.6 	"/>
	<path fill="#FFFFFF" stroke="#92C3F4" stroke-miterlimit="10" d="M689.2,108.6l-18,18L689.2,108.6z"/>
	<polygon fill="#FFFFFF" stroke="#92C3F4" stroke-miterlimit="10" points="653.2,126.6 671.2,126.6 671.2,143.6 671.2,144.6 
		653.2,144.6 	"/>
	<path fill="#FFFFFF" stroke="#92C3F4" stroke-miterlimit="10" d="M671.2,144.6l-18-18L671.2,144.6z"/>
	<polygon fill="#FFFFFF" stroke="#92C3F4" stroke-miterlimit="10" points="671.2,126.6 689.2,126.6 689.2,143.6 689.2,144.6 
		671.2,144.6 	"/>
	<path fill="#FFFFFF" stroke="#92C3F4" stroke-miterlimit="10" d="M689.2,144.6l-18-18L689.2,144.6z"/>
	<polygon fill="#FFFFFF" stroke="#92C3F4" stroke-miterlimit="10" points="653.2,144.6 671.2,144.6 671.2,161.6 671.2,162.6 
		653.2,162.6 	"/>
	<path fill="#FFFFFF" stroke="#92C3F4" stroke-miterlimit="10" d="M671.2,162.6l-18-18L671.2,162.6z"/>
	<polygon fill="#FFFFFF" stroke="#92C3F4" stroke-miterlimit="10" points="689.2,144.6 689.2,162.6 672.1,162.6 671.2,162.6 
		671.2,144.6 	"/>
	<path fill="#FFFFFF" stroke="#92C3F4" stroke-miterlimit="10" d="M671.2,162.6l18-18L671.2,162.6z"/>
	<polygon fill="#FFFFFF" stroke="#92C3F4" stroke-miterlimit="10" points="653.2,180.6 653.2,162.6 670.2,162.6 671.2,162.6 
		671.2,180.6 	"/>
	<path fill="#FFFFFF" stroke="#92C3F4" stroke-miterlimit="10" d="M671.2,162.6l-18,18L671.2,162.6z"/>
	<polygon fill="#FFFFFF" stroke="#92C3F4" stroke-miterlimit="10" points="671.2,162.6 689.2,162.6 689.2,179.6 689.2,180.6 
		671.2,180.6 	"/>
	<path fill="#FFFFFF" stroke="#92C3F4" stroke-miterlimit="10" d="M689.2,180.6l-18-18L689.2,180.6z"/>
	<polygon fill="#FFFFFF" stroke="#92C3F4" stroke-miterlimit="10" points="653.2,180.6 671.2,180.6 671.2,197.6 671.2,198.6 
		653.2,198.6 	"/>
	<path fill="#FFFFFF" stroke="#92C3F4" stroke-miterlimit="10" d="M671.2,198.6l-18-18L671.2,198.6z"/>
	<polygon fill="#FFFFFF" stroke="#92C3F4" stroke-miterlimit="10" points="671.2,180.6 689.2,180.6 689.2,197.6 689.2,198.6 
		671.2,198.6 	"/>
	<path fill="#FFFFFF" stroke="#92C3F4" stroke-miterlimit="10" d="M689.2,198.6l-18-18L689.2,198.6z"/>
	<polygon fill="#FFFFFF" stroke="#92C3F4" stroke-miterlimit="10" points="671.2,198.6 671.2,216.6 654.1,216.6 653.2,216.6 
		653.2,198.6 	"/>
	<path fill="#FFFFFF" stroke="#92C3F4" stroke-miterlimit="10" d="M653.2,216.6l18-18L653.2,216.6z"/>
	<polygon fill="#FFFFFF" stroke="#92C3F4" stroke-miterlimit="10" points="671.2,198.6 689.2,198.6 689.2,215.6 689.2,216.6 
		671.2,216.6 	"/>
	<path fill="#FFFFFF" stroke="#92C3F4" stroke-miterlimit="10" d="M689.2,216.6l-18-18L689.2,216.6z"/>
	<polygon fill="#FFFFFF" stroke="#92C3F4" stroke-miterlimit="10" points="689.2,126.6 689.2,108.6 706.2,108.6 707.2,108.6 
		707.2,126.6 	"/>
	<path fill="#FFFFFF" stroke="#92C3F4" stroke-miterlimit="10" d="M707.2,108.6l-18,18L707.2,108.6z"/>
	<polygon fill="#FFFFFF" stroke="#92C3F4" stroke-miterlimit="10" points="707.2,108.6 689.2,108.6 689.2,91.6 689.2,90.6 
		707.2,90.6 	"/>
	<path fill="#FFFFFF" stroke="#92C3F4" stroke-miterlimit="10" d="M689.2,90.6l18,18L689.2,90.6z"/>
	<polygon fill="#FFFFFF" stroke="#92C3F4" stroke-miterlimit="10" points="707.2,108.6 725.2,108.6 725.2,125.6 725.2,126.6 
		707.2,126.6 	"/>
	<path fill="#FFFFFF" stroke="#92C3F4" stroke-miterlimit="10" d="M725.2,126.6l-18-18L725.2,126.6z"/>
	<polygon fill="#FFFFFF" stroke="#92C3F4" stroke-miterlimit="10" points="707.2,108.6 707.2,90.6 724.2,90.6 725.2,90.6 
		725.2,108.6 	"/>
	<path fill="#FFFFFF" stroke="#92C3F4" stroke-miterlimit="10" d="M725.2,90.6l-18,18L725.2,90.6z"/>
	<polygon fill="#FFFFFF" stroke="#92C3F4" stroke-miterlimit="10" points="707.2,90.6 689.2,90.6 689.2,73.6 689.2,72.6 707.2,72.6 
			"/>
	<path fill="#FFFFFF" stroke="#92C3F4" stroke-miterlimit="10" d="M689.2,72.6l18,18L689.2,72.6z"/>
	<polygon fill="#FFFFFF" stroke="#92C3F4" stroke-miterlimit="10" points="689.2,72.6 689.2,54.6 706.2,54.6 707.2,54.6 707.2,72.6 
			"/>
	<path fill="#FFFFFF" stroke="#92C3F4" stroke-miterlimit="10" d="M707.2,54.6l-18,18L707.2,54.6z"/>
	<polygon fill="#FFFFFF" stroke="#92C3F4" stroke-miterlimit="10" points="725.2,90.6 707.2,90.6 707.2,73.6 707.2,72.6 725.2,72.6 
			"/>
	<path fill="#FFFFFF" stroke="#92C3F4" stroke-miterlimit="10" d="M707.2,72.6l18,18L707.2,72.6z"/>
	<polygon fill="#FFFFFF" stroke="#92C3F4" stroke-miterlimit="10" points="707.2,72.6 707.2,54.6 724.2,54.6 725.2,54.6 725.2,72.6 
			"/>
	<path fill="#FFFFFF" stroke="#92C3F4" stroke-miterlimit="10" d="M725.2,54.6l-18,18L725.2,54.6z"/>
</g>
<g id="Layer_18">
	<polygon fill="#C1272D" points="724.7,144 707.7,144 707.7,127.1 	"/>
	<polygon fill="#1B1464" points="706.7,127.1 706.7,144 689.7,144 	"/>
	<polygon fill="#2F58F2" points="653.7,108.1 653.7,91 670.7,91 	"/>
	<polygon fill="#1B1464" points="671.7,126.1 671.7,109 688.7,109 	"/>
	<polygon fill="#C1272D" points="671.7,162.1 671.7,145 688.7,145 	"/>
	<polygon fill="#2F58F2" points="689.7,144.1 689.7,127 706.7,127 	"/>
	<polygon fill="#C1272D" points="670.7,73.1 670.7,90 653.7,90 	"/>
	<polygon fill="#480087" points="670.7,91.1 670.7,108 653.7,108 	"/>
	<polygon fill="#2F58F2" points="688.7,109.1 688.7,126 671.7,126 	"/>
	<polygon fill="#2F58F2" points="688.7,145.1 688.7,162 671.7,162 	"/>
	<polygon fill="#2F58F2" points="653.7,216.1 653.7,199 670.7,199 	"/>
	<polygon fill="#C1272D" points="670.7,199.1 670.7,216 653.7,216 	"/>
	<polygon fill="#C1272D" points="724.7,126 707.7,126 707.7,109.1 	"/>
	<polygon fill="#480087" points="706.7,90 689.7,90 689.7,73.1 	"/>
	<polygon fill="#2F58F2" points="707.7,109 724.7,109 724.7,126.1 	"/>
	<polygon fill="#2F58F2" points="724.7,90 707.7,90 707.7,73.1 	"/>
	<polygon fill="#C1272D" points="707.7,73 724.7,73 724.7,90.1 	"/>
	<polygon fill="#2F58F2" points="706.7,108 689.7,108 689.7,91.1 	"/>
	<polygon fill="#C1272D" points="689.7,91 706.7,91 706.7,108.1 	"/>
	<polygon fill="#480087" points="653.7,180.1 653.7,163 670.7,163 	"/>
	<polygon fill="#C1272D" points="670.7,163.1 670.7,180 653.7,180 	"/>
	<polygon fill="#480087" points="671.7,55 688.7,55 688.7,72.1 	"/>
	<polygon fill="#C1272D" points="653.7,55 670.7,55 670.7,72.1 	"/>
	<polygon fill="#2F58F2" points="671.7,73 688.7,73 688.7,90.1 	"/>
	<polygon fill="#C1272D" points="671.7,91 688.7,91 688.7,108.1 	"/>
	<polygon fill="#1B1464" points="653.7,145 670.7,145 670.7,162.1 	"/>
	<polygon fill="#480087" points="653.7,181 670.7,181 670.7,198.1 	"/>
	<polygon fill="#C1272D" points="653.7,109 670.7,109 670.7,126.1 	"/>
	<polygon fill="#2F58F2" points="653.7,127 670.7,127 670.7,144.1 	"/>
	<polygon fill="#1B1464" points="670.7,72 653.7,72 653.7,55.1 	"/>
	<polygon fill="#1B1464" points="688.7,90 671.7,90 671.7,73.1 	"/>
	<polygon fill="#480087" points="688.7,144 671.7,144 671.7,127.1 	"/>
	<polygon fill="#1B1464" points="688.7,180 671.7,180 671.7,163.1 	"/>
	<polygon fill="#C1272D" points="670.7,144 653.7,144 653.7,127.1 	"/>
	<polygon fill="#2F58F2" points="671.7,181 688.7,181 688.7,198.1 	"/>
	<polygon fill="#1B1464" points="689.7,126.1 689.7,109 706.7,109 	"/>
	<polygon fill="#C1272D" points="688.7,198 671.7,198 671.7,181.1 	"/>
	<polygon fill="#C1272D" points="689.7,72.1 689.7,55 706.7,55 	"/>
	<polygon fill="#2F58F2" points="706.7,55.1 706.7,72 689.7,72 	"/>
	<polygon fill="#480087" points="724.7,91.1 724.7,108 707.7,108 	"/>
	<polygon fill="#1B1464" points="724.7,55.1 724.7,72 707.7,72 	"/>
	<polygon fill="#1B1464" points="671.7,199 688.7,199 688.7,216.1 	"/>
</g>
<g id="Layer_8">
	<g>
		<path d="M1067.2,75.1c-7.1,0-11.5,3.9-11.5,14v76.7c0,10.1,4.4,14,11.5,14c7.1,0,11.5-3.9,11.5-14V89.1
			C1078.7,79,1074.3,75.1,1067.2,75.1z"/>
		<path d="M763.2,75.1c-7.1,0-11.5,3.9-11.5,14v76.7c0,10.1,4.4,14,11.5,14c7.1,0,11.5-3.9,11.5-14V89.1
			C774.7,79,770.3,75.1,763.2,75.1z"/>
		<path d="M687.6,76h-10.9v48h10.9c7.1,0,11.1-2.4,11.1-12.5V90.1C698.7,80,694.7,76,687.6,76z"/>
		<path d="M1255.2,75.1c-7.1,0-11.5,3.9-11.5,14v76.7c0,10.1,4.4,14,11.5,14c7.1,0,11.5-3.9,11.5-14V89.1
			C1266.7,79,1262.3,75.1,1255.2,75.1z"/>
		<path d="M844.7,76h-10.9v43h8.9c8.3,0,13.1-2.3,13.1-13.6v-14C855.7,81.2,852.6,76,844.7,76z"/>
		<path d="M1291.7,0h-640v254h640V0z M720.7,110c0,22.7-10.8,34-33.1,34h-10.9v54h-22V55h32.9c22.3,0,33.1,13.8,33.1,36.6V110z
			 M796.7,164.4c0,22.7-11.6,35.7-33.5,35.7c-21.9,0-33.5-13-33.5-35.7V90.5c0-22.7,11.6-35.7,33.5-35.7c21.9,0,33.5,13,33.5,35.7
			V164.4z M858.3,198c-1.2-4-2.5-5.4-2.5-16.9v-22.3c0-13.2-4-18.7-14.1-18.7h-7.9v58h-22V55h33.5c23.1,0,33.5,12.2,33.5,34.1v11.2
			c0,14.6-5,23.9-15,28.6v0.4c11,4.7,15,15.2,15,30v21.9c0,6.9,0,10.7,2.3,16.7H858.3z M955.7,76h-24v122h-22V76h-23V55h69V76z
			 M1024.7,76h-37v43h29v20h-29v59h-22V55h59V76z M1100.7,164.4c0,22.7-11.6,35.7-33.5,35.7c-21.9,0-33.5-13-33.5-35.7V90.5
			c0-22.7,11.6-35.7,33.5-35.7c21.9,0,33.5,13,33.5,35.7V164.4z M1174.7,198h-59V55h22v122h37V198z M1206.7,198h-22V55h22V198z
			 M1254.7,200.1c-21.9,0-34-13-34-35.7V90.5c0-22.7,12.1-35.7,34-35.7c21.9,0,34,13,34,35.7v73.9
			C1288.7,187.1,1276.6,200.1,1254.7,200.1z"/>
	</g>
	<rect x="0" y="0" stroke="#000000" stroke-miterlimit="10" width="651.7" height="254"/>
	<rect x="1291.9" y="-0.5" stroke="#000000" stroke-miterlimit="10" width="651.7" height="254"/>
</g>
<g id="Layer_6">
	<g>
		<path fill="none" stroke="#BDCCD4" stroke-miterlimit="10" d="M720.8,90.8v18.5c0,22.7-11,35.1-33.3,35.1H677v53.4h-22.3V55.4
			h32.9C709.8,55.4,720.8,68,720.8,90.8z M677,76v48.1h10.6c7.1,0,11-3.2,11-13.4V89.4c0-10.1-3.9-13.4-11-13.4H677z"/>
	</g>
</g>
</svg>
